<svg xmlns="http://www.w3.org/2000/svg" viewBox="0 0 1397.35 678.12">
    <defs>
        <style>.cls-1{fill:none;stroke:#d1c7e5;stroke-miterlimit:10;}</style>
    </defs>
    <g id="Layer_2" data-name="Layer 2">
        <g id="Layer_1-2" data-name="Layer 1">
            <ellipse class="cls-1" cx="1079.75" cy="115.8" rx="56.63" ry="36.58" />
            <ellipse class="cls-1" cx="1243.63" cy="115.8" rx="56.63" ry="36.58" />
            <path class="cls-1"
                d="M1212.31,247.12v355.8a51.86,51.86,0,0,1-50.85,52,7.12,7.12,0,0,1-1.38.09H791.29c-10.15,0-11.62-14.63-1.63-16.52,129.75-25.13,318.45-85.88,318.45-226.65a82.48,82.48,0,0,0-82.52-82.52H807.9A621.46,621.46,0,0,0,441.08,449.15C353,513.6,251.87,587.6,199.47,626a135.59,135.59,0,0,1-79.94,26.07h-7.66c-11.61,0-16.43-14.88-7.05-21.77L833.2,97.66a101.4,101.4,0,0,1,60-19.62h81.14c9.9,0,11.53,14,1.89,16.35C936,104,892.31,118.91,861,142c-69.18,50.6-33.39,160.13,52.4,160.13h141.89a52.84,52.84,0,0,0,52.83-52.83v-.17c0-26.68,19.19-50.51,45.69-53.7A52.19,52.19,0,0,1,1212.31,247.12Z" />
            <ellipse class="cls-1" cx="1068.33" cy="100.68" rx="56.63" ry="36.58" />
            <ellipse class="cls-1" cx="1232.22" cy="100.68" rx="56.63" ry="36.58" />
            <path class="cls-1"
                d="M1200.9,232V587.8a51.86,51.86,0,0,1-50.85,52,7.12,7.12,0,0,1-1.38.09H779.88c-10.16,0-11.62-14.63-1.64-16.52C908,598.21,1096.7,537.46,1096.7,396.69a82.49,82.49,0,0,0-82.52-82.52H796.48A621.43,621.43,0,0,0,429.67,434c-88.11,64.45-189.22,138.45-241.62,176.83a135.57,135.57,0,0,1-79.94,26.07h-7.65c-11.62,0-16.44-14.88-7.06-21.77L821.78,82.54a101.43,101.43,0,0,1,60-19.62H962.9c9.89,0,11.53,14,1.89,16.35-40.18,9.63-83.9,24.52-115.22,47.58C780.39,177.45,816.19,287,902,287h141.89a52.84,52.84,0,0,0,52.83-52.83V234c0-26.68,19.19-50.51,45.69-53.7A52.2,52.2,0,0,1,1200.9,232Z" />
            <ellipse class="cls-1" cx="1068.33" cy="115.8" rx="56.63" ry="36.58" />
            <ellipse class="cls-1" cx="1232.22" cy="115.8" rx="56.63" ry="36.58" />
            <path class="cls-1"
                d="M1200.9,247.12v355.8a51.86,51.86,0,0,1-50.85,52,7.12,7.12,0,0,1-1.38.09H779.88c-10.16,0-11.62-14.63-1.64-16.52C908,613.33,1096.7,552.58,1096.7,411.81a82.49,82.49,0,0,0-82.52-82.52H796.48A621.43,621.43,0,0,0,429.67,449.15C341.56,513.6,240.45,587.6,188.05,626a135.57,135.57,0,0,1-79.94,26.07h-7.65c-11.62,0-16.44-14.88-7.06-21.77L821.78,97.66a101.43,101.43,0,0,1,60-19.62H962.9c9.89,0,11.53,14,1.89,16.35C924.61,104,880.89,118.91,849.57,142,780.39,192.57,816.19,302.1,902,302.1h141.89a52.84,52.84,0,0,0,52.83-52.83v-.17c0-26.68,19.19-50.51,45.69-53.7A52.2,52.2,0,0,1,1200.9,247.12Z" />
            <ellipse class="cls-1" cx="1079.75" cy="100.68" rx="56.63" ry="36.58" />
            <ellipse class="cls-1" cx="1243.63" cy="100.68" rx="56.63" ry="36.58" />
            <path class="cls-1"
                d="M1212.31,232V587.8a51.86,51.86,0,0,1-50.85,52,7.12,7.12,0,0,1-1.38.09H791.29c-10.15,0-11.62-14.63-1.63-16.52,129.75-25.13,318.45-85.88,318.45-226.65a82.48,82.48,0,0,0-82.52-82.52H807.9A621.46,621.46,0,0,0,441.08,434C353,498.48,251.87,572.48,199.47,610.86a135.59,135.59,0,0,1-79.94,26.07h-7.66c-11.61,0-16.43-14.88-7.05-21.77L833.2,82.54a101.4,101.4,0,0,1,60-19.62h81.14c9.9,0,11.53,14,1.89,16.35C936,88.9,892.31,103.79,861,126.85,791.81,177.45,827.6,287,913.39,287h141.89a52.84,52.84,0,0,0,52.83-52.83V234c0-26.68,19.19-50.51,45.69-53.7A52.19,52.19,0,0,1,1212.31,232Z" />
            <ellipse class="cls-1" cx="1075.53" cy="100.68" rx="56.63" ry="36.58" />
            <ellipse class="cls-1" cx="1239.42" cy="100.68" rx="56.63" ry="36.58" />
            <path class="cls-1"
                d="M1208.1,232V587.8a51.86,51.86,0,0,1-50.85,52,7.12,7.12,0,0,1-1.38.09H787.08c-10.16,0-11.62-14.63-1.64-16.52,129.76-25.13,318.46-85.88,318.46-226.65a82.49,82.49,0,0,0-82.52-82.52H803.68A621.43,621.43,0,0,0,436.87,434c-88.11,64.45-189.22,138.45-241.62,176.83a135.57,135.57,0,0,1-79.94,26.07h-7.65c-11.62,0-16.44-14.88-7.06-21.77L829,82.54a101.43,101.43,0,0,1,60-19.62H970.1c9.89,0,11.53,14,1.89,16.35-40.18,9.63-83.9,24.52-115.22,47.58C787.59,177.45,823.39,287,909.18,287h141.89a52.84,52.84,0,0,0,52.83-52.83V234c0-26.68,19.19-50.51,45.69-53.7A52.2,52.2,0,0,1,1208.1,232Z" />
            <ellipse class="cls-1" cx="1073.13" cy="100.68" rx="56.63" ry="36.58" />
            <ellipse class="cls-1" cx="1237.02" cy="100.68" rx="56.63" ry="36.58" />
            <path class="cls-1"
                d="M1205.7,232V587.8a51.86,51.86,0,0,1-50.85,52,7.12,7.12,0,0,1-1.38.09H784.68c-10.16,0-11.62-14.63-1.64-16.52,129.76-25.13,318.46-85.88,318.46-226.65A82.49,82.49,0,0,0,1019,314.17H801.28A621.43,621.43,0,0,0,434.47,434c-88.11,64.45-189.22,138.45-241.62,176.83a135.57,135.57,0,0,1-79.94,26.07h-7.65c-11.62,0-16.44-14.88-7.06-21.77L826.58,82.54a101.43,101.43,0,0,1,60-19.62H967.7c9.89,0,11.53,14,1.89,16.35-40.18,9.63-83.9,24.52-115.22,47.58C785.19,177.45,821,287,906.78,287h141.89a52.84,52.84,0,0,0,52.83-52.83V234c0-26.68,19.19-50.51,45.69-53.7A52.2,52.2,0,0,1,1205.7,232Z" />
            <ellipse class="cls-1" cx="1062.09" cy="100.68" rx="56.63" ry="36.58" />
            <ellipse class="cls-1" cx="1225.98" cy="100.68" rx="56.63" ry="36.58" />
            <path class="cls-1"
                d="M1194.66,232V587.8a51.86,51.86,0,0,1-50.85,52,7.12,7.12,0,0,1-1.38.09H773.64c-10.16,0-11.62-14.63-1.64-16.52,129.76-25.13,318.46-85.88,318.46-226.65a82.49,82.49,0,0,0-82.52-82.52H790.24A621.43,621.43,0,0,0,423.43,434c-88.11,64.45-189.22,138.45-241.62,176.83a135.57,135.57,0,0,1-79.94,26.07H94.22c-11.62,0-16.44-14.88-7.06-21.77L815.54,82.54a101.43,101.43,0,0,1,60-19.62h81.14c9.89,0,11.53,14,1.89,16.35-40.18,9.63-83.9,24.52-115.22,47.58C774.15,177.45,810,287,895.74,287h141.89a52.84,52.84,0,0,0,52.83-52.83V234c0-26.68,19.19-50.51,45.69-53.7A52.2,52.2,0,0,1,1194.66,232Z" />
            <ellipse class="cls-1" cx="1109.61" cy="100.68" rx="56.63" ry="36.58" />
            <ellipse class="cls-1" cx="1273.5" cy="100.68" rx="56.63" ry="36.58" />
            <path class="cls-1"
                d="M1242.18,232V587.8a51.86,51.86,0,0,1-50.85,52,7.12,7.12,0,0,1-1.38.09H821.16c-10.16,0-11.62-14.63-1.64-16.52C949.28,598.21,1138,537.46,1138,396.69a82.49,82.49,0,0,0-82.52-82.52H837.76A621.43,621.43,0,0,0,471,434c-88.11,64.45-189.22,138.45-241.62,176.83a135.57,135.57,0,0,1-79.94,26.07h-7.65c-11.62,0-16.44-14.88-7.06-21.77L863.06,82.54a101.43,101.43,0,0,1,60-19.62h81.14c9.89,0,11.53,14,1.89,16.35-40.18,9.63-83.9,24.52-115.22,47.58C821.67,177.45,857.47,287,943.26,287h141.89A52.84,52.84,0,0,0,1138,234.15V234c0-26.68,19.19-50.51,45.69-53.7A52.2,52.2,0,0,1,1242.18,232Z" />
            <ellipse class="cls-1" cx="1106.73" cy="70.92" rx="56.63" ry="36.58" />
            <ellipse class="cls-1" cx="1270.62" cy="70.92" rx="56.63" ry="36.58" />
            <path class="cls-1"
                d="M1239.3,202.24V558a51.86,51.86,0,0,1-50.85,52,7.12,7.12,0,0,1-1.38.09H818.28c-10.16,0-11.62-14.63-1.64-16.52C946.4,568.45,1135.1,507.7,1135.1,366.93a82.49,82.49,0,0,0-82.52-82.52H834.88A621.43,621.43,0,0,0,468.07,404.27C380,468.72,278.85,542.72,226.45,581.1a135.57,135.57,0,0,1-79.94,26.07h-7.65c-11.62,0-16.44-14.88-7.06-21.77L860.18,52.78a101.43,101.43,0,0,1,60-19.62h81.14c9.89,0,11.53,14,1.89,16.35C963,59.14,919.29,74,888,97.09c-69.18,50.6-33.38,160.13,52.41,160.13h141.89a52.84,52.84,0,0,0,52.83-52.83v-.17c0-26.68,19.19-50.51,45.69-53.7A52.2,52.2,0,0,1,1239.3,202.24Z" />
            <ellipse class="cls-1" cx="1096.65" cy="126.12" rx="56.63" ry="36.58" />
            <ellipse class="cls-1" cx="1260.54" cy="126.12" rx="56.63" ry="36.58" />
            <path class="cls-1"
                d="M1229.22,257.44v355.8a51.86,51.86,0,0,1-50.85,52,7.12,7.12,0,0,1-1.38.09H808.2c-10.16,0-11.62-14.63-1.64-16.52C936.32,623.65,1125,562.9,1125,422.13a82.49,82.49,0,0,0-82.52-82.52H824.8A621.43,621.43,0,0,0,458,459.47C369.88,523.92,268.77,597.92,216.37,636.3a135.57,135.57,0,0,1-79.94,26.07h-7.65c-11.62,0-16.44-14.88-7.06-21.77L850.1,108a101.43,101.43,0,0,1,60-19.62h81.14c9.89,0,11.53,14,1.89,16.35-40.18,9.63-83.9,24.52-115.22,47.58-69.18,50.6-33.38,160.13,52.41,160.13h141.89A52.84,52.84,0,0,0,1125,259.59v-.17c0-26.68,19.19-50.51,45.69-53.7A52.2,52.2,0,0,1,1229.22,257.44Z" />
            <ellipse class="cls-1" cx="1131.69" cy="122.28" rx="56.63" ry="36.58" />
            <ellipse class="cls-1" cx="1295.58" cy="122.28" rx="56.63" ry="36.58" />
            <path class="cls-1"
                d="M1264.26,253.6V609.4a51.86,51.86,0,0,1-50.85,52,7.12,7.12,0,0,1-1.38.09H843.24c-10.16,0-11.62-14.63-1.64-16.52,129.76-25.13,318.46-85.88,318.46-226.65a82.49,82.49,0,0,0-82.52-82.52H859.84A621.43,621.43,0,0,0,493,455.63c-88.11,64.45-189.22,138.45-241.62,176.83a135.57,135.57,0,0,1-79.94,26.07h-7.65c-11.62,0-16.44-14.88-7.06-21.77L885.14,104.14a101.43,101.43,0,0,1,60-19.62h81.14c9.89,0,11.53,14,1.89,16.35-40.18,9.63-83.9,24.52-115.22,47.58-69.18,50.6-33.38,160.13,52.41,160.13h141.89a52.84,52.84,0,0,0,52.83-52.83v-.17c0-26.68,19.19-50.51,45.69-53.7A52.2,52.2,0,0,1,1264.26,253.6Z" />
            <ellipse class="cls-1" cx="1154.73" cy="138.45" rx="56.63" ry="36.58" />
            <ellipse class="cls-1" cx="1318.62" cy="138.45" rx="56.63" ry="36.58" />
            <path class="cls-1"
                d="M1287.3,269.76v355.8a51.88,51.88,0,0,1-50.85,52,8,8,0,0,1-1.38.08H866.28c-10.16,0-11.62-14.63-1.64-16.52C994.4,636,1183.1,575.23,1183.1,434.46a82.48,82.48,0,0,0-82.52-82.52H882.88A621.43,621.43,0,0,0,516.07,471.8C428,536.25,326.85,610.25,274.45,648.62a135.51,135.51,0,0,1-79.94,26.08h-7.65c-11.62,0-16.44-14.89-7.06-21.77L908.18,120.3a101.5,101.5,0,0,1,60-19.62h81.14c9.89,0,11.53,14,1.89,16.35-40.18,9.64-83.9,24.52-115.22,47.59-69.18,50.59-33.38,160.13,52.41,160.13h141.89a52.85,52.85,0,0,0,52.83-52.84v-.17c0-26.67,19.19-50.51,45.69-53.69A52.19,52.19,0,0,1,1287.3,269.76Z" />
            <ellipse class="cls-1" cx="1176.33" cy="96.12" rx="56.63" ry="36.58" />
            <ellipse class="cls-1" cx="1340.22" cy="96.12" rx="56.63" ry="36.58" />
            <path class="cls-1"
                d="M1308.9,227.44v355.8a51.86,51.86,0,0,1-50.85,52,7.12,7.12,0,0,1-1.38.09H887.88c-10.16,0-11.62-14.63-1.64-16.52C1016,593.65,1204.7,532.9,1204.7,392.13a82.49,82.49,0,0,0-82.52-82.52H904.48A621.43,621.43,0,0,0,537.67,429.47C449.56,493.92,348.45,567.92,296.05,606.3a135.57,135.57,0,0,1-79.94,26.07h-7.65c-11.62,0-16.44-14.88-7.06-21.77L929.78,78a101.43,101.43,0,0,1,60-19.62h81.14c9.89,0,11.53,14,1.89,16.35-40.18,9.63-83.9,24.52-115.22,47.58-69.18,50.6-33.38,160.13,52.41,160.13h141.89a52.84,52.84,0,0,0,52.83-52.83v-.17c0-26.68,19.19-50.51,45.69-53.7A52.2,52.2,0,0,1,1308.9,227.44Z" />
            <ellipse class="cls-1" cx="980.39" cy="63" rx="56.63" ry="36.58" />
            <ellipse class="cls-1" cx="1144.27" cy="63" rx="56.63" ry="36.58" />
            <path class="cls-1"
                d="M1113,194.32v355.8a51.86,51.86,0,0,1-50.85,52,7.12,7.12,0,0,1-1.38.09H691.93c-10.15,0-11.62-14.63-1.63-16.52,129.75-25.13,318.45-85.88,318.45-226.65a82.48,82.48,0,0,0-82.52-82.52H708.54A621.46,621.46,0,0,0,341.72,396.35C253.61,460.8,152.51,534.8,100.11,573.18a135.59,135.59,0,0,1-79.94,26.07H12.51c-11.61,0-16.43-14.88-7-21.77L733.84,44.86a101.4,101.4,0,0,1,60-19.62H875c9.9,0,11.53,14,1.89,16.35C836.66,51.22,793,66.11,761.63,89.17,692.45,139.77,728.24,249.3,814,249.3H955.92a52.84,52.84,0,0,0,52.83-52.83v-.17c0-26.68,19.19-50.51,45.69-53.7A52.19,52.19,0,0,1,1113,194.32Z" />
            <ellipse class="cls-1" cx="1100.97" cy="115.8" rx="56.63" ry="36.58" />
            <ellipse class="cls-1" cx="1264.86" cy="115.8" rx="56.63" ry="36.58" />
            <path class="cls-1"
                d="M1233.54,247.12v355.8a51.86,51.86,0,0,1-50.85,52,7.12,7.12,0,0,1-1.38.09H812.52c-10.16,0-11.62-14.63-1.64-16.52,129.76-25.13,318.46-85.88,318.46-226.65a82.49,82.49,0,0,0-82.52-82.52H829.12A621.43,621.43,0,0,0,462.31,449.15C374.2,513.6,273.09,587.6,220.69,626a135.57,135.57,0,0,1-79.94,26.07H133.1c-11.62,0-16.44-14.88-7.06-21.77L854.42,97.66A101.43,101.43,0,0,1,914.4,78h81.14c9.89,0,11.53,14,1.89,16.35C957.25,104,913.53,118.91,882.21,142,813,192.57,848.83,302.1,934.62,302.1h141.89a52.84,52.84,0,0,0,52.83-52.83v-.17c0-26.68,19.19-50.51,45.69-53.7A52.2,52.2,0,0,1,1233.54,247.12Z" />
            <ellipse class="cls-1" cx="1076.97" cy="96.12" rx="56.63" ry="36.58" />
            <ellipse class="cls-1" cx="1240.86" cy="96.12" rx="56.63" ry="36.58" />
            <path class="cls-1"
                d="M1209.54,227.44v355.8a51.86,51.86,0,0,1-50.85,52,7.12,7.12,0,0,1-1.38.09H788.52c-10.16,0-11.62-14.63-1.64-16.52,129.76-25.13,318.46-85.88,318.46-226.65a82.49,82.49,0,0,0-82.52-82.52H805.12A621.43,621.43,0,0,0,438.31,429.47C350.2,493.92,249.09,567.92,196.69,606.3a135.57,135.57,0,0,1-79.94,26.07H109.1c-11.62,0-16.44-14.88-7.06-21.77L830.42,78a101.43,101.43,0,0,1,60-19.62h81.14c9.89,0,11.53,14,1.89,16.35-40.18,9.63-83.9,24.52-115.22,47.58-69.18,50.6-33.38,160.13,52.41,160.13h141.89a52.84,52.84,0,0,0,52.83-52.83v-.17c0-26.68,19.19-50.51,45.69-53.7A52.2,52.2,0,0,1,1209.54,227.44Z" />
            <ellipse class="cls-1" cx="1056.81" cy="96.12" rx="56.63" ry="36.58" />
            <ellipse class="cls-1" cx="1220.7" cy="96.12" rx="56.63" ry="36.58" />
            <path class="cls-1"
                d="M1189.38,227.44v355.8a51.86,51.86,0,0,1-50.85,52,7.12,7.12,0,0,1-1.38.09H768.36c-10.16,0-11.62-14.63-1.64-16.52,129.76-25.13,318.46-85.88,318.46-226.65a82.49,82.49,0,0,0-82.52-82.52H785A621.43,621.43,0,0,0,418.15,429.47C330,493.92,228.93,567.92,176.53,606.3a135.57,135.57,0,0,1-79.94,26.07H88.94c-11.62,0-16.44-14.88-7.06-21.77L810.26,78a101.43,101.43,0,0,1,60-19.62h81.14c9.89,0,11.53,14,1.89,16.35-40.18,9.63-83.9,24.52-115.22,47.58-69.18,50.6-33.38,160.13,52.41,160.13h141.89a52.84,52.84,0,0,0,52.83-52.83v-.17c0-26.68,19.19-50.51,45.69-53.7A52.2,52.2,0,0,1,1189.38,227.44Z" />
            <ellipse class="cls-1" cx="1018.12" cy="90.36" rx="56.63" ry="36.58" />
            <ellipse class="cls-1" cx="1182.01" cy="90.36" rx="56.63" ry="36.58" />
            <path class="cls-1"
                d="M1150.69,221.68v355.8a51.86,51.86,0,0,1-50.86,52,7,7,0,0,1-1.37.09H729.66c-10.15,0-11.61-14.63-1.63-16.52,129.76-25.13,318.46-85.88,318.46-226.65A82.49,82.49,0,0,0,964,303.85H746.27A621.41,621.41,0,0,0,379.46,423.71c-88.12,64.45-189.22,138.45-241.62,176.83A135.57,135.57,0,0,1,57.9,626.61H50.24c-11.61,0-16.43-14.88-7.05-21.77L771.57,72.22a101.4,101.4,0,0,1,60-19.62h81.14c9.9,0,11.53,14,1.9,16.35-40.19,9.63-83.9,24.52-115.22,47.58-69.18,50.6-33.38,160.13,52.4,160.13H993.65a52.85,52.85,0,0,0,52.84-52.83v-.17c0-26.68,19.18-50.51,45.69-53.7A52.2,52.2,0,0,1,1150.69,221.68Z" />
            <ellipse class="cls-1" cx="983.4" cy="63" rx="56.63" ry="36.58" />
            <ellipse class="cls-1" cx="1147.29" cy="63" rx="56.63" ry="36.58" />
            <path class="cls-1"
                d="M1116,194.32v355.8a51.86,51.86,0,0,1-50.86,52,7,7,0,0,1-1.37.09H694.94c-10.15,0-11.61-14.63-1.63-16.52,129.76-25.13,318.45-85.88,318.45-226.65a82.48,82.48,0,0,0-82.51-82.52H711.55A621.41,621.41,0,0,0,344.74,396.35C256.62,460.8,155.52,534.8,103.12,573.18a135.57,135.57,0,0,1-79.94,26.07H15.52c-11.61,0-16.43-14.88-7-21.77L736.85,44.86a101.4,101.4,0,0,1,60-19.62H878c9.9,0,11.53,14,1.9,16.35C839.67,51.22,796,66.11,764.64,89.17,695.46,139.77,731.25,249.3,817,249.3H958.93a52.84,52.84,0,0,0,52.83-52.83v-.17c0-26.68,19.19-50.51,45.7-53.7A52.2,52.2,0,0,1,1116,194.32Z" />
            <ellipse class="cls-1" cx="983.4" cy="38.26" rx="56.63" ry="36.58" />
            <ellipse class="cls-1" cx="1147.29" cy="38.26" rx="56.63" ry="36.58" />
            <path class="cls-1"
                d="M1116,169.58v355.8a51.86,51.86,0,0,1-50.86,52,7,7,0,0,1-1.37.09H694.94c-10.15,0-11.61-14.63-1.63-16.52,129.76-25.13,318.45-85.88,318.45-226.65a82.48,82.48,0,0,0-82.51-82.52H711.55A621.42,621.42,0,0,0,344.74,371.62c-88.12,64.45-189.22,138.45-241.62,176.82a135.57,135.57,0,0,1-79.94,26.07H15.52c-11.61,0-16.43-14.88-7-21.77L736.85,20.12A101.4,101.4,0,0,1,796.82.5H878c9.9,0,11.53,14,1.9,16.35C839.67,26.49,796,41.37,764.64,64.43,695.46,115,731.25,224.56,817,224.56H958.93a52.84,52.84,0,0,0,52.83-52.83v-.17c0-26.67,19.19-50.51,45.7-53.69A52.19,52.19,0,0,1,1116,169.58Z" />
            <ellipse class="cls-1" cx="1031.56" cy="38.26" rx="56.63" ry="36.58" />
            <ellipse class="cls-1" cx="1195.45" cy="38.26" rx="56.63" ry="36.58" />
            <path class="cls-1"
                d="M1164.13,169.58v355.8a51.86,51.86,0,0,1-50.86,52,7,7,0,0,1-1.37.09H743.1c-10.15,0-11.61-14.63-1.63-16.52,129.76-25.13,318.46-85.88,318.46-226.65a82.49,82.49,0,0,0-82.52-82.52H759.71A621.42,621.42,0,0,0,392.9,371.62c-88.12,64.45-189.22,138.45-241.62,176.82a135.57,135.57,0,0,1-79.94,26.07H63.68c-11.61,0-16.43-14.88-7-21.77L785,20.12A101.4,101.4,0,0,1,845,.5h81.14c9.9,0,11.53,14,1.9,16.35-40.19,9.64-83.9,24.52-115.22,47.58-69.18,50.6-33.38,160.13,52.4,160.13h141.89a52.85,52.85,0,0,0,52.84-52.83v-.17c0-26.67,19.18-50.51,45.69-53.69A52.19,52.19,0,0,1,1164.13,169.58Z" />
            <ellipse class="cls-1" cx="1035.77" cy="70.92" rx="56.63" ry="36.58" />
            <ellipse class="cls-1" cx="1199.66" cy="70.92" rx="56.63" ry="36.58" />
            <path class="cls-1"
                d="M1168.34,202.24V558a51.86,51.86,0,0,1-50.85,52,7.12,7.12,0,0,1-1.38.09H747.32c-10.16,0-11.62-14.63-1.64-16.52,129.76-25.13,318.46-85.88,318.46-226.65a82.48,82.48,0,0,0-82.52-82.52H763.92A621.46,621.46,0,0,0,397.11,404.27C309,468.72,207.9,542.72,155.49,581.1a135.54,135.54,0,0,1-79.93,26.07H67.9c-11.62,0-16.44-14.88-7.06-21.77L789.22,52.78a101.43,101.43,0,0,1,60-19.62h81.14c9.89,0,11.53,14,1.89,16.35C892.05,59.14,848.34,74,817,97.09c-69.19,50.6-33.39,160.13,52.4,160.13h141.89a52.84,52.84,0,0,0,52.83-52.83v-.17c0-26.68,19.19-50.51,45.69-53.7A52.19,52.19,0,0,1,1168.34,202.24Z" />
            <ellipse class="cls-1" cx="1044.35" cy="115.8" rx="56.63" ry="36.58" />
            <ellipse class="cls-1" cx="1208.23" cy="115.8" rx="56.63" ry="36.58" />
            <path class="cls-1"
                d="M1176.91,247.12v355.8a51.86,51.86,0,0,1-50.85,52,7.12,7.12,0,0,1-1.38.09H755.89c-10.15,0-11.62-14.63-1.64-16.52,129.76-25.13,318.46-85.88,318.46-226.65a82.48,82.48,0,0,0-82.52-82.52H772.5A621.46,621.46,0,0,0,405.68,449.15C317.57,513.6,216.47,587.6,164.06,626a135.54,135.54,0,0,1-79.93,26.07H76.47c-11.62,0-16.43-14.88-7.06-21.77L797.79,97.66a101.45,101.45,0,0,1,60-19.62h81.14c9.9,0,11.53,14,1.89,16.35C900.62,104,856.91,118.91,825.59,142,756.41,192.57,792.2,302.1,878,302.1h141.89a52.84,52.84,0,0,0,52.83-52.83v-.17c0-26.68,19.19-50.51,45.69-53.7A52.19,52.19,0,0,1,1176.91,247.12Z" />
            <ellipse class="cls-1" cx="1062.76" cy="115.8" rx="56.63" ry="36.58" />
            <ellipse class="cls-1" cx="1226.65" cy="115.8" rx="56.63" ry="36.58" />
            <path class="cls-1"
                d="M1195.33,247.12v355.8a51.86,51.86,0,0,1-50.86,52,7,7,0,0,1-1.37.09H774.3c-10.15,0-11.61-14.63-1.63-16.52,129.76-25.13,318.46-85.88,318.46-226.65a82.49,82.49,0,0,0-82.52-82.52H790.91A621.41,621.41,0,0,0,424.1,449.15C336,513.6,234.88,587.6,182.48,626a135.57,135.57,0,0,1-79.94,26.07H94.88c-11.61,0-16.43-14.88-7-21.77L816.21,97.66a101.4,101.4,0,0,1,60-19.62h81.14c9.9,0,11.53,14,1.9,16.35C919,104,875.32,118.91,844,142c-69.18,50.6-33.38,160.13,52.4,160.13h141.89a52.85,52.85,0,0,0,52.84-52.83v-.17c0-26.68,19.18-50.51,45.69-53.7A52.2,52.2,0,0,1,1195.33,247.12Z" />
            <ellipse class="cls-1" cx="1079.75" cy="108.69" rx="56.63" ry="36.58" />
            <ellipse class="cls-1" cx="1243.63" cy="108.69" rx="56.63" ry="36.58" />
            <path class="cls-1"
                d="M1212.31,240V595.8a51.88,51.88,0,0,1-50.85,52,8,8,0,0,1-1.38.08H791.29c-10.15,0-11.62-14.63-1.63-16.52,129.75-25.12,318.45-85.87,318.45-226.64a82.47,82.47,0,0,0-82.52-82.52H807.9A621.46,621.46,0,0,0,441.08,442C353,506.49,251.87,580.49,199.47,618.86a135.53,135.53,0,0,1-79.94,26.08h-7.66c-11.61,0-16.43-14.89-7.05-21.77L833.2,90.54a101.47,101.47,0,0,1,60-19.62h81.14c9.9,0,11.53,14,1.89,16.35C936,96.91,892.31,111.79,861,134.86,791.81,185.45,827.6,295,913.39,295h141.89a52.85,52.85,0,0,0,52.83-52.84V242c0-26.67,19.19-50.51,45.69-53.69A52.18,52.18,0,0,1,1212.31,240Z" />
        </g>
    </g>
</svg>