<svg  xmlns="http://www.w3.org/2000/svg" fill="white" viewBox="0 0 841.89 595.28"><path d="M450.89,335c1-1.83,2.5-3.21,3.24-5.34.69-1.95,2.52-3.5,3.87-5.2a1.19,1.19,0,0,1,.67-.27,20.32,20.32,0,0,0,8.28-4.37,12.45,12.45,0,0,1,7.4-3.16,3.32,3.32,0,0,0,1.09-.32,8.05,8.05,0,0,0,2.18.81,2.68,2.68,0,0,1,2.2,1.16c1.05,1.35,2.14,2.68,3.3,3.92a1.36,1.36,0,0,0,1.3,0,23,23,0,0,0,2.78-2.34c1.73-1.72,3.58-3.13,6.17-3.11a1.06,1.06,0,0,0,.56-.11c3.89-2.1,7.71-.92,11.5.28.74.23,1.28,1,2,1.44a3.44,3.44,0,0,0,1.86.75,6.83,6.83,0,0,0,3.12-1c3.39-2.37,6.69-1.5,10.17-.25,2.79,1,4.12,3.25,5.49,5.55,1.57,2.61,1,5.19-.3,7.64a2.09,2.09,0,0,0-.15,2.28c1,1.67,2,3.32,3,5a6.26,6.26,0,0,0,.79.74c.67-1.74,1.33-3.27,1.86-4.85,1.77-5.31,3.54-10.62,5.23-15.95,1.58-5,3-10.07,4.6-15.08.86-2.74,2-5.4,2.84-8.14.76-2.35,1.36-4.75,2-7.13,1.35-4.72,2.71-9.42,4.06-14.14,1.42-4.95,2.86-9.9,4.23-14.87,1.12-4.06,2.09-8.17,3.25-12.23.62-2.19,1.52-4.31,2.25-6.47.83-2.52,1.57-5.07,2.42-7.58,1-2.91,2-5.81,3.06-8.67a52.72,52.72,0,0,1,2.8-6.71,48.27,48.27,0,0,1,5-7.89c2.34-2.83,5.6-2,8-.15,2.16,1.65,2.12,4.25.42,6.55a26.55,26.55,0,0,0-2.26,3.9,64.43,64.43,0,0,0-3.9,8.24c-.6,1.79-1.9,3.4-1.62,5.59.11.95-1,2-1.48,3.08-.89,2-1.81,4.1-2.51,6.21-.76,2.3-1.24,4.68-1.92,7-1,3.52-2,7.07-3.22,10.53-.78,2.23-2,4.31-2.83,6.52a10,10,0,0,0-.17,3,5.3,5.3,0,0,1-.12,1.39c-.32.94-.83,1.82-1.13,2.76-.92,2.91-1.78,5.84-2.68,8.75a43.54,43.54,0,0,1-2,6.35c-1,2.2-1.27,4.5-1.76,6.78-.43,2-1.36,3.84-2,5.78-.4,1.27-.59,2.6-.95,3.89-.16.6-.55,1.14-.73,1.73-.91,2.93-1.81,5.85-2.67,8.79-.56,1.92-.93,3.9-1.57,5.8-1,2.85-2.11,5.64-3.1,8.48-.51,1.49-.83,3-1.36,5a43,43,0,0,0,4.13-2.7c2.31-1.93,4.55-3.95,6.69-6.05,1.92-1.86,3.54-4.05,5.53-5.81s3.25-4.29,4.81-6.46c2.34-3.26,4.54-6.64,6.57-10.1,1.69-2.86,3.49-5.68,4.2-9.07.45-2.15,1.69-4.12,2.37-6.23a59.25,59.25,0,0,0,1.58-6.47c.79-4,1.47-8,2.24-12A124.49,124.49,0,0,0,583.86,255a30.13,30.13,0,0,1,1-4.43c.74,1.2.92,2.42,2.32,2.1a2.84,2.84,0,0,1,.41,1.11,108,108,0,0,1-.55,20.26c-.37,3.48-1.4,6.9-2.11,10.35a8.87,8.87,0,0,0-.2,1.45c-.07,2.18-.1,4.36-.18,6.54a3.77,3.77,0,0,1-.33.92,16.48,16.48,0,0,0-.9,2.82c-.2,1.49-.19,2.92-1.85,3.76-.6.31-.84,1.32-1.23,2-1,1.83-.66,3.94-1.14,5.81a19.3,19.3,0,0,1-3.26,5.95c-1.35,1.92-2.85,3.62-3.58,6-.54,1.76-2.08,3.21-3.17,4.8a17.38,17.38,0,0,0-1,1.44,8.64,8.64,0,0,1-2.66,3.35c-1.18.8-1.84,2.34-2.84,3.45-1.33,1.46-2.77,2.82-4.16,4.23-.2.2-.38.42-.74.82a3.92,3.92,0,0,0,1.27,0,46.25,46.25,0,0,0,4.28-2.15c3.5-2.12,7-4.23,10.41-6.55a16.53,16.53,0,0,0,5.26-4.92c1.91-3.17,4.49-3.35,7.51-1.22a11.75,11.75,0,0,1,4.48,6.58c.05.18.14.43.07.56-.86,1.4-1.46,3.18-2.69,4.09-3.38,2.51-7,4.69-10.58,6.94-2.24,1.41-4.59,2.64-6.8,4.09-1.27.82-1.11,2.17.21,2.9a27.63,27.63,0,0,1,8.11,7.18c1.09,1.35,2.41,2.86,2.64,4.44.45,3.07,1.31,6.42-1.52,9-1.61,1.48-3,3.14-4.77,4.47a9.55,9.55,0,0,1-3.3,1.19c-2.75.78-5.5,1.55-8.27,2.24-3.25.81-6.52,1.49-9.77,2.28-.9.22-1.74.65-2.62.92-2.4.76-4.82,1.46-7.21,2.24a18.26,18.26,0,0,0-2.17,1.05,9.08,9.08,0,0,0,7.5-.61c2-1,3.71.18,5.54.52a4.36,4.36,0,0,0,1.48-.07c.61-.1,1.2-.36,1.81-.4a27.31,27.31,0,0,1,6.11-.2,11,11,0,0,0,7.1-.7c.64-.32,1.77.51,2.67.5a10.76,10.76,0,0,0,4-.53c1.49-.63,2.77,0,4.14.07,1.59.05,3.19,0,4.78,0s3.29,0,4.94-.07c1.89-.08,3.77-.27,5.66-.37,2.82-.16,5.64-.27,8.45-.43,2.48-.14,4.95-.42,7.42-.47,3.46-.08,6.92.06,10.38,0,4.27-.1,8.54-.22,12.79-.56a64.83,64.83,0,0,1,7.76-.05,70.74,70.74,0,0,0,7.55-.41q3.42-.24,6.82-.57c.94-.09,1.62,0,1.74,1.19,0,.4.5.76.71,1.06-1,3.28-4.2,1.8-6.39,2.88l.78.68c-.14.13-.24.29-.35.3-4.63.47-9.26.92-13.89,1.4-4.29.45-8.58,1-12.88,1.38-1.83.18-3.69.18-5.53.28l-13.56.73c-2.94.16-5.89.3-8.83.53-3.8.3-7.6.7-11.41,1-.91.07-1.85-.24-2.75-.15-2.65.26-5.29.63-7.94,1-.24,0-.5.18-.71.13-3-.71-5.88.69-8.92.56-3.58-.16-7.2.75-10.81,1-2.8.2-5.64,0-8.44.19-4,.3-7.9.8-11.84,1.25-1.24.14-2.4.67-3.72.07-.49-.22-1.33.23-2,.47-1.75.63-3.63-.18-5.48.81-1.29.69-3.17.41-4.78.34a2.07,2.07,0,0,0-2.41,1.74,37.71,37.71,0,0,1-3.7,8.64c-2.71,4.39-5.91,8.6-7.13,13.79a3.15,3.15,0,0,1-.37.79c-1.24,2-2.5,4-3.74,6.05-.4.65-.79,1.32-1.15,2-2.21,4.19-4.4,8.4-6.63,12.58q-1.23,2.33-2.61,4.56a13,13,0,0,1-2.23,3.14,4.52,4.52,0,0,1-3.08,1.16c-.52-.07-1.16-1.74-1.19-2.7-.19-5.15,2.15-9.6,4.11-14.15.9-2.09,1.68-4.23,2.6-6.32s2-4.18,3-6.27c.54-1.14,1.08-2.29,1.64-3.42q4.68-9.31,9.35-18.64a12.94,12.94,0,0,0,.46-1.43c-2.63.22-5,.38-7.38.61-2.74.26-5.56,1.13-8.19.73-2.46-.38-4.32,1.28-6.57.93,0,0-.09,0-.14.05-3.38.47-6.74,1-10.13,1.38-2.65.27-5.32.28-8,.4a3.11,3.11,0,0,0-.44.06c-2.24.52-4.47,1.12-6.74,1.53-2,.37-4.13.51-6.19.78-.66.09-1.31.28-2,.4-.89.16-1.78.33-2.67.44-1.63.21-3.26.37-4.89.56s-3,.3-4.48.58c-1.8.35-3.57.92-5.38,1.25-1.56.28-3.16.31-4.73.51q-3.42.45-6.81,1c-2.68.44-5.33,1-8,1.4-2.36.35-4.75.47-7.12.81s-4.73.86-7.11,1.23c-1.91.29-3.84.46-5.76.7a6.93,6.93,0,0,0-1.1.32c-1.05.33-1.93.93-3.23.68-1.09-.21-2.34.45-3.53.69-2.18.44-4.36.89-6.55,1.26-3,.51-6,1-9,1.41-2.14.31-4.29.49-6.42.84-1.51.25-3,.7-4.49,1-.75.17-1.51.3-2.26.42a2.5,2.5,0,0,0-2.36,2.39c-.39,4.37-2.24,8.29-3.7,12.34-.83,2.3-1.27,4.73-2,7.07-1.11,3.66-2.3,7.3-3.47,10.94-.73,2.29-1.47,4.57-2.24,6.84-1,3-2,6-3.11,8.95-1,2.55-2.2,5-3.1,7.55-1.9,5.46-5.11,10.23-8.35,14.88-1.59,2.28-4.3,3.93-6.79,5.39-2.77,1.62-5.94,1.6-9.15,1.21a42.85,42.85,0,0,1-9.76-2.77c-2.6-1-4.93-2.85-7.91-2.75a1.23,1.23,0,0,1-.56-.15,22.68,22.68,0,0,1-4.41-2.11,11.76,11.76,0,0,0-2.93-1.32c-1.85-.76-3.67-1.59-5.5-2.39A29.62,29.62,0,0,0,279,483.7c-3.82-.84-7.51-2.3-11.25-3.52-.55-.18-1.08-.43-1.63-.62-2.59-.91-5.17-1.84-7.78-2.69a15.22,15.22,0,0,0-3-.64c-2.77-.33-4.79-2.51-7.5-3a18.81,18.81,0,0,1-2.1-.49c-2.35-.71-4.68-1.48-7-2.17-.73-.21-1.56-.13-2.26-.4-1-.39-2.22-.17-3.09-1.22-.37-.45-1.45-.43-2.2-.43-1.76,0-3.47,0-4.57-1.7a.54.54,0,0,0-.51-.17c-2.35.91-4.05-.72-6-1.41-1.82-.64-3.74-1-5.61-1.48a24.79,24.79,0,0,1-3-.93,57.41,57.41,0,0,0-9.76-3c-3.55-.77-7-2.12-10.46-3.2-2.49-.77-5-1.5-7.48-2.3a5.38,5.38,0,0,1-3.31-3.49,20.51,20.51,0,0,1-1-4.51,2.62,2.62,0,0,1,.61-2.09,47,47,0,0,1,4.89-3.36c2.37-1.47,5.14-1.68,7.79-2.25,4.1-.89,8.23-1.64,12.34-2.49,4.28-.89,8.53-1.87,12.82-2.73,2.28-.46,4.6-.69,6.89-1.12s4.71-1,7.07-1.47c1-.19,1.93-.28,2.89-.39,1.29-.15,2.59-.28,3.88-.41,1-.11,2.08-.18,3.11-.33,3.16-.44,6.31-.85,9.45-1.37,2.67-.44,5.32-1,8-1.53.67-.13,1.35-.2,2-.29l10.12-1.37a2.1,2.1,0,0,0,.44,0c3.29-1.23,6.82-1.14,10.21-1.85a31.57,31.57,0,0,1,3.78-.24c.58,0,1.34,0,1.68-.36,1.82-1.86,4.21-1.17,6.35-1.58,1.72-.32,3.43-.66,5.15-.94.7-.11,1.41-.1,2.11-.14a5.65,5.65,0,0,0,.58,0c2.35-.34,4.69-.72,7-1,2.87-.4,5.75-.69,8.6-1.15,1.87-.29,3.69-.84,5.54-1.21q8.26-1.68,16.54-3.31c1.88-.37,3.77-.66,5.66-1,1.54-.26,2.77-.93,3.13-2.61.5-2.36,1-4.74,1.5-7.1a11.41,11.41,0,0,1,.51-1.63c.38-1,1.43-1.8.78-3.05,1.59-2.22,1.46-5.47,4.16-7a2.65,2.65,0,0,0,1.37-2.28c.43-2.63,1.16-5.2,1.85-7.78,1.13-4.14,2.34-8.26,3.49-12.39.24-.85.41-1.73.61-2.59-3.79.32-7.34.55-10.88.93-1.82.2-3.6.75-5.43,1a41.08,41.08,0,0,1-9.86.38c-1.23-.15-2.48,0-3.57-.68-.44-.28-1-.84-1-1.23,0-.57.47-1.49.9-1.61,3.35-.86,6.14-3.39,9.89-3.19a16.88,16.88,0,0,0,4.82-.83c.51-.13.89-.78,1.16-1l3.77-.72a4.72,4.72,0,0,0-.56-1.05,3.89,3.89,0,0,1-1.16-3.81,2.16,2.16,0,0,0-.53-1.43c-.81-1.14-1.71-2.23-2.56-3.35s-1.43-1.05-2.42-.2c-3,2.57-6.34,4.35-10.51,3.89a4,4,0,0,0-1.41.27c-1.81.48-3.61,1-5.42,1.48-.14,0-.32,0-.43.1-1.48,1-3.18.72-4.82.81-1.06.05-2.11.32-3.17.36a4,4,0,0,1-2-.31,43.83,43.83,0,0,1-3.92-2.55c-.73-.51-1.17-.7-1.66.35-.67,1.44-1.68,2.74-2.34,4.19-.53,1.16-.67,2.49-1.16,3.67a7.75,7.75,0,0,1-1.46,2,20.4,20.4,0,0,1-2.39,2.35,2.31,2.31,0,0,1-1.69.59,1.55,1.55,0,0,0-1.78.55c-.16.16-.48.4-.6.35-1.49-.73-2.25.34-2.8,1.3a9.9,9.9,0,0,0-1,3.13c-.58,3-.81,6.16-1.67,9.11-.64,2.22-2,4.21-3.09,6.31a11.91,11.91,0,0,1-1.27,2.46,106.12,106.12,0,0,1-8.05,9.13c-2.05,1.95-4.69,3.29-7.15,4.77a50.65,50.65,0,0,1-5.78,3.06c-4.7,2.08-9.46,4.05-14.2,6.06-1.56.66-3.14,1.3-4.79,2-1-1.38-2.76-1.44-4.27-1.92-2.77-.88-5.43-4.35-5.78-7.24-.62-5.16,2-8.62,5.68-11.52,3.51-2.75,7.14-5.35,10.75-8,2.58-1.86,5.25-3.6,7.83-5.46,1.57-1.13,3.06-2.38,4.58-3.57.27-.2.52-.51.82-.58,2.33-.47,3.82-2.2,5.52-3.61.85-.71,1.8-1.29,2.71-1.92,1.31-.91,2.67-1.77,3.93-2.75a15.27,15.27,0,0,0,2.64-2.5,4.92,4.92,0,0,0,1.12-2.56,70,70,0,0,0-.11-7.09c0-.76-.29-2.09-.64-2.16a3.37,3.37,0,0,0-2.53.59,6.58,6.58,0,0,1-3.68,1.51c-1.8.25-3.55.88-5.33,1.3-3.09.72-6,.51-8.51-1.7-.94-.82-1.72-.38-2.55.51-1.39,1.47-2.35,3.37-4.49,4.19-1.06.4-1.65,1.88-2.63,2.63-2.74,2.09-5.59,4-9.24,4.1a1.33,1.33,0,0,0-.7.11c-3.16,2.12-6.69,1.29-10,1.07-3-.2-5.16-2.1-6.38-4.93-.35-.8-.76-1.58-1.09-2.39-.41-1-.87-1.09-1.69-.41a10.82,10.82,0,0,1-1.8,1.07c-1.23.67-2.49,1.29-3.69,2-2.59,1.57-5.12,3.24-7.74,4.76s-5.61,2.79-8.2,4.51q-6.9,4.59-13.5,9.62c-2.39,1.84-4.34,4.26-6.7,6.15-2.72,2.19-5.71,4-8.5,6.14a15.61,15.61,0,0,1-6.4,2.54c-1.7.37-3.38.87-5,1.39-2.34.74-4.56.13-6.65-.73-2.35-1-4.46-5-4.32-7.52.18-3.42,1.64-5.68,4.77-7.52,3-1.74,6.21-2.12,9.25-3.36,3.88-1.58,8.06-2.41,12-3.91A42.25,42.25,0,0,0,188,371c1.61-1.08,2.73-2.93,3.93-4.53,2.38-3.18,4.77-6.35,6.95-9.65,1.71-2.6,3.17-5.37,4.67-8.1,1.36-2.45,2.78-4.88,3.9-7.45,2.55-5.9,5-11.87,7.37-17.84.87-2.17,1.51-4.43,2.32-6.85-1.81-.15-3.43-.33-5.06-.41-4.45-.21-8.9-.41-13.35-.55-1.74-.06-3.5.17-5.23,0a28.4,28.4,0,0,1-5.81-.94c-1.57-.47-3.32-.19-4,1.35-.94,2.23-1.71,4.54-2.54,6.82-.15.42-.23.85-.38,1.26-1.22,3.39-2.37,6.8-3.69,10.14-1.25,3.15-2.71,6.22-4,9.35-1.24,2.94-2.38,5.92-3.61,8.86-.7,1.65-1.18,3.5-2.28,4.85-2.19,2.7-3,6-4.61,9-1.79,3.25-3.67,6.43-5.51,9.65-.79,1.39-1.53,2.8-2.35,4.16a12.13,12.13,0,0,1-1.27,1.59c-.26.29-.72.49-.83.81-.84,2.67-3,4.06-5.14,5.49a34.51,34.51,0,0,0-2.81,2.49,3.65,3.65,0,0,1-1.7,1,5.62,5.62,0,0,1-2.88-.44c-.33-.16-.34-1.44-.13-2.1a11.64,11.64,0,0,1,3.56-5.38,26.38,26.38,0,0,0,4.07-4.85c1.59-2.29,3-4.7,4.38-7.12a20.93,20.93,0,0,0,1.15-3.11,7.13,7.13,0,0,1,.57-1.18c1-1.71,2-3.41,3.05-5.09a11.49,11.49,0,0,0,1.5-2.28c.53-1.72.65-3.58,1.27-5.27a26.31,26.31,0,0,1,2.27-4,3.38,3.38,0,0,0,.55-1.15c.34-3.28,1.81-6.16,3.09-9.12.74-1.71,1.32-3.48,2.05-5.19.63-1.46,1.49-2.84,2-4.33.78-2.19,1.27-4.47,2-6.67,1.22-3.6,2.58-7.14,3.81-10.73.62-1.83,1-3.72,1.62-5.56,1.48-4.88,3.11-9.72,4.45-14.64,1-3.65,1.65-7.4,2.4-11.12.58-2.86,1.12-5.72,1.58-8.6.26-1.62.31-3.28.49-4.92a34.59,34.59,0,0,1,.89-6.63c.41-1.3,2-2.18,2.83-3.41a5.72,5.72,0,0,1,2.91-2,4,4,0,0,1,4.89,1.43c.83,1.12,2.34,1,2.55,2.3a14.47,14.47,0,0,1,.13,2.27c-.23,2.25-.43,4.52-.87,6.74a28.21,28.21,0,0,1-1.42,3.33c-.56,1.65-.88,3.38-1.47,5-1.08,3-2.34,5.93-3.43,8.93a29.73,29.73,0,0,0-.83,3.56c-.14.55-.35,1.09-.5,1.64-.57,2.06-1.06,4.14-1.69,6.18s-1.4,4.13-2.12,6.19c-.59,1.68-1.27,3.34-1.78,5.05-.17.54-.11,1.6.16,1.72a3.56,3.56,0,0,0,2.35.26c3.7-1.16,7.52-1.16,11.33-1.34,4.27-.2,8.55-.32,12.83-.44,2.18,0,4.36,0,6.38,0,.24-.82.48-1.52.62-2.24.2-1,.26-2,.51-3,.3-1.18.85-2.29,1.11-3.47.48-2.2.78-4.45,1.25-6.65.56-2.59,1.25-5.16,1.85-7.75a37.77,37.77,0,0,0,.78-3.95c.32-2.6.41-5.24.83-7.82.86-5.21,1.84-10.4,2.87-15.58.32-1.62.59-3.45,1.52-4.72,1.56-2.14,3.69-3.51,6.67-2.41a4,4,0,0,1,2.79,2.7c.57,2.19,1.35,4.35.41,6.71-.48,1.19-.32,2.61-.64,3.88-.44,1.77-1.19,3.46-1.59,5.24-.6,2.72-1,5.49-1.53,8.23-.4,2-.89,4.06-1.35,6.1-.53,2.38-1,4.78-1.59,7.16-1,4.19-2.13,8.35-3.16,12.54-.43,1.76-.75,3.55-1.15,5.43l3.93.31c.87.07,1.75.15,2.62.25,2.16.24,4.32.56,6.49.72,2.94.22,5.89.26,8.82.51,1.93.16,3.84.58,5.76.83,1.73.23,3.47.37,5.2.6,4.71.63,9.48,1,14.07,2.08,1.93.46,3.84.92,5.81,1.2a5.51,5.51,0,0,1,2.24,1c.4.29.9,1.2.77,1.36a2.61,2.61,0,0,1-1.61,1,11,11,0,0,1-4.15-.27c-2.15-.79-4.25-.21-6.37-.28-2.47-.09-4.95.31-7.41-.45-1-.31-2.26,0-3.39-.05-2.6-.14-5.21-.27-7.81-.52a21.72,21.72,0,0,0-5.86.07c-1.74.29-3.65-.51-5.49-.6-1.56-.08-3.14.29-4.7.25a23.55,23.55,0,0,1-3.4-.61,14.6,14.6,0,0,0-2.35-.33c-1.31,0-2.63.13-3.94.1a1.55,1.55,0,0,0-1.74,1.19c-1.34,3.83-2.73,7.64-4.09,11.46-.94,2.64-1.76,5.33-2.82,7.92-.83,2-2,3.85-2.94,5.79-.52,1-.9,2.13-1.42,3.16-2,4-4,7.95-6,11.93a6.69,6.69,0,0,0-.3,1l.31.29c1.86-1.21,3.7-2.45,5.59-3.63.94-.59,2-1,2.93-1.62,2.61-2,5.24-3.92,7.68-6.09.84-.75,1-2.27,1.72-3.16,2.21-2.58,4.53-5.06,6.9-7.49,1.93-2,4-3.81,6-5.71a2.27,2.27,0,0,0,.4-.42c1.78-3,4.78-4.75,7.43-6.83a10,10,0,0,1,3.64-2,5.15,5.15,0,0,1,3.56.6,15.78,15.78,0,0,1,3.07,3.28c.63.74,1.58,1.53,1.65,2.36.19,2.43.36,5-1.08,7.18-1.82,2.74-3.95,5.27-5.74,8a13.94,13.94,0,0,1-3.65,4.27c-1.48,1-2.47,2.61-4.35,3.21a7.85,7.85,0,0,0-2.68,2.18,1.27,1.27,0,0,0-.05,1.2,1.18,1.18,0,0,0,1.06.45c2.35-1,5-.9,7.15-2.81a38.69,38.69,0,0,1,7-4.54c.55-.31,1.56.09,2.31.29.37.1.65.52,1.17,1a15.76,15.76,0,0,1,.66-2.65,57.4,57.4,0,0,1,2.71-5.44,13.77,13.77,0,0,1,2.21-2.51,59.36,59.36,0,0,1,5-5.05,95.62,95.62,0,0,1,8.92-6.61c.93-.61,2.09-1.63,3.55-1.08.15.06.42-.18.63-.3a7.19,7.19,0,0,1,6.7-.37c2.15,1.12,4.68,2.39,4.9,5.7.13,2,.33,4-.36,5.83a9.79,9.79,0,0,1-2.28,2.87,6.59,6.59,0,0,1-1.25.94l3.71,9.86c.42-1.34.69-2.29,1-3.23.92-2.76,1.85-5.53,2.78-8.29.49-1.46,1.06-2.89,1.48-4.36s.62-2.95,1-4.4c.46-1.65,1-3.27,1.56-4.89a3.7,3.7,0,0,1,5.28-1.75,17.84,17.84,0,0,1,2.77,2.29c1.25,1.28,2.33,1.33,3.59.08,3.25-3.24,7.13-4,11.49-2.9.58.15,1.19.17,1.77.3,2.49.58,3.83,2.6,5.3,4.39.68.83,1.35,1.22,2.15.59a39.45,39.45,0,0,0,3.1-3,10,10,0,0,1,1.68-1.59c2.14-1.27,4.07-3.13,6.77-3a3.86,3.86,0,0,1,2.33,1.12,12.06,12.06,0,0,1,2.54,3.51,8.89,8.89,0,0,1,.35,3.66c-.05,2-.38,4.05-.37,6.08a14.31,14.31,0,0,0,.65,3.94c.11.39.93.57,1.76,1,.06.74-.62.74-1.91.36l2.24,2.42c1.33-.21,2.89-.13,4.13-.73a33,33,0,0,0,4.78-3.29c2-1.41,2-1.42,3.55.24a6.07,6.07,0,0,0,.72.55c3.86-12.63,6-25.55,9.33-38.23h-2.87a6.93,6.93,0,0,0-.94-1.25c-3.18-2.79-2.48-5.41-.07-7.7a3.88,3.88,0,0,1,2.27-1.07,7.16,7.16,0,0,0,4.44-2.21c.94-.82,1.28-2.44,1.67-3.76.81-2.8,1.28-5.72,2.3-8.43.47-1.26.58-2.65,1.33-3.83a8.23,8.23,0,0,0,.48-1.94c1-3.25,1.94-6.5,3-9.72,1.14-3.42,2.37-6.81,3.61-10.2.89-2.46,1.86-4.89,2.8-7.33.1-.28.35-.54.35-.8,0-2.85,1.8-5,2.69-7.55a55.52,55.52,0,0,1,3.86-9.38c1.4-2.41,1.89-5.35,4.36-7.24,1.55-1.19,2.52-3.13,3.82-4.67a3.14,3.14,0,0,1,1.56-1,15.22,15.22,0,0,1,4.91-.79c1.14.13,2.25,1.27,3.2,2.15,2.7,2.54,3.33,6.09,4.18,9.44.45,1.8.13,3.78.26,5.67a28.55,28.55,0,0,0,.54,3.29,27.84,27.84,0,0,1,.72,7.59c-.25,3.19.24,6.45.39,9.68.07,1.44.1,2.87.16,4.31a8.87,8.87,0,0,0,.14,1.86,8.89,8.89,0,0,1-.24,5.44,8.07,8.07,0,0,0-.23,2.52,58.36,58.36,0,0,1-.22,7.38c-.65,4,0,8.26-1.79,12.12.41,3.13-.91,6-1.56,8.94s.92,3.91,2.66,5.2,3.67,2.68,5.43,4.12a32.83,32.83,0,0,1,4.15,3.83c3.31,3.89,6.75,7.68,8.84,12.46,1.05,2.39,2.72,4.55,3.52,7s2.74,4.91,2.38,7.88a3.88,3.88,0,0,0,.24,1.22ZM482.21,349l-.22-.35c-.7.3-1.65.41-2.06.94-.85,1.11-1.95,1.15-3.12,1.24-.58,0-1.15.1-1.73.18a30.93,30.93,0,0,1-5,.7,49.56,49.56,0,0,1-6.75-.82,1.69,1.69,0,0,0-2.13,1.6c.11,2.1-1.33,3.39-2.1,5a4.18,4.18,0,0,1-1.2,1.58c-1.26.95-6.13.86-7.42-.08a10.81,10.81,0,0,1-4.11-7.39c-.21-1.25-.23-2.53-.35-4.05a7.36,7.36,0,0,0-1,.77,15.24,15.24,0,0,1-7.1,4.58c-1,.37-2.13.6-3.19.92-3,.93-6,2-9.11,2.75-1.81.47-3.74.47-5.58.81-2.88.53-5.72,1.24-8.6,1.76-2.67.48-5.37.82-8.05,1.2q-5,.69-10,1.33c-2.35.31-4.69.61-7,.86-4.18.44-8.36.81-12.53,1.31a2,2,0,0,0-1.22,1.25c-.64,2.28-.81,4.64-1.55,6.94-1.18,3.66-1.82,7.49-2.87,11.2-1.24,4.43-2.67,8.81-4,13.2-.44,1.42-1,2.81-1.35,4.25-.7,2.6-1.33,5.22-2,8,1.92-.17,3.75-.26,5.57-.5,1.27-.16,2.51-.59,3.78-.76s2.4-.17,3.59-.21c3.2-.08,6-1.77,9.39-1.66,2.87.09,5.75-1.38,8.67-1.79a16.75,16.75,0,0,0,5.15-1.52,1.53,1.53,0,0,1,.43,0l3.31-.38c0-.13,0,.15.09.58,2.21-1.74,4.62-1.91,7.16-1.73.51,0,1.07-.52,1.67-.85a7.67,7.67,0,0,0,2,.49,47.87,47.87,0,0,0,5.21-.39c.79-.1,1.53-.58,2.32-.7,1.34-.21,2.71-.28,4.07-.42.19,0,.46-.06.53-.18.74-1.32,1.94-.88,3.05-.85a26.43,26.43,0,0,0,4,0c2.06-.24,4.1-.65,6.14-1,1.37-.26,2.73-.59,4.09-.88.75-.15,1.49-.31,2.24-.41s1.45-.06,2.15-.18c2.13-.35,4.25-.77,6.38-1.12,2.68-.43,5.37-.82,8.05-1.22,1.62-.24,3.24-.49,4.87-.7s3.51,0,5-.66c2.28-1,4.68.54,6.84-.7,0,0,.09,0,.14,0a1.93,1.93,0,0,0,2.29-.33c.13-.14.6.07.92.11s.76.18.89,0c1.3-1.41,2.92-1.27,4.59-1.08a2.54,2.54,0,0,0,1.57-.29c1.21-.81,2.42-.33,3.67-.29a20.1,20.1,0,0,0,4.08-.41c2.09-.38,4.16-.94,6.25-1.33s4.17,1.12,6.27,0c.1-.06.28.05.43.05,2.14,0,4.19-.23,5.62-2.15.31-.41.88-.6,1.28-.95a3.28,3.28,0,0,0,1-1.13c1.34-3.38,2.24-6.92,3.89-10.2a34.54,34.54,0,0,0,1.15-3.61c1.94-5.24,4-10.46,5.84-15.73a2.79,2.79,0,0,0-.52-2.21c-.87-1.11-2.64-1.05-4-.13a25.79,25.79,0,0,1-4.16,2.64,20.13,20.13,0,0,1-5.25,1.38,16.75,16.75,0,0,1-8.74-.93c-1.72-.71-3.69-1.09-5.14-2.16-2.11-1.55-4.33-1.81-6.77-1.9a44.14,44.14,0,0,1-7.06-.82c-.83-.16-1.43-.32-2.11.23a3.37,3.37,0,0,1-.87.3ZM336.87,445.22a10.73,10.73,0,0,0,1.69-2.2c.56-1.43.81-3,1.32-4.44,1-3,2.25-5.87,3.21-8.85.64-2,1-4.07,1.43-6.11.18-.81.09-1.31-1-1.16-3.55.51-7.26.17-10.53,2.09a1.82,1.82,0,0,1-.7.19c-3.28.42-6.56.81-9.83,1.26-1,.13-2,.38-3,.61-.7.17-1.38.41-2.07.62l-1.1.28a10.91,10.91,0,0,1-1.66.42c-1.9.22-3.83.24-5.7.62-1.4.28-2.67,1.14-4.06,1.49s-2.62.16-3.85.95c-.56.35-1.53.09-2.32.06a6.94,6.94,0,0,0-2-.11,22.47,22.47,0,0,0-4.06,1.58c-1.11.59-1.91.61-2.57-.66-.67.47-1.21,1.13-1.85,1.24-2.23.39-4.43,1.22-6.75.71a1.52,1.52,0,0,0-.73.07c-1.55.46-3.1,1-4.66,1.39-.29.09-.65-.06-1,0a16.09,16.09,0,0,0-2.79.18c-.94.21-1.79.83-2.73,1-2.47.4-5,.48-7.43,1-2.08.46-4,1.55-6.23,1.56a13.65,13.65,0,0,0-3.45.15,11.12,11.12,0,0,1-5.54.49,1.45,1.45,0,0,0-1,0,11.06,11.06,0,0,1-5.5,1.37,60.23,60.23,0,0,0-8.44,1.5c-1,.21-2,.67-3,.9-3,.7-6.14.26-9.19,1.26-3.4,1.11-7,1.55-10.52,2.35-2.11.48-4.18,1.08-6.26,1.67-.31.09-.55.42-1,.75,2.49,1.08,4.69,2.22,7,3s3.9,2.26,6.16,2.88c1.77.48,3.24,1.95,5,2.67,2.93,1.21,6,2.16,9,3.24,2.49.9,5,1.86,7.46,2.72.91.31,1.9.37,2.83.64,1.24.36,2.44.87,3.69,1.22s2.45.5,3.67.81c4.48,1.1,9,2.19,13.41,3.37,2.51.67,5.14.66,7.6,1.82,1.84.87,4.05,1,6.1,1.39,1.3.27,2.63.47,3.91.84,1.1.31,2.11.91,3.21,1.21,2.05.57,4.14,1,6.19,1.54s4.05,1.29,6.08,1.92a65,65,0,0,1,6.66,2.06,40.68,40.68,0,0,0,8.52,2.73c1.78.36,3.47,1.14,5.25,1.46,2,.36,4.14,1,5.95-.76,1-.94,2-1.81,3.05-2.71a7.75,7.75,0,0,0,1.4-1.26c2-3.14,4.08-6.28,6-9.49a7.59,7.59,0,0,0,.63-2.77c.3-2.31.54-4.62.82-6.93a3.91,3.91,0,0,1,.29-.83c.55-1.68,1.07-3.38,1.68-5a28.09,28.09,0,0,1,1.51-3.57C336.17,449.5,337.26,447.45,336.87,445.22ZM420,306.41a7.74,7.74,0,0,0-1.39,1.6c-.74,1.69-1.24,3.49-2,5.15q-2.87,6-5.92,12c-.71,1.39-1.64,2.69-2.48,4a44.31,44.31,0,0,1-2.46,3.72c-1.2,1.52-2.6,2.88-3.83,4.37a52.07,52.07,0,0,1-3.35,4.27,59.33,59.33,0,0,1-4.8,3.8c-2.68,2.14-4.91,4.86-8.17,6.24-.24.1-.36.51-.53.78.28.12.56.36.84.35a19.79,19.79,0,0,0,2.16-.23l5-.71c1.11-.16,2.23-.3,3.33-.51a13.55,13.55,0,0,1,2.92-.64c3.44.17,6.67-.92,10-1.43a11.6,11.6,0,0,0,2.07-.3c1.8-.64,3.73-.4,5.56-1.21a37.41,37.41,0,0,1,6.37-1.63c.57-.14,1.12-.31,1.68-.48,2.16-.65,4.34-1.25,6.48-2,1.09-.38,2.07-1.05,3.13-1.52,2.38-1.05,5-4.75,4.89-7.23a18.34,18.34,0,0,0-.77-5,37.87,37.87,0,0,0-3.13-6.63,51.26,51.26,0,0,0-5.12-7.34c-2.46-2.84-5-5.68-8.35-7.58A13.38,13.38,0,0,1,420,306.41ZM391.3,287.26c.89,0,1.51.1,2.12.11,1.4,0,2.8-.08,4.19,0,1.08.08,2.14.43,3.22.55a27,27,0,0,1,3.62.24c2.95.78,5.84,1.77,8.77,2.63.83.25,1.57.08,1.8-.92s.45-2.08.66-3.12a77.91,77.91,0,0,0,1.53-7.95c.5-5.44.76-10.91,1.06-16.38.12-2.07.14-4.16.08-6.24-.18-6-.28-12.06-.68-18.08-.25-3.8-1-7.57-1.52-11.36a5.52,5.52,0,0,0-.59-1.27,6.46,6.46,0,0,0-.81.86c-1.17,2-2.37,4-3.45,6.06-.86,1.63-1.55,3.35-2.34,5-1.21,2.54-2.44,5.08-3.66,7.62,0,.05,0,.1,0,.15-1,2.72-1.93,5.45-2.9,8.18-.53,1.5-1.08,3-1.58,4.49-.62,1.83-1.17,3.68-1.78,5.51-.46,1.36-1.06,2.68-1.46,4.05-1.26,4.28-2.4,8.61-3.7,12.88C393.16,282.55,392.23,284.74,391.3,287.26ZM378.35,344a42.54,42.54,0,0,0,5.73-3.24c2.41-1.89,4.57-4.1,6.82-6.21.51-.48.82-1.2,1.38-1.59a16.73,16.73,0,0,0,5.21-5.47c1-1.78,2.6-3.24,3.71-5,1.26-2,2.28-4.1,3.38-6.17,1.33-2.5,2.69-5,3.91-7.52.89-1.84,1.56-3.77,2.35-5.65a1.4,1.4,0,0,0-.91-2.13c-1-.26-2-.4-3-.68a5.12,5.12,0,0,1-2.13-.86,6,6,0,0,0-4-1.33,62.42,62.42,0,0,0-6.84,0,13.34,13.34,0,0,0-4.67,1c-.76.34-1.2,1.64-1.54,2.59a38.49,38.49,0,0,0-1.45,5c-.4,1.83-.49,3.73-.91,5.55-.72,3.09-1.67,6.13-2.37,9.22-1.09,4.84-2,9.71-3.1,14.56-.47,2.11-1.11,4.18-1.62,6.29A6.18,6.18,0,0,0,378.35,344Zm165.48,4.48a10.43,10.43,0,0,1-1.82.78,6.7,6.7,0,0,0-4.63,3.94,65.49,65.49,0,0,0-3.37,8.49c-1.1,3.18-1.74,6.51-3.25,9.56a58.91,58.91,0,0,0-2.17,5.54,3.54,3.54,0,0,0-.11.85c1.51-.55,2.93-1,4.3-1.57,3.12-1.32,6.19-2.75,9.32-4,2.32-.95,4.68-1.79,7.06-2.58,2.69-.9,5.44-1.65,8.14-2.54,1.61-.54,3.17-1.22,4.75-1.86,2.72-1.12,5.45-2.24,8.16-3.42.26-.11.58-.77.48-1a8.82,8.82,0,0,0-4.92-4.47,10.56,10.56,0,0,0-9.37,1.16c-1.62,1-3.6,1.87-5.67,1-1.73-.75-3.71-1.29-5-2.51-1.12-1-2.47-2.46-1.91-4.52A11.35,11.35,0,0,0,543.83,348.45ZM285.3,377.85l-.34-.31c-.43.27-.87.51-1.28.8-1.85,1.31-3.69,2.64-5.55,3.93-.5.36-1.11.58-1.61,1-1.22.92-2.38,1.92-3.6,2.85-2,1.51-4,3-6,4.5l-.59.41c-1.79,1.17-4.1,1.66-5,3.95a.71.71,0,0,1-.44.35c-3.53,1.06-5.22,4.62-8.39,6.19-.32.15-.39,1-.32,1.57,0,.19.83.45,1.22.37a26.36,26.36,0,0,0,4.13-1.07c3.09-1.18,6.19-2.34,9.16-3.77a33.94,33.94,0,0,0,5-3.38c1.68-1.23,3.34-2.49,4.91-3.86a44.66,44.66,0,0,0,6.55-7.75C284.43,381.78,284.7,379.8,285.3,377.85Z"/><path d="M342.81,305.94c.35-3.28.58-6.58,1.11-9.82a38.43,38.43,0,0,1,1.69-5.2,5.83,5.83,0,0,0,.46-1.74,10.22,10.22,0,0,1,3.9-8c.89-.79,2.64-.65,4-.83.19,0,.49.49.69.79.55.79,1.07,1.61,1.61,2.41a16.07,16.07,0,0,1,1.55,2.34,8.9,8.9,0,0,1-.14,6.54c-1,2.77-2.38,5.38-3.5,8.1-.58,1.41-.69,3.08-1.5,4.32A33.56,33.56,0,0,0,351,309a3.29,3.29,0,0,1-1.65,1.66c-1.37.46-2.68,1.7-4.33.56-1.41-1-1.33-2.58-1.85-3.93a3.82,3.82,0,0,1,0-1.31Z"/><path d="M318.29,320.22l3.12-1.31-.29-1a8.8,8.8,0,0,1,1-.13c1.3,0,2.61-.08,3.92,0,.59,0,1.17.33,1.76.42,1.39.22,2.89.77,4.16.46s2,.19,2.91.29a13.59,13.59,0,0,1,2.73.94l0,.5c-.4.28-.77.75-1.19.81a55.82,55.82,0,0,1-17.16-.58A7.18,7.18,0,0,1,318.29,320.22Z"/><path d="M661.35,381.65l5.38-.35C665.7,382.62,662.59,382.84,661.35,381.65Z"/></svg>