<svg id="Layer_1" data-name="Layer 1" 
fill="white" xmlns="http://www.w3.org/2000/svg" viewBox="0 0 841.89 595.28"><path d="M578.8,300.72c-.92,1-1.59,1.84-2.3,2.59a3.41,3.41,0,0,1-1,.68c-1.36.59-2.24,1.86-3.77,2.31-1.33.4-2.45,1.49-3.68,2.25-.34.21-.82.5-1.13.4-1.49-.45-2.82.18-4.22.42a2.36,2.36,0,0,1-1.21,0c-2.71-1.08-5.12-2.48-6.69-5.15-.68-1.14-.64-2.44-1.32-3.54-.54-.89-1.05-1.51-2.21-1.45s-2.49-.43-3.51.57a6.37,6.37,0,0,0-1.66,1.92,26.29,26.29,0,0,0-1.22,4.83,2.62,2.62,0,0,0-.8,2.26,3.27,3.27,0,0,1-1,2.19c-.86.82-.65,1.94-1.13,2.86-.89,1.72-1.53,3.52-2.93,5-.28.29-.58,1.07-1,1.51s-1,.46-1.45.66l-2.25.88c-.19.07-.44.25-.57.19a5.26,5.26,0,0,0-3.7-.66c-.08,0-.23-.38-.38-.55-.37-.4-.77-.79-1.15-1.18l-.48.34a39,39,0,0,0-2.53-5.75,7.38,7.38,0,0,1-1-3.18c-.26-1.57-1.39-3-2.14-4.49-.15-.32-.43-.73-.34-1,.41-1.1-.39-1.35-1.06-1.78a8.38,8.38,0,0,1-1.39-1.21c-.23-.23-.31-.71-.56-.81-1.3-.54-.78-1.35-.58-2.3a5.31,5.31,0,0,0-.25-2.76,3.61,3.61,0,0,1,2.59-4.27c1.86-.26,3.68-.78,5.53-1.15.61-.13,1.24-.14,1.85-.23l7.95-1.16a2.43,2.43,0,0,1,.38,0c2.21,0,2.55-.26,2.92-2.14.26-1.3.5-2.61.81-3.89.36-1.51.8-3,1.2-4.5s.83-3.24,1.32-4.84a28.11,28.11,0,0,1,1.08-2.67,5.57,5.57,0,0,0,.69-3.21c-.1-.63.5-1.37.8-2.06,0-.11.21-.18.23-.28.41-1.61.79-3.22,1.19-4.83a3.62,3.62,0,0,1,.38-1,6.89,6.89,0,0,0,1.5-4.29c0-.25.23-.53.4-.77s.33-.17.37-.29c.41-1.25.8-2.51,1.19-3.76,0-.08,0-.21,0-.24,1.39-1.09,1.24-2.91,2-4.29a16.41,16.41,0,0,0,.87-2.59c.21-.55.3-1.26,1.25-1.1.13,0,.48-.93.62-1.45a22,22,0,0,1,.46-2.34c.48-1.28,1.11-2.5,1.68-3.75a4.91,4.91,0,0,1,.28-.79,28.34,28.34,0,0,0,2.85-4.24,14.6,14.6,0,0,1,1.34-2.46c1.39-2,2.73-4,4.09-6,.14-.2.4-.37.42-.57.2-1.62.43-2,1.79-2.56l-.39-.45a7.17,7.17,0,0,0,.75-1.07,12.67,12.67,0,0,1,2.86-4.47c.35-.33.4-1,.63-1.44,1-2,1.9-4,2.94-5.91a4.44,4.44,0,0,0,.7-2.28c0-2.15.61-4.29,2.66-5.36a3.68,3.68,0,0,1,3.89.3,7.7,7.7,0,0,1,3.14,3.13,8.61,8.61,0,0,0,.57,1.23,9.36,9.36,0,0,0,1.06,1.09c-.42,1.28-.91,2.9-1.51,4.48a2,2,0,0,1-1,.94,1.4,1.4,0,0,0-.94,1.88c.23.78.19,1.35-.75,1.67-.27.1-.4.71-.54,1.1a29.22,29.22,0,0,1-1.15,3.26c-.62,1.25-1.46,2.38-2.18,3.58a12.61,12.61,0,0,0-.63,1.34,4.49,4.49,0,0,1-.47,1.12c-.84,1-1.75,1.94-2.6,2.92a.82.82,0,0,0-.2.64c.25,1.06-.31,1.43-.85,1.48-.48,1-.85,1.79-1.32,2.79.93-.24,1.75-.51,2.58-.64,2-.32,4-.6,6-.84,3.86-.47,7.72-.93,11.59-1.33,2.37-.24,4.77-.27,7.13-.57a6.48,6.48,0,0,0,3-1.15,2.51,2.51,0,0,0,.89-2.09c-.38-1.45.67-2.28,1.18-3.2a16.7,16.7,0,0,0,1.81-4.66,4,4,0,0,1,.55-1c1-1.67,1.91-3.35,2.91-5,.43-.71,1-1.37,1.46-2.05.06-.09.22-.2.21-.23-1-1.84.95-1.91,1.63-2.14a14.32,14.32,0,0,1,4.4-.54c.32,0,.72.72,1,1.17.52.93,1,1.91,1.47,2.86.08.15.34.24.53.3,1.55.54,1.59.63.89,2.28l.83.09a2.44,2.44,0,0,0,1.79,2.94c-1.51,1.25-1,5.71.21,7-.23.79-.49,1.53-.66,2.28-.34,1.51.19,1.86,1.74,1.74a45.52,45.52,0,0,1,5.22.1l.49,0,5.62-.29c1.6-.08,3.19-.24,4.79-.25,2.58,0,5.17-.58,7.75.1a2.05,2.05,0,0,0,.81-.06,10.71,10.71,0,0,1,1.65-.33c1.74,0,3.49,0,5.24.08,1.29,0,2.59.17,3.88.15,1.71,0,3.42-.17,5.13-.22a5.33,5.33,0,0,1,1.06.27,4,4,0,0,0,1.19.12,27.23,27.23,0,0,1,3.43-.49c1.76,0,3.52.35,5.29.41,2.72.08,5.44,0,8.17.07,2.36.06,4.71.28,7.07.4.73,0,1.47-.14,2.18,0a19.8,19.8,0,0,1,2.6.79c.62-.49,1.59-.31,2.77-.05,1.67.36,3.47.09,5.2.27,2.15.22,4.28.58,6.4,1,.72.14,1.39.46,1.3,1.51,0,.46.54.95.6,1.46.16,1.45.22,2.91.27,4.37,0,.43-.35,1-.17,1.26.86,1.14-.26,1.88-.73,2.13a26.18,26.18,0,0,1-5.14,2c-.58.16-1.37-.42-2.21-.71l-.49.47a3.37,3.37,0,0,0-.12-.38,44.59,44.59,0,0,1-7,1.18c-1.87,0-3.59.75-5.43.71-.89,0-1.77-.09-2.65-.17-.24,0-.5-.23-.71-.18-1.62.37-3.24.78-4.85,1.17-.22.05-.55.15-.67,0-.81-.73-1.7-.4-2.58-.26-2.11.36-4.21.75-6.33,1.05-.35,0-.75-.23-1.13-.19a12.88,12.88,0,0,0-2.29-.27,22.35,22.35,0,0,0-3.14.52,14.16,14.16,0,0,0-1.63.51l-3.92-4.75c.27-.17.71-.3.86-.58a2.61,2.61,0,0,0,.43-1.64c-.06-.3-.86-.43-1.32-.64a2,2,0,0,0-1-.32c-1.25.12-2.5.26-3.75.37a30.07,30.07,0,0,1-7.64-.14,15.37,15.37,0,0,0-2.67.23c-2,0-3.94-.08-5.91,0-2.47.13-4.94.47-7.41.63-1.23.08-2.48,0-3.71-.05a15,15,0,0,0-1.77,0,50.64,50.64,0,0,1-7.31.76c-1.89-.06-3.7.32-5.56.33-1.6,0-3.2,0-4.79.07-.94,0-1.19.61-1.32,1.47-.22,1.43-.65,2.82-.92,4.25a23.85,23.85,0,0,0-.27,2.68c-.09,1.08-.21,2.18-.2,3.26,0,.92.33,1.84.27,2.74a9.64,9.64,0,0,0,.05,4c.17.52-.27,1.28.26,1.89,0,.06-.25.39-.37.6-.2.38-.39.77-.58,1.15l.3.21-.41.2a14.49,14.49,0,0,1,.52,1.67,13.78,13.78,0,0,1-.3,5c-.28,1.6.2,3.32.31,5a9.7,9.7,0,0,1-.11,1.42l1.36.7-1.49.89.39.12c.09,1.58.16,3.15.29,4.73.08,1,.24,1.92.36,2.88,0,.08,0,.2,0,.24-.65.71-.17,1.48-.14,2.23s-.36,1.71.34,2.68c.48.67.21,1.91.24,2.9,0,1.26,0,2.51.05,3.76.07,1.67-.25,3.57.45,4.94s-.13,2.92.83,4.34c.56.82,0,2.41-.06,3.66a1.15,1.15,0,0,0,.11.71c.74.77.38,1.71.5,2.58a22.86,22.86,0,0,0,.57,2.4,1.45,1.45,0,0,0,0,2c.2.25-.2.92-.19,1.39,0,1.28-.53,2.62.55,3.81.24.27-.09,1.05-.19,1.92,1.07-.17,2-.63,2.78-.37,1.47.53,2.9,0,4.34.21a11.47,11.47,0,0,0,1.89-.27,65,65,0,0,0,7-.32,36.73,36.73,0,0,1,8.45.06,15.71,15.71,0,0,0,1.83-.33c2.94-.17,5.89-.28,8.84-.42,3.71-.18,7.41-.37,11.28-.67-1.88-.68-.77-2.29-1.24-3.38,0-.12.29-.5.52-.62a6.87,6.87,0,0,1,5.49-.33,16.53,16.53,0,0,0,3.09,1.14,33.71,33.71,0,0,0,4.13-.13,2.79,2.79,0,0,1,1.22.4c1.29.63,2.64.34,4,.38,2.08.06,4.15.41,6.23.55,1.19.08,2.4,0,3.6,0a12.62,12.62,0,0,1,5.77.67,6,6,0,0,0,2.45.16,1.89,1.89,0,0,1,2.06,1.72A7.06,7.06,0,0,0,697,323c.2.41.37.84.54,1.27.08.17.12.36.21.52.31.51.64,1,1,1.51l-.59.06c-.29.83-.63,1.65-.84,2.5a4.42,4.42,0,0,1-3.87,3.07c-2.33.39-4.53-.57-6.83-.31a23.36,23.36,0,0,1-5.15-.05,26.66,26.66,0,0,0-5.24.39,1.67,1.67,0,0,1-.74,0,10.9,10.9,0,0,0-6.59.1,2,2,0,0,1-.71.15,47,47,0,0,0-5.52-.6c-3.25,0-6.5.36-9.76.48-2,.08-4,0-6,0a11.67,11.67,0,0,0-3,.18c-1.85.51-3.69-.39-5.62.37-1.53.61-3.42.27-5.14.38-1.48.09-3,.24-4.44.31-2.91.14-5.83.22-8.74.36-1.55.07-3.1.19-4.64.35-1.25.12-2.49.31-3.73.52-.65.11-1.5.08-1.27,1.2,0,.21-.21.67-.36.68-1.3.15-1,1.3-1.23,2a23,23,0,0,0-.59,2.86,4.44,4.44,0,0,0-2.33,2.69c-.16.41-.79.63-1.2.94-.16.12-.39.24-.45.41-.29.94-.32,2-1.55,2.38-.27.08-.15,1.06-.42,1.48-.44.67-1.11,1.17-1.6,1.81a5.6,5.6,0,0,0-.51,1.28l-1.63.42,0,.48,3.3.2,2.45.11c.72,0,1.44,0,2.16.07,2,.15,4,.42,6,.48,3.08.09,6.18,0,9.26.07,2.27.06,4.53.28,6.8.36a11.72,11.72,0,0,0,2-.29l-1.45-2.1-.86.29a15.32,15.32,0,0,1,0-3c.41-2,1.84-2.94,3.78-3.21.07.81,1.76,2.42,2.8,2.64a20.72,20.72,0,0,1,5.49,1.82,11.61,11.61,0,0,0,2.79.49,26.63,26.63,0,0,1,3.52,1,2,2,0,0,0,2,0,4.16,4.16,0,0,1,2.21-.17c1.4.13,2.79.33,4.16.59,1.55.28,3.07.68,4.61,1s3.4.54,5.09.87a19.15,19.15,0,0,1,2.06.69,2.53,2.53,0,0,0,.72.12l3.21.1-.56,1,2.26,4.48-.87-.28c.35,1.06.7,2.15,1.1,3.39l-.48-.24-1.48,1c-.13.08-.32.12-.42.24-1.44,1.74-2.44,2.05-4.57,1.67a18.58,18.58,0,0,0-5.14-.61c-3.69.41-7.25-.74-10.92-.5a51.7,51.7,0,0,1-6.46-.2c-3.39-.21-6.78-.55-10.17-.71-2.8-.14-5.61-.06-8.41-.15-2.5-.08-5-.39-7.48-.36-1.87,0-3.69-.14-5.54-.29-3-.25-6.12.05-9.18,0-2.15,0-4.31-.31-6.46-.36-1.83-.05-3.66.1-5.48.14-.58,0-1.16,0-1.74,0-1.62,0-3.23.11-4.85.1a16.08,16.08,0,0,0-1.91-.24,10.9,10.9,0,0,0-2.69.71c-1.85.78-3.63,1.73-5.5,2.47a6.37,6.37,0,0,1-2.1,0c-.21.82-.21.82-1.64.5-1.06.5-1.77.89-2.52,1.17q-3.42,1.26-6.88,2.42c-.4.13-.91-.11-1.33,0-1.2.28-2.38.66-3.58.95a20.83,20.83,0,0,0-3.91.92c-2,.94-4.23.54-6.27,1.22a14.7,14.7,0,0,1-2,.2c-.88.16-1.75.44-2.63.59-1.07.18-2.15.31-3.24.43-.56.06-1.15,0-1.71.1-2.08.36-4.15.81-6.24,1.11a14.13,14.13,0,0,1-2.64-.11l0,.66c-4.16.77-8.46-.17-12.61,1a3.21,3.21,0,0,0-1-.16c-.92.17-1.82.43-2.74.65-.08,0-.2.06-.24,0-1.18-1-2.25.11-3.37.12-2.05,0-4.11-.3-6.18-.4-.75,0-1.51.15-2.27.16-1.17,0-2.34,0-3.51,0a7.69,7.69,0,0,0-1.59.12,31.55,31.55,0,0,1-3.12.77,12.27,12.27,0,0,1-2.54-.24l-.06.3-.69-.8-.05.39-3.64.13c-1.86.06-3.72.18-5.58.16-1.12,0-2.23-.28-3.35-.39-.75-.07-1.65-.35-2.21,0-1.36.74-2.58-.36-4,0s-2.77-.08-4.17-.16c0,0-.08-.05-.11,0-2.59.67-5.26-.13-7.9.52a8.86,8.86,0,0,1-3.14,0,8.54,8.54,0,0,0-3.76-.14c-1.59.44-3.43.08-5.16,0-2.5-.14-5-.43-7.48-.52-1.68-.05-3.38.22-5.07.19s-3.09-.31-4.65-.39c-2.78-.15-5.57-.22-8.35-.36-.86,0-1.71-.21-2.56-.32-2.16-.27-4.31-.61-6.47-.79-1.33-.11-2.69.14-4,0-2.27-.2-4.52-.66-6.79-.81-3.27-.21-6.52-1-9.84-.37a3.11,3.11,0,0,1-1.66-.4c-1.63-.72-3.29-.24-4.95-.3s-3.4-.56-5.12-.77-3.31-.25-5-.4c-.36,0-.7-.24-1.07-.32-1.49-.33-3-.74-4.5-.95-1.28-.17-2.59,0-3.89-.16-1.81-.16-3.63-.41-5.44-.64a1.28,1.28,0,0,1-.79-.27,2.53,2.53,0,0,0-2.37-.71.49.49,0,0,1-.41-.22c-.37-1.47-1.92-2.54-1.42-4.31a2.93,2.93,0,0,0-.18-1.21c-.37-1.92,1.11-3.81,2.89-4.49,2.2-.84,4.5-.95,6.74-1.38a45,45,0,0,1,4.66-.34c1.4-.1,2.78-.27,4.18-.36,2.53-.16,5.07-.28,7.61-.42.84-.05,1.67-.13,2.51-.15,1.58,0,3.17,0,4.75-.06,1.09-.06,2.16-.34,3.25-.42a14.38,14.38,0,0,1,2.06.15,2,2,0,0,0,.74,0c1.9-.69,3.91-.6,5.88-.84,1.32-.17,2.67-.11,4-.17,1.64-.08,3.28-.2,4.92-.28.28,0,.57.05.86,0,.78-.05,1.57-.13,2.36-.2a14.34,14.34,0,0,1,2.44-.15,1.91,1.91,0,0,0,1.66-.24,3.5,3.5,0,0,1,1.81-.23,52.1,52.1,0,0,0,6.62-.1,32.67,32.67,0,0,1,6.18.08,9.82,9.82,0,0,0,1.87-.37c1.07-.16,2.25-.61,3.21-.33,1.72.49,3.24-.46,4.88-.2,2.34.37,4.65-.28,7-.41s4.68-.14,7-.16c1.16,0,2.33.13,3.49.08a15.8,15.8,0,0,0,3.71-.4c1.68-.49,3.26-.09,4.9,0a10,10,0,0,0,2-.21,3.31,3.31,0,0,1,1.21-.17,3.8,3.8,0,0,0,2.37-.24,2.63,2.63,0,0,1,2.21.12c.76.4,1.93,0,2.92,0,.66,0,1.32.17,2,.17s1.48-.1,2.23-.14c2.59-.14,5.17-.28,7.76-.39,1.12-.05,2.25-.05,3.37-.05,1.88,0,3.77.1,5.65,0,1.41-.05,2.81-.39,4.23-.42,1.73-.05,3.48.08,5.22.13a1.16,1.16,0,0,0,.49,0c1.65-.59,3.27.08,4.91,0,.77,0,1.54-.2,2.32-.2,2.26,0,4.52.12,6.78.08,1.33,0,2.65-.3,4-.46a4.58,4.58,0,0,1,.74,0c2.24.14,4.48.33,6.73.43a39.8,39.8,0,0,0,4.23,0c.73,0,1.45-.44,2.17-.47s1.35.3,2,.35c2,.12,3.91.26,5.86.24,1.38,0,2.75-.28,4.12-.41a3.08,3.08,0,0,1,.84.11,3.69,3.69,0,0,0,.84.21c2.07-.06,4.14-.21,6.21-.23.85,0,1.69.32,2.55.37,1.64.1,3.3.1,5,.15l10.24.29c1.48.05,3,.16,4.44.17a4.39,4.39,0,0,0,3.75-1.71,1.11,1.11,0,0,1,.72-.36,5.23,5.23,0,0,0,3-1.55c.48-.41,1-1.13,1.69-.5a10.52,10.52,0,0,1,.89-1.07c1.72-1.54,3.47-3,5.16-4.61a5.1,5.1,0,0,0,.87-1.47c.44-.84,1-1.49,2.08-1.25-.54-1.15-.28-1.6.82-2,.46-.92.78-1.6,1.2-2.44a4.88,4.88,0,0,0-1.39-.28c-1.39.08-2.77.3-4.15.41-.6.05-1.2-.09-1.8-.07-1.12.05-2.25.14-3.37.24s-2.3.28-3.46.38c-3.07.26-6.14.53-9.21.74-1.27.09-2.54,0-3.8.05s-2.34.51-3.52-.13c-.18-.1-.68.29-1,.51s-.35.56-.53.57c-1.31.07-2.62.08-3.93.1-1.7,0-3.35-.52-5.13.29-1.2.56-2.79.28-4.2.38s-3,.2-4.52.36c-1.32.13-2.63.34-3.94.52-.43.06-.88.11-1.31.21a6.36,6.36,0,0,1-3.69-.05c-.66-.23-1.53.18-2.32.25-2,.2-4,.35-6.06.56-.69.07-1.36.31-2,.38-1.09.11-2.06.59-3.32.15-1-.36-2.38.26-3.59.39a8.07,8.07,0,0,1-1.18-.14c-.39,0-.88-.09-1.14.1a2.42,2.42,0,0,1-2.94-.11,3.39,3.39,0,0,0-.66-.33c-.52-.16-1.44-.19-1.5-.43-.42-1.72-2.52-2.84-1.94-4.82.63-2.15.57-4.72,3-6a4.73,4.73,0,0,1,3-.25c1.29.16,2.68,1,4,0,.1-.08.3,0,.46,0,1.71.12,3.43.26,5.15.35a1.43,1.43,0,0,0,.79-.3,3.4,3.4,0,0,1,2.21-.31,30.94,30.94,0,0,0,5.59-.35,25,25,0,0,0,2.49-.7c.23-.05.54.32.8.31,1.52-.07,3-.19,4.55-.31l6.83-.5c2.75-.2,5.5-.38,8.24-.62,1.29-.11,2.58.1,3.87-.55.68-.34,1.75.15,2.64.11a15.46,15.46,0,0,0,2.3-.42l0-.39.34.41L603,324c.24-1.71.47-3.34.72-5.09-1.09-.76,0-1.71,0-2.64a16.8,16.8,0,0,0,0-1.74c-.11-1.23-.28-2.44-.38-3.66-.09-1,.66-2-.41-2.89-.16-.13.13-.82.28-1.57-.15-.26-.84-.75-.13-1.51,0-.06,0-.3-.11-.44a7.91,7.91,0,0,1-.89-5.45.48.48,0,0,0-.08-.35,3.46,3.46,0,0,1-.23-4c.29-.48-.36-1.42-.87-1.43v-5.38l.36.13.4-.42-1-.9-.53.24c.21-.87.42-1.74.62-2.61l.33,0-.91-1.25.9-.2c0-.13,0-.23,0-.29a2.23,2.23,0,0,1-.61-2.39.53.53,0,0,0,0-.37c-1-1.9-.33-4-.68-6-.25-1.45.28-3,.46-4.56a1.3,1.3,0,0,0,0-.48,17.43,17.43,0,0,1-.87-3.54c0-.92-.58-2.05.47-2.88.15-.13.08-.71-.06-1a4.41,4.41,0,0,1-.08-3.14,24.5,24.5,0,0,0,.18-3c.11-.9.37-1.79.59-2.8-.86-.43-.86-1.06-.39-2a6.13,6.13,0,0,0,.26-2.41c.06-2.07.05-4.14.12-6.21a13.59,13.59,0,0,1,.33-1.86c-1.44.12-3,.23-4.59.41-.26,0-.49.38-.84.66a8,8,0,0,1-1.2-.42,4.17,4.17,0,0,0-4.77.62,2.43,2.43,0,0,1-1.93.32,11.37,11.37,0,0,0-3.68.48c-1.93.47-3.81,1.12-5.73,1.63a6.4,6.4,0,0,1-2.28.3c-1-.1-1.13.38-1.14,1-1.63.1-3.28.57-4.7.18s-2.5-1.63-3.77-2.54c-1.15,2.15-2.41,4.27-3.44,6.5-.84,1.81-1.33,3.77-2.1,5.61-1,2.46-2.25,4.83-3.22,7.3a19.19,19.19,0,0,0-.67,3.61c-.4.28-1.46.38-.93,1.53a.25.25,0,0,1-.06.23c-1.56,1.63-1,3.86-1.64,5.74-.5,1.39-1,2.77-1.44,4.18-.58,2-1.05,4.12-1.58,6.17a4.82,4.82,0,0,1-.71,1.55c0,.62.6,1.29-.44,1.82-.27.14-.24.87-.34,1.3,2.36.85,4.09-.47,5.93-1.21a7.44,7.44,0,0,0,2.23-1.38,1.83,1.83,0,0,0,.32-1.54,2.19,2.19,0,0,1,.41-2.45s.09-.06.08-.08c-.41-1.9,1.29-2.43,2.28-3.33a3.59,3.59,0,0,1,4.06-1,1.72,1.72,0,0,0,.85.18c2.27-.39,4,.86,5.91,1.76a22.33,22.33,0,0,0,5.24,1.57c1.11.22,1.57.43,1.42,1.72a8.07,8.07,0,0,0,1.42,4.93c1,1.81,1.11,3.83,1.29,5.82,0,.21-.51.44-.56.7-.16.87-.2,1.77-.35,2.65a9.9,9.9,0,0,1-.45,1.7C579.38,299.19,579,300.16,578.8,300.72ZM444.7,365.15l.5-.58a38.61,38.61,0,0,0-3.88,0c-3.2.34-6.4.79-9.6,1.18a6.39,6.39,0,0,1-1.07,0c-1-.06-2.25-.51-3-.1-1.18.62-2.2-.2-3.3.16a11.62,11.62,0,0,1-2.78.08c-1.62.12-3.25.28-4.87.47a5.74,5.74,0,0,0-1.17.39c.39.23.76.62,1.16.64,1,.05,2.05-.12,3.08-.08,2.45.09,4.89.24,7.34.37a8.73,8.73,0,0,1,2.3.17,7.77,7.77,0,0,0,3.77.1,3.37,3.37,0,0,1,.95.05c1.32.2,2.62.52,3.95.59,2,.1,4,.05,6,0a16.58,16.58,0,0,0,1.8-.26c.17.08.57.46.94.44,2.4-.12,4.79-.33,7.19-.51a2.05,2.05,0,0,1,.49-.06c1.21.18,2.41.46,3.63.54,1.69.12,3.4.14,5.1.13,1.91,0,3.83-.13,5.75-.15s3.84,0,5.76,0c1.22,0,2.51-.4,3.63-.1a3.94,3.94,0,0,0,2.47,0c.13,0,.32.07.48.1a11.46,11.46,0,0,0,1.43.21,5.18,5.18,0,0,0,1.3-.09c1.28-.24,2.77.45,3.81-.88.33.2.64.55,1,.55,1.49,0,3-.08,4.45-.08a14.16,14.16,0,0,1,1.93.28,5.86,5.86,0,0,1,1.12-.29c1.29-.13,2.58-.21,3.88-.28a3.32,3.32,0,0,1,1.61.08c.88.46,1,.48,1.36-.42a10.93,10.93,0,0,0,1.56.13c1.35-.07,2.7-.22,4.05-.31,1.09-.07,2.17-.08,3.26-.16.39,0,.86-.39,1.15-.27,2,.87,3.93-.31,5.92-.29,2.17,0,4.35-.62,6.53-.83,1.68-.16,3.37-.08,5-.16a24.3,24.3,0,0,0,3.08-.27c1.57-.26,3.11-.68,4.68-.93,2-.34,4.08-.56,6.12-.88.54-.08,1.09-.56,1.58-.48,1.47.26,2.73-.37,4.06-.72.24-.06.42-.37.63-.56a4.11,4.11,0,0,1-3.27-.49l.46.57c-3.06.22-3.06.22-3.74-.36-1,0-1.69,0-2.39,0-1.36.08-2.72.3-4.08.3a59.48,59.48,0,0,0-6.11-.11,58.21,58.21,0,0,1-7.7,0c-2.13-.07-4.26.48-6.41.09a.77.77,0,0,0-.37,0c-1.39.47-2.76.76-4.12-.13-.14-.1-.51.16-.77.27s-.48.35-.61.29c-1.68-.78-3.61.41-5.24-.66-.1-.06-.3,0-.46.07a30.36,30.36,0,0,1-3.51.62c-1.55.11-3.1,0-4.65.06-.68,0-1.36.26-2,.24-2.11,0-4.21-.2-6.31-.19-1.26,0-2.52.32-3.78.35a18.11,18.11,0,0,1-4.66-.15c-3.41-.8-6.7.67-10.06.26a2.88,2.88,0,0,0-.73.15l-2.06.3-3.27.48c-.36-1-1.32-.72-2.15-.6-1.43.2-2.83.57-4.25.77a19.24,19.24,0,0,1-3.47.19c-1.44-.07-2.87-.43-4.3-.45-1,0-2,.49-3,.47-.84,0-1.35.07-1.52,1.41Zm87.1-56.6.38.19c.3-.33.73-.61.89-1,.67-1.58,1.29-3.19,1.86-4.81.45-1.27.17-1.72-1.25-1.68a9.45,9.45,0,0,0-3,.7c-.45.17-1.06.73-1.07,1.12,0,.77.17,2.05.62,2.22,1.06.4,1.12,1.12,1.26,1.95C531.58,307.69,531.7,308.12,531.8,308.55Zm86.47-83.29-2.31-.69,1.28-1.62a2.29,2.29,0,0,0-2.53,1.77,7,7,0,0,0-.07,1.59,8.7,8.7,0,0,0,2.11-.06A5.49,5.49,0,0,0,618.27,225.26Zm-207,141.1c.55.77,1.78.86,2.83,0ZM650.67,229.42l-.53,0c0,.67-.11,1.34-.16,2l.6,0Z"/><path d="M149.39,347.41a2.07,2.07,0,0,1-.09-.38c-1.84.27-3.56.57-5.29.76-2.17.23-4.35.36-6.53.58-.49.06-1,.34-1.47.43a36.28,36.28,0,0,1-10.09.07,2.33,2.33,0,0,0-.74.07,23,23,0,0,1-7.9.31,23.17,23.17,0,0,0-5.62-.32c-1.82.24-2.92-.85-4.3-1.46a18.3,18.3,0,0,1-1.61-.89l-3.43-.6a3.64,3.64,0,0,0-2.1-2.45c-.75-.39-1.11-1.54-1.66-2.34-.44-.62-.91-1.22-1.36-1.82l-.36.16.49-.95c-.7-.51-1.17-1-.76-1.95a1.28,1.28,0,0,0-.24-1.11c-.55-.55-.8-1,.18-1.6l-1.09-.76c2-4.86,4.49-9,9.4-11.27l-.33-.49a5.73,5.73,0,0,0,1.19-.35c.41-.24,1-.56,1.06-.93.25-1.18,1.13-1.42,2-1.51s1.92-.19,2.23-1.39c0-.18.25-.47.37-.47,1.71.11,2.37-1.48,3.58-2.18.73-.42,1.58-.63,2.32-1,2.29-1.3,4.59-2.61,6.82-4a7,7,0,0,0,1.44-1.56c-.31-1-1-2-.82-2.82a3,3,0,0,0-.46-2.08c.45-.52.9-1,1.43-1.67l.85.21a1.65,1.65,0,0,0-.17-.37c-.87-1.14-.52-1.53.09-2.66.76-1.43,2.24-1.56,3.24-2.46.33-.3,1-.22,1.23-.26a4,4,0,0,1,.41-1.16,10.06,10.06,0,0,1,1.93-2.12c1.88-1.31,3.87-2.46,5.79-3.7.93-.6,1.79-1.3,2.73-1.87s1.84-.91,2.71-1.43c1.16-.7,2.24-1.52,3.4-2.19.67-.39,1.46-.55,2.17-.88,1-.44,1.9-1,2.86-1.41s1.8-.79,2.7-1.19c.35-.16.67-.36,1-.52.9-.42,1.81-1.15,2.71-1.15s1.12-1.23,2.09-1.07a8.78,8.78,0,0,0,1.89-.16,4.27,4.27,0,0,1,2.62-1.76,26.57,26.57,0,0,0,3.12-1.45,12.93,12.93,0,0,1,1.9-.51c.15,0,.35-.09.42-.2.83-1.48,2.25-1.47,3.67-1.55.24,0,.46-.43.69-.65s.22-.24.34-.24c1.62-.06,2.74-1.59,4.13-1.71,1.64-.14,2.8-1.38,4.41-1.35a1.49,1.49,0,0,0,1-.45,5.6,5.6,0,0,1,2.86-1.33c1.72-.52,3.38-1.24,5.06-1.86a52.4,52.4,0,0,1,7.21-2.54,15.91,15.91,0,0,0,3.25-1.32c1.59-.68,3.29-1.08,5-1.61a16.64,16.64,0,0,1,2.34-.73,19.4,19.4,0,0,1,2.64,0c.05-.16.07-.62.26-.7a33.06,33.06,0,0,1,3.08-1.25c2.56-.9,5.14-1.77,7.72-2.64a1.16,1.16,0,0,1,.61-.05c1.28.37,2.28-.29,3.36-.8a6.06,6.06,0,0,1,2.69-.62c2,.08,3.47-1,5.09-1.79a6.49,6.49,0,0,1,1.45-.48c2-.54,4.07-1.06,6.13-1.59l.15.32a15.75,15.75,0,0,0,2.1-.78,1.29,1.29,0,0,1,1.93.53l-1.29,1.73a9.16,9.16,0,0,0,1.19.15c.56,0,1.41-.28,1.62,0a4,4,0,0,1,.77,2.05c.12.83-.23,1.36-1.18,1.74-1.48.6-3.09.43-4.58,1.29s-3.23.79-4.85,1.22c-.77.21-1.47.7-2.24.91-2.19.63-4.42,1.1-6.59,1.77-1.77.55-3.46,1.38-5.23,1.94-1.54.49-3.15.78-4.91,1.21l.34-1.21H221c.07,1.83-1.48,1.88-2.61,2.24-2.13.67-4.31,1.18-6.47,1.77a.92.92,0,0,0-.33.16c-2.36,1.92-5.3,2.19-8.08,2.93-.57.16-1,.83-1.31,1.4l-4.11,1.29c-1.37.42-2.75.82-4.11,1.3a6.9,6.9,0,0,0-1.2.79,6.53,6.53,0,0,1-.85.39c-1.46.58-3.1.59-4.37,1.79-.67.63-1.8.73-2.71,1.12-2.37,1-4.71,2.07-7.09,3.06-.95.4-2,.64-2.93,1-1.59.62-3.16,1.33-4.77,1.93a22.53,22.53,0,0,1-2.57.61l.27.35c-1.72,1-3.43,2.06-5.23,3-1.63.82-3.41,1.34-5,2.2-2.94,1.57-5.81,3.29-8.68,5-1,.62-2,1.43-3.07,2-.62.33-1.5.21-2.11.56s-1,1.08-1.55,1.57c-1.59,1.44-3.12,2.95-4.84,4.22a10,10,0,0,0-2.43,2.6c.61.26.77,1.25,1.84.79a7,7,0,0,0,1.92-.82,8.81,8.81,0,0,1,2.43-1c1.73-.64,3.47-1.28,5.21-1.88,1.51-.52,3-1,4.55-1.5,1.9-.64,3.76-1.39,5.68-2,1.4-.41,2.87-.56,4.29-.93,1-.26,2-.74,3-1,1.83-.53,3.66-1,5.5-1.48,1.55-.39,3.11-.7,4.65-1.11,1.1-.3,2.16-.75,3.25-1.07,1.79-.52,3.58-1.06,5.39-1.45s3.78-.59,5.65-.95c.82-.16,1.58-.6,2.39-.79,1.55-.37,3.13-.67,4.7-1,.52-.1,1.08,0,1.6-.15,2-.46,3.92-1,5.89-1.42.35-.07.77.19,1.16.3l1.89-1.23-.16,1.19c1.39-1.59,3.19-1.61,4.94-1.85s3.48-.72,5.23-1c1.05-.19,2.12-.3,3.18-.39.18,0,.39.26.45.31.53-.33,1-.83,1.53-.9,1.58-.22,3.2-.25,4.8-.39a19.53,19.53,0,0,0,2.25-.37c.6-.13,1.22-.54,1.79-.47a9.31,9.31,0,0,0,3.78-.58,14.71,14.71,0,0,1,2-.15c1.49-.15,3-.3,4.45-.5,1.74-.23,3.48-.5,5.22-.77.17,0,.35-.18.47-.14,1.91.7,3.59-.68,5.49-.6a39.06,39.06,0,0,0,6.42-.66c1.53-.19,3.05-.52,4.58-.61s2.86.08,4.29.08c.64,0,1.29-.25,1.93-.23.88,0,1.76.32,2.63.3s1.6-.43,2.4-.44c1.87,0,3.75.06,5.62.13.75,0,1.59.34,2.22.1,1.34-.51,2.36.05,3.5.51s2.41.45,3.39,1.06a10.2,10.2,0,0,1,2.34,2.58,15.94,15.94,0,0,1,1.14,2.06c-.23.93-.47,2.23-.9,3.47-.3.86-.69,1.89-2,1.42a1.08,1.08,0,0,0-.6.09c-1.52.47-3,1-4.55,1.41-.78.22-1.59.36-2.38.53-1.59.34-3.19.65-4.77,1s-3.37.87-5,1.3c-.16,0-.32.16-.46.14-2.66-.34-5,.92-7.44,1.52a1.73,1.73,0,0,1-.49.11c-2.19-.14-4.17,1.09-6.25,1.11-2.47,0-4.55,1.31-6.94,1.51s-5,.3-7.24,1.19c-1.65.65-3.25.33-4.83.79a51.48,51.48,0,0,1-5.29.8c-2.22.4-4.4.95-6.61,1.37-1.78.33-3.59.55-5.23.8l-1,1.4-.25-1.53a4,4,0,0,1-.89.71,17.52,17.52,0,0,1-3,1.12c-1.58.33-3.21.45-4.8.72a5.66,5.66,0,0,0-1.21.55,5.46,5.46,0,0,1-1.24.5c-3.46.52-6.93,1-10.38,1.51-1,.16-2,.61-3,.82-4.45.94-8.91,1.85-13.36,2.76-3.24.65-6.47,1.3-9.72,1.91-2.33.43-4.68.8-7,1.2-3.59.61-7.18,1.26-10.78,1.82-1.57.25-3.17.29-4.75.48-.4,0-.77.41-1.17.45a53.13,53.13,0,0,1-6.41.46c-2,0-3.93-.56-5.9-.76a6.14,6.14,0,0,0-1.85.34c-.15,0-.29.19-.44.21-3.09.32-5.47,2.3-8.19,3.48a22,22,0,0,0-5,2.52,28.61,28.61,0,0,1-3.77,2.33c-.58.33-.79,1.28-1.36,1.66-1.19.8-2.52,1.39-3.77,2.11-.49.28-.89.74-1.39,1a3.66,3.66,0,0,1-1.27.32c-1,.13-1.5.95-1.11,1.64l-2,2-.34-.13a2.9,2.9,0,0,1,0,.72,6.5,6.5,0,0,1-.57,1.62,4.91,4.91,0,0,1-1.1.91c1.16.44,3-.53,3.07,1.43a7.46,7.46,0,0,1,1.9.49c1.85,1,3.9.61,5.85.89.84.13,1.78-.46,2.52.4.07.08.32,0,.48,0,2.85,0,5.71.14,8.55,0,3.16-.17,6.3-.62,9.45-.92,1.11-.11,2.24,0,3.34-.18,5-.59,9.93-1.21,14.89-1.83,2-.25,3.93-.52,5.9-.82,3.52-.54,7-1.16,10.55-1.65s7.07-.9,10.6-1.33c1.58-.2,3.16-.35,4.74-.56s3.22-.44,4.83-.72c.88-.15,1.75-.41,2.63-.63a4.65,4.65,0,0,1,.72-.16c1.78-.06,3.56-.09,5.33-.15a1.7,1.7,0,0,0,1-.24c1.38-1.13,3-.8,4.55-.72.42,0,.8.51,1.22.75s.63.3.94.45l.13-.33-.89-.54.18-.84c1.6-.2,3.22-.37,4.84-.6.82-.12,1.62-.43,2.44-.52a5.52,5.52,0,0,1,1.48.31,13.13,13.13,0,0,1,3.62-.93,17.33,17.33,0,0,0,5.5-.67c1.27-.36,2.7-.1,4.06-.23.59-.05,1.15-.48,1.75-.56,1.47-.18,2.95-.23,4.42-.4.85-.09,1.68-.33,2.52-.48s1.44-.21,2.17-.29c.9-.09,1.81-.14,2.72-.23,3.95-.38,7.91-.76,11.86-1.17.92-.09,1.82-.31,2.74-.45,1.71-.27,3.42-.56,5.14-.78.73-.08,1.48.07,2.21,0q2.78-.21,5.55-.55c.22,0,.36-.46.6-.59a9.67,9.67,0,0,1,2.62-1.17c2.17-.32,4.36-.41,6.54-.61,1.19-.11,2.37-.26,3.56-.41,2.69-.35,5.37-.75,8.06-1.05a14.87,14.87,0,0,1,2.29.16c1.35.06,2.7.09,4,.15.62,0,1.24.12,1.86.18.2,0,.51.13.57,0,.57-.75,1.33-.3,2-.43,2.08-.42,3.08,1.31,4.63,1.89.16.06.21.41.32.63.47.85,1,1.69,1.4,2.57a2.3,2.3,0,0,1,0,1c-.27,2.66-1.44,3.5-3.69,3.81a1.45,1.45,0,0,0-.57.12,1.91,1.91,0,0,1-2.33,0,2.5,2.5,0,0,0-1.26-.17c-1.14.06-2.28.18-3.42.27-.4,0-.8.06-1.2.11-.83.1-1.66.21-2.49.3-.16,0-.37-.07-.49,0-1.94,1-4.1-.24-6.17.84-1.27.67-3.13.16-4.72.29-2,.15-4,.45-6,.62-2.29.2-4.6.28-6.89.49s-4.51.54-6.76.74c-3.38.29-6.77.49-10.14.78-.92.08-1.81.4-2.72.56a5.08,5.08,0,0,1-1.84.18,5.6,5.6,0,0,0-4.24,1,1.86,1.86,0,0,1-1.15.16,19.17,19.17,0,0,0-8.07.53,42.31,42.31,0,0,1-5.87.82c-1.4.18-2.8.39-4.2.5-1.67.13-3.35.14-5,.28-.52,0-1,.41-1.52.46-4.59.44-9,2.13-13.68,2.05a22.35,22.35,0,0,0-4,.73c-.75.13-1.53.18-2.29.26a4,4,0,0,0-.49,0c-2.92.47-5.84.94-8.75,1.44-1.33.23-2.63.6-4,.81-1.73.28-3.49.45-5.23.68l-7.46,1c-2.36.32-4.72.59-7.06,1-2.54.4-5.06.92-7.6,1.32C154,346.83,151.69,347.1,149.39,347.41Zm63.12-51.86c.94-.26,1.58-.45,2.22-.61.48-.12,1-.19,1.44-.3,1.24-.3,2.46-.67,3.71-.89s2.47-.18,3.67-.45c3-.67,6-1.6,9.17-1.61a2.31,2.31,0,0,0,.69-.22l3.88-1.31a2.36,2.36,0,0,1,.38,0c1.43-.12,2.85-.26,4.28-.37.47,0,.94.05,1.42,0a2.78,2.78,0,0,0,.67-.18c.89-.27,1.91-1,2.63-.72,1.24.4,1.64-.37,2.33-1a5,5,0,0,0-2.06-.33c-1.11.07-2.21.24-3.31.37-.73.08-1.46.18-2.2.21s-1.71-.05-2.56,0a4.37,4.37,0,0,0-1.35.2,28,28,0,0,1-3.22,1.23c-1.41.31-2.87.33-4.31.5-1,.12-1.94.31-2.91.43-1.29.16-2.59.28-3.89.43-.41.05-.82.13-1.23.21-1.71.31-3.42.71-5.14.91a12.63,12.63,0,0,0-3.63.45,21.76,21.76,0,0,1-4.28.94c-1.46.27-2.94.45-4.41.7-2.25.38-4.49.78-6.73,1.18-.12,0-.22.14-.34.17l-2.54.55c0-.06,0,.19.08.46l-3.64.58c-1.68.25-3.37.46-5,.77a15.38,15.38,0,0,0-2.56.77,4.44,4.44,0,0,0-.94.72l0-.33c-.5,0-1.07-.28-1.5-.12-2,.71-3.94,1.53-5.91,2.3a9.48,9.48,0,0,1-2.11.79c-2,.27-4,.41-6.08.61l.37.66-2.6.76.12.57c1.66-.24,3.31-.48,5-.74s3.39-.51,5.07-.83c2-.4,4-.84,6-1.31,1.61-.38,3.19-.89,4.81-1.21s3.43-.48,5.13-.8c4.4-.84,8.78-1.73,13.18-2.59.55-.11,1.14-.05,1.69-.19,1.89-.46,3.76-1,5.66-1.45A2,2,0,0,1,212.51,295.55Zm44.63-11.69.82-2.06c.22-.2,0-.52-.27-.61s-.53.25-.63.47c-.33.76-.58,1.55-.87,2.35ZM172.9,278a2.88,2.88,0,0,0,1-2.47c0-.2-.42-.39-.65-.59l-.35.16Zm-26.19,37.26.16.46c.32-.06.8,0,.92-.21a4.46,4.46,0,0,0,.37-1.3ZM249,290.09h-1.6l.25,1.43.37.09Zm2.9,1.82.12,2.16,1.21-.84Z"/><path d="M482.42,231.79a2.76,2.76,0,0,1,3.2.86c.24.3.81.3,1.16.54a8.13,8.13,0,0,1,2.19,1.65c1.31,1.85,3.61,2.19,5.16,3.62a24.49,24.49,0,0,1,3.31,3.37,66.61,66.61,0,0,1,3.71,5.91c.22.39,0,1,.05,1.55a11.78,11.78,0,0,1-1,6.2c-.51,1-.89,2.7-2.55,3-.11,0-.31.11-.31.17,0,1.74-1.6,1.32-2.5,1.82s-2,1-3.12,1.57l-.6-1.16-.35,0a7.85,7.85,0,0,0,0,1c.1.77,0,1.35-1,1.26-.12,0-.31,0-.35,0-1.12,1.76-3.25,1.19-4.77,2-.16.1-.45,0-.68-.06a2.09,2.09,0,0,0-2,.42c-.67.59-1.89.54-2.87.79A6.6,6.6,0,0,0,477,267a6.49,6.49,0,0,1-3.81,1.12,28.7,28.7,0,0,0-3.78.47c-3,.48-5.95,1-8.92,1.49-.56.1-1.11.31-1.67.38a7.36,7.36,0,0,1-1.24-.06l0-.33-.67.82c1.2.28,1.13,2.88,3,1.48a6.9,6.9,0,0,0,1.38,1,24.19,24.19,0,0,0,3.3,1.12,10.5,10.5,0,0,0,3.49.6,3.7,3.7,0,0,1,3.94,2.28,1.34,1.34,0,0,1-.21,1.28,24.94,24.94,0,0,1-5.11,3c-1.65.63-3.58,1-4.87,2.56-.51.6-1.32,1.33-2.22.32-.07-.09-.33-.09-.46,0-1.73.71-3.21-.05-4.72-.75a5.73,5.73,0,0,0-.94-.3c-.9-.27-1.58-.55-1.76-1.75a31.94,31.94,0,0,0-1.39-4.7,1.39,1.39,0,0,1,.42-1.82,1.57,1.57,0,0,0,.41-.59c.38-.83.73-1.66,1.18-2.69a3.41,3.41,0,0,0-1.33-.27c-2.2.38-4.37.87-6.56,1.31s-4.1.92-6.17,1.18c-3.17.41-6.37.61-9.55,1-1.13.13-2.21.59-3.33.8s-2.08.24-3.12.33a17.68,17.68,0,0,0-6.72,2.16c-1.16.61-2.2,1.48-3.84,1.4s-3.49.81-5.25,1.22a5.05,5.05,0,0,1-1.34,0c-.11,0-.29-.09-.33,0-1.42,1.47-3.43.8-5.11,1.24-1.22.33-2.63.08-4,.73-.39.19-1.53-.55-1.95-1.13-1.19-1.62-2.06-3.48-3.28-5.07-.81-1.05-.32-3.86,1-4.76a15.07,15.07,0,0,1,8.24-2.49,42.62,42.62,0,0,0,5.66-1c.17,0,.36-.13.49-.08,1.71.62,3.2-.31,4.79-.59,1.17-.21,2.39-.13,3.58-.26a52.29,52.29,0,0,0,5.46-.74,28.79,28.79,0,0,1,6.34-1,26.82,26.82,0,0,0,3.83-.63c.92-.13,1.88-.07,2.8-.21,1.78-.26,3.53-.65,5.31-.89,2.31-.33,4.64-.51,7-.85,2-.3,4-.76,6.06-1.1,1.42-.23,2.86-.41,4.3-.56a8.55,8.55,0,0,0,3.41-.86,8.38,8.38,0,0,1,2.87-.58c1.9-.25,3.84-.33,5.71-.7,2.1-.41,4.14-1.11,6.23-1.6,1-.25,2.15-.24,3.21-.45a27.69,27.69,0,0,0,3.23-.8c1.48-.46,3-.95,4.39-1.55,1-.41,1.82-1.08,2.77-1.56.29-.14.82.11,1-.07a20,20,0,0,0,3.08-2.94c.84-1.14,0-2.2-.88-2.95-1.4-1.23-2.95-2.29-4.39-3.48s-2.77-2.51-4.27-3.61a12.9,12.9,0,0,0-2.51-.94c-1.48-.64-3-1.3-4.4-2-.4-.2-.65-.69-1.05-1.15a32.46,32.46,0,0,0-3.79-1.23c-3.13-.67-5.9-2.4-9.06-3-1.28-.22-2.56-.48-3.83-.72a2.78,2.78,0,0,1-.73-.17c-1.75-1-3.68-.95-5.61-1a14.94,14.94,0,0,1-3-.53c-.82-.21-1.59-.8-2.44-.09a.28.28,0,0,1-.24.05c-1.54-1-3.3-.35-4.93-.66a19.34,19.34,0,0,0-2.16-.06c-.87-.07-1.73-.19-2.59-.3-.18,0-.42-.25-.5-.19-1.53,1-3.24.3-4.85.49-2,.22-3.95.17-5.91.41-2.33.28-4.62.74-6.93,1.12-.25,0-.52.17-.73.1-2.06-.69-3.8.6-5.67,1a18.91,18.91,0,0,0-2.37,1.13c-.91.32-1.9.41-2.82.71-1.47.49-2.9,1.08-4.36,1.58-.57.19-1.2.21-1.78.37a18.7,18.7,0,0,0-1.9.68,9.4,9.4,0,0,0-1.3.67c-2.5,1.43-5.08,2.75-7.46,4.36s-4.77,3.56-7.08,5.44c-.77.63-1.27,1.6-2,2.29-1.52,1.43-3.11,2.77-4.66,4.16-.24.2-.63.55-.57.71.4,1.18-.44,1.68-1.07,2.41a35.26,35.26,0,0,0-2.25,3.37c-.38.56-.83,1.07-1.17,1.51-.33.76-.61,1.48-1,2.17-.49,1-1,1.9-1.54,2.85-.73,1.36-1.48,2.71-2.19,4.08-.33.65-.57,1.35-.86,2-.12.25-.21.65-.4.72-1.33.42-.94,1.77-1.63,2.52l.2.23c1.41-.32,2.83-.62,4.23-1a2.14,2.14,0,0,1,2.2.66c2.31,2.15,2.71,4.83,2.5,7.75a1,1,0,0,1-.11.48c-1.49,1.86-1.36,4.27-2.11,6.39-.68,1.93-.7,4.1-1.24,6.09a8.48,8.48,0,0,0-.1,3.61c0,.28.07.7-.08.85-1.58,1.58-.95,3.61-.89,5.36.09,2.74-.25,5.53.59,8.25a21.62,21.62,0,0,1,.73,4,7.59,7.59,0,0,1-.32,2,6.77,6.77,0,0,0-.37,2,7.27,7.27,0,0,1-1.91,6.08c-.92,1-1.52,2.36-2.5,3.3a13.54,13.54,0,0,1-3.15,1.92c-.21.11-.6-.14-.91-.22s-.81-.19-1.22-.26c-.11,0-.31.07-.35,0-1.11-1.45-3.47-1-4.35-2.83-.15-.32-.66-.45-.95-.73a19.82,19.82,0,0,1-5.4-8.5,62.32,62.32,0,0,1-1.75-6.74,17.41,17.41,0,0,1-.16-3.54c0-1.05.12-2.09.11-3.13,0-.76-.2-1.51-.21-2.27a4.92,4.92,0,0,1,.29-1.4,26.46,26.46,0,0,0,1-6.92c0-1.17.84-2.3,1.18-3.49.26-.91.32-1.88.5-2.82.11-.61.27-1.22.42-1.82a2.81,2.81,0,0,0,.2-.71c-.11-1.84.75-3.38,1.38-5s.75-3.54,1.34-5.23c1-2.76,2.17-5.44,3.25-8.15.26-.65.39-1.36.68-2,1.61-3.45,3.22-6.9,4.9-10.33a28.08,28.08,0,0,1,1.65-2.48c1.59-2.58,3-5.27,4.79-7.71a75.78,75.78,0,0,1,5.11-5.67c.78-.85,1.43-1.83,2.28-2.59,1.63-1.45,3.35-2.79,5-4.18.44-.36.85-.79,1.32-1.11,1.58-1.05,3.17-2.09,4.78-3.09a30.2,30.2,0,0,1,4.68-2.73c4.46-1.75,9-3.31,13.5-4.91,1.27-.45,2.56-.85,3.87-1.18a35.48,35.48,0,0,1,3.7-.7c2.38-.34,4.79-.58,7.17-.92,1.09-.16,2.14-.5,3.23-.69,1.78-.3,3.58-.56,5.38-.79a3.45,3.45,0,0,1,1.08.16,6.28,6.28,0,0,0,1.33.27c2.19-.08,4.37-.29,6.56-.31,1.21,0,2.41.31,3.62.41a11.72,11.72,0,0,0,1.76-.15,2,2,0,0,1,.83,0,12,12,0,0,0,4.68.82,42.52,42.52,0,0,1,5.89.88c2.17.37,4.22,1.24,6.52,1.2,1.18,0,2.38.85,3.57,1.33.23.09.48.38.64.33,1.8-.54,3.22.7,4.83,1a16.53,16.53,0,0,1,3.15,1.25c.61.26,1.2.59,1.81.86,1.21.52,2.44,1,3.62,1.55.65.3,1.2.81,1.83,1.12a2.87,2.87,0,0,0,1.45.39A2.68,2.68,0,0,1,482.42,231.79ZM359.73,285.23l-.49-.29c-.3.32-.78.6-.87,1-.83,3.32-1.63,6.66-2.34,10-.25,1.15-.82,2.23-1.06,3.28-.43,1.88-.33,3.89-.75,5.85-.28,1.31-1.31,2.84,0,4.21,0,0,0,.08,0,.12-.24,1.3-.54,2.6-.71,3.91a2.39,2.39,0,0,0,.32,1.59c.41.54.76.83.19,1.52-.21.25-.05,1,.15,1.38.67,1.41,1.43,2.77,2.19,4.24a1.42,1.42,0,0,0,1.41-1.42c.07-.63.52-1.22.62-1.86a21,21,0,0,0,.09-2.39,13.83,13.83,0,0,1,.07-1.43c.05-.35.37-.82.24-1-.89-1.39.19-2.88-.29-4.3a5.91,5.91,0,0,1,0-2.1c.13-2.32.36-4.64.41-7,.05-2-.11-3.92-.13-5.89,0-1.37.06-2.75.08-4.13a18.19,18.19,0,0,1,0-2.56A23.23,23.23,0,0,1,359.73,285.23Zm1.59-5.47c-1.34.84-2.14,3.11-1.57,4.28C360.88,283.35,361.81,280.92,361.32,279.76Zm97.93-53.52.6-.26-.41-1.21c-.24.14-.72.35-.7.43A5.28,5.28,0,0,0,459.25,226.24Z"/><path d="M184.52,362.63l-1.12.12c-.37-1.09,0-2.32-1-3.14-.07-.06,0-.33,0-.47.54-1.19,1-2.4,1.67-3.55a1.83,1.83,0,0,1,1.08-.75c2.12-.52,4.27-.9,6.38-1.45,1.7-.44,3.35-1.06,5-1.6.23-.07.58-.3.66-.23.94.87,1.67,0,2.48-.22,1.42-.44,2.84-.85,4.27-1.24a12.92,12.92,0,0,0,2.29-.49c2.63-1.27,5.54-1.15,8.3-1.78,2-.46,4.24-.5,6.13-1.29,2.27-1,4.61-.85,6.91-1.21s4.45-.65,6.66-1.05c2-.38,4.07-.91,6.12-1.3,1.38-.26,2.77-.43,4.17-.58,3.08-.32,6.16-.58,9.24-.92,1.06-.11,2.1-.46,3.17-.59,1.54-.19,3.13-.12,4.64-.45a26.76,26.76,0,0,1,8-.51,2,2,0,0,0,.49,0c1.48-.27,3-.62,4.44-.82.84-.11,1.79.25,2.56,0,3.45-1.15,7-.54,10.51-.82,1.09-.09,2.18-.29,3.23-.3a7.28,7.28,0,0,0,2.62.4,9.6,9.6,0,0,1,5.23-.24c.33.11.77-.2,1.15-.19,2.45,0,4.89.08,7.34.21a17.47,17.47,0,0,1,2.42.53c.32.06.74.2,1,.07,1.36-.74,2.49.35,3.74.38a6.36,6.36,0,0,1,1.32.16c.42.11.82.3,1.23.45.18.07.41.23.55.17,1.43-.62,2.28.64,3.34,1.08,2,.82,3,.44,3.87-1.73a38.57,38.57,0,0,0,1.5-3.6,26.8,26.8,0,0,0,.73-4c.29-2.25.51-4.5.78-6.75s.69-4.51.84-6.78,0-4.44.07-6.66.36-4.2.48-6.3a18.82,18.82,0,0,0-.31-3.18,14.5,14.5,0,0,1,.41-5.25,17.67,17.67,0,0,0,.19-4.52c0-1.32.12-2.64.26-3.95,0-.19.46-.33.77-.54-1.69-1.54-.85-3.25-.27-4.94a1,1,0,0,0,0-.35c-.21-2.21-.55-4.4-.59-6.61a39.36,39.36,0,0,1,.53-4.8c.32-2.85.64-5.69.94-8.54.11-1.13.09-2.28.26-3.4.12-.7.66-1.36.7-2.06a36.34,36.34,0,0,1,1.89-9.95c.75-2.08,1.4-4.2,2-6.32a4.25,4.25,0,0,0-.09-1.44c.88-1.33,2.15-2.55,2.21-4.42a.91.91,0,0,1,.13-.48c.85-1.39,1.73-2.77,2.57-4.17a18.52,18.52,0,0,0,1.35-2.47c.43-1,.55-2.16,1.74-2.66a.67.67,0,0,0,.29-.51c0-1.93,1.34-2.84,2.7-3.81.44-.3.59-1,.84-1.56a7.92,7.92,0,0,1,.72-1.76c1.7-2.09,3.47-4.12,5.23-6.15s3.49-2.29,5.79-.79a11.11,11.11,0,0,1,2.36,1.63,4.58,4.58,0,0,1,1,2.47c.11,1.4,1,2.75.3,4.2-.09.18-.05.49-.18.59-.86.67-.43,1.37-.14,1.89-1,1.18-2,2.24-2.91,3.38-.33.43-.31,1.14-.65,1.57a7.8,7.8,0,0,1-1.44,1.16c-.44.7-.87,1.33-1.26,2-.11.17-.25.46-.19.56.52.71-.13,1.15-.4,1.59-1.13,1.87-2.41,3.64-3.47,5.54a37,37,0,0,0-1.5,3.8c-.4,1-.84,1.87-1.32,2.78a10.72,10.72,0,0,0-1.65,4.81,1.26,1.26,0,0,1-.37.91c-1.39,1-1.37,2.65-1.78,4-.62,2-1.47,4.22-1.28,6.25s-1.21,3.85-.25,5.88c.41.86-1.11,1.93-2.43,1.82-.6-.05-1.57-.34-1.73-.1a7.23,7.23,0,0,0-.72,2.32c-.29,1.23-.55,2.46-.77,3.71a4.44,4.44,0,0,0,.08,1.08c0,.66.13,1.31.13,2,0,1.53,0,3.06-.1,4.58-.06,1.06-.27,2.11-.39,3.16a2.6,2.6,0,0,0,0,1.18c.59,1.46,0,2.74-.35,4.12a17,17,0,0,0,0,3.5c0,2.35-.09,4.7-.07,7.05,0,2,.24,4,.17,6,0,1.44.34,2.9-.3,4.35a7.88,7.88,0,0,0-.13,2.5c-.11,1.51.17,3.06-.63,4.53a2.85,2.85,0,0,0,0,2.07c.7,2-.12,3.81-.32,5.71a17.16,17.16,0,0,0,.12,2.14,9.7,9.7,0,0,1-.05,2.29c-.22,1-.76,2-.94,3s0,2.18-.14,3.26a29,29,0,0,1-.64,4c-.38,1.53-.91,3-1.43,4.53a5.1,5.1,0,0,1-.78,1.33c-.82,1-1.67,2.05-2.51,3.08,0,0,0,.08-.08.1-2.15.81-4,2.36-6.35,2.66q-3.21.4-6.44.66c-.8.07-1.62-.16-2.41-.09-2,.19-3.89.58-5.85.72-2.4.17-4.82.15-7.22.27-.73,0-1.46.3-2.19.32-1,0-2.24-.39-3.15,0-1.79.69-3.55-.18-5.28.25a2,2,0,0,0-.87.34c-.47.45-.85.6-1.36.05a.92.92,0,0,0-.78-.21c-3.33.93-6.77.86-10.17,1.11a45.34,45.34,0,0,0-5.1.17c-2.93.59-6,.18-8.87,1.19a5.36,5.36,0,0,1-1.7,0c-.16,0-.36-.15-.47-.09-2.2,1.27-4.69.14-7,.85a11.17,11.17,0,0,1-4.19.58c-1.48-.13-2.93,1-4.39,0-.14-.09-.47.08-.71.12-1.16.19-2.32.39-3.48.56l-5.68.79c-1.55.21-3.09.46-4.64.65-2.74.32-5.49.55-8.22.94-1.73.25-3.47,1.18-5.14,1-2.21-.2-4.11.69-6.16.91-3.55.38-7.12.55-10.67.87-.9.08-1.76.43-2.65.6-1.38.25-2.77.43-4.15.69-.67.13-1.31.51-2,.57-1.67.14-3.35.17-5,.24a.4.4,0,0,1-.23-.08Z"/><path d="M417.85,321.08c-.52.38-1.06.73-1.55,1.14-1.73,1.49-2.89,1.58-4.73.3-1.32-.91-2.7-1.76-3.94-2.76a5.74,5.74,0,0,1-1.06-1.79c-.4-.73-.76-1.48-1.15-2.22,0-.05-.13-.06,0,0,0-.7.06-1.3.13-1.89a4.54,4.54,0,0,1,.23-.95c.05-.15.28-.36.24-.41-1-1.3.31-2.59,0-3.86-.17-.7,0-.85.66-1.22a5.28,5.28,0,0,1,4.18-.67,5.35,5.35,0,0,0,2-.36c.16,0,.38-.21.46-.15,1.68,1.14,2.58-.72,3.86-1.07.68-.18,1-1.35,1.71-1.75,1.89-1.13,3.19-2.84,4.69-4.36a6.32,6.32,0,0,1,4.9-.71c.78.39,1.74.59,2,1.71.07.29.59.59.95.69a2,2,0,0,1,1.54,2c.07,1,.12,2.08.24,3.11.08.79,1.27,1.2,2.24.85s1.67-.58,2.51-.83c2.49-.7,5-1.36,7.46-2.09,1.64-.48,3.25-1.51,4.86-1.49,1.87,0,3-1.19,4.48-1.71s2.93-1,4.39-1.54a3.48,3.48,0,0,0,.48-.3c.63-.39,1.3-.74,1.9-1.18.41-.29.71-.73,1.1-1.05.82-.65,1.57-1.37,2.82-1a17.55,17.55,0,0,0,2.2.1,7.62,7.62,0,0,1,2.67.69,2.21,2.21,0,0,1,1,1.78c-.13,1-.05,1.67.84,2.22.58.35.67.8,0,1.25a1.15,1.15,0,0,0-.31.78c0,.7.06,1.39.1,2.08s.08.81.87,1c1.28.26,2.48-.11,3.71,0a6.06,6.06,0,0,1,1.3.48,10,10,0,0,1,1.59-.75c.2-.06.54.36.75.51,1.45-.74,2.94-1.47,4.4-2.25a13.46,13.46,0,0,0,1.41-1c.13-.1.22-.3.36-.32,2-.36,3.05-1.92,4.43-3.1.47-.4,1.28-.48,1.63-.94.89-1.17,1.61-2.48,2.42-3.72.28-.44.6-.85.91-1.27s.68-.92,1-1.38c.07-.1.05-.32.12-.34,1.74-.65,1.71-3,3.49-3.59.1,0,.18-.15.24-.25.32-.55.49-1.36,1-1.58a9.07,9.07,0,0,1,2.54-.45l1.84-.3,2.14,1.27c.07.05.2.09.2.13-.05,1.71,2.42,2.61,1.49,4.62-.08.18,0,.48.12.72.61,2.2-.39,3.91-1.8,5.39-.73.76-2,1.08-2.61,1.9a11.38,11.38,0,0,0-1.41,3.35c0,.09.78.7,1,.61,1.35-.52,3-.55,3.73-2.09l2.9.44a8.46,8.46,0,0,1,.95,5.54s0,.1,0,.11c-1.11,1.2-1.26,3.07-2.86,3.95-.88.48-1.61,1.21-2.47,1.71-.67.39-1.44.59-2.14.92a7.24,7.24,0,0,0-1.26.8c-.43.33-.6.57-1.28.05a4.56,4.56,0,0,0-3.26-1.2c-.67.05-1.46-.81-2.13-1.34-.88-.67-1.68-1.43-2.54-2.12-.68-.56-1.32-.62-1.76.3a4.23,4.23,0,0,1-2.69,2.2c-1.93.69-3.71,1.8-5.63,2.54a19.54,19.54,0,0,1-3.95.91c-2.05.33-4.12.6-6.19.8-.45,0-.93-.32-1.41-.48a6.79,6.79,0,0,0-1.24-.37c-1.38-.17-2.77-.29-4.16-.44a.67.67,0,0,1-.4-.26c-1-1.52-2.84-1.84-4.15-2.9s-3-1.24-4.6-1.72-2.4.44-3.49.93c-.11.05-.25.21-.32.18-1.67-.78-2.41,1.06-3.73,1.35a33.64,33.64,0,0,0-3.92,1.35.6.6,0,0,1-.11.06c-2.56.66-5.14,1.26-7.68,2a41.21,41.21,0,0,0-3.89,1.44,3.17,3.17,0,0,1-2.88.14,3.78,3.78,0,0,0-2.26-.46,3.76,3.76,0,0,1-3.77-1,3.43,3.43,0,0,0-2.9-1.32,2.18,2.18,0,0,0-1.24.39c-.82.81-1.51,1.77-2.32,2.6-.53.55-1.25.92-1.77,1.47a4.91,4.91,0,0,0-.64,1.32Z"/></svg>