<svg id="Layer_1" data-name="Layer 1" fill="white" xmlns="http://www.w3.org/2000/svg" viewBox="0 0 841.89 595.28"><path d="M292.4,402.13a7.71,7.71,0,0,0-.82-.24c-.1,0-.2,0-.3-.08l-12.17-4.92-.26-.11c-1.17-.47-2.33-.94-3.48-1.43l-2-.88c-1.36-.6-2.77-1.23-4.23-1.76-2.42-.88-4.9-1.66-7.3-2.41l-1.55-.49-2.62-.85c-2.52-.82-5.13-1.67-7.77-2.36-3.13-.82-6.31-1.52-9.39-2.2l-4-.89h-.06a21.5,21.5,0,0,0-7.12-2.4c-1.13-.24-2.19-.46-3.21-.77-2.46-.75-5-1.3-7.41-1.83-1.35-.29-2.7-.58-4-.91a9.63,9.63,0,0,1-1.21-.44,12.85,12.85,0,0,0-1.88-.66c-1-.25-2-.47-3.07-.68s-2-.41-2.92-.65c-.18-3-.32-6-.47-9l2.08-2.24,1.54-1.84L207,360.49a3,3,0,0,0-2.19-1.17l-.09-1.75c-.06-1.35-.13-2.71-.17-4.07q-.17-4.68-.28-9.35l-.05-1.54c0-1.78-.1-3.57-.11-5.35v-.07a46.68,46.68,0,0,1,4-3.22c.49-.34,1-.67,1.49-1a20.66,20.66,0,0,0,4.55-3.67,11,11,0,0,1,3.62-2.92,14.65,14.65,0,0,0,4.07-2.88,17.22,17.22,0,0,1,1.51-1.3l5.25-3.88,1.89-1.39,1.75-1.26.47-.34a8,8,0,0,0-.75.87,2.15,2.15,0,0,1-.23.28,3.78,3.78,0,0,0-1.11,3.08,4.31,4.31,0,0,0,.23.73,3.5,3.5,0,0,0,.07,2.83l-1.05.63L232,327l0,.84c-.07,1.1-.12,2.14-.22,3.17s-.31,3.94,2.11,5.66a6.75,6.75,0,0,0,1.5,4.39,9.57,9.57,0,0,1,.55.87,7.75,7.75,0,0,0,2.63,2.7,6.7,6.7,0,0,1,1,.71l3.57,3,.28-4.67.07-1a14.66,14.66,0,0,0,.08-1.91,3.56,3.56,0,0,0-1.12-2.81c.69.15,1.32.28,2,.46a10.11,10.11,0,0,1,1.1.36,10.64,10.64,0,0,0,8.46,4.66c.56,0,1.13.07,1.67.07a7,7,0,0,0,6.35-3.1,4,4,0,0,0,.69-.52c1.13-1,2.26-2.08,3.35-3.16a3.81,3.81,0,0,0,.94-2.29c.3-3.06.58-6.11.85-9.17a6,6,0,0,0-.18-1.76l-.2-1a25.51,25.51,0,0,0-.62-2.75,9.3,9.3,0,0,0-1-2.1l-.22-.38a3.24,3.24,0,0,0-.53-.75,5.22,5.22,0,0,0-2.93-3.14,4.71,4.71,0,0,1-.66-.38l-1.61-2-.51.48a8,8,0,0,0-4.28-1.24l-.58,0a38.59,38.59,0,0,0-4.15-.19c-2.09,0-4.16.12-6.1.24a14.07,14.07,0,0,0-6.15,1.57c-.44.26-.92.5-1.39.74l-1,.55.65-.5c1.27-1,2.46-2.16,3.61-3.24l1.4-1.3a35.63,35.63,0,0,1,4.73-3.83,37.63,37.63,0,0,0,4.3-3.4c.52-.45,1-.9,1.57-1.34.22-.19.43-.4.64-.61a2.27,2.27,0,0,1,.26-.27c1.33-.77,2.68-1.5,4-2.23l1.32-.72a5.46,5.46,0,0,1,.54-.24,4.8,4.8,0,0,0,2.56-1.89,8.17,8.17,0,0,1,1.73-1.84,16.62,16.62,0,0,0,1.75-1.72,24.32,24.32,0,0,1,4.73-4,35.2,35.2,0,0,0,4.3-3.38l1.79-1.71c2.23-2.13,4.53-4.34,6.69-6.65a14,14,0,0,1,1.18-1.13,12.49,12.49,0,0,0,3.08-3.72,8.12,8.12,0,0,0,3.12-3.54,4.46,4.46,0,0,1,1.27-1.71,2.4,2.4,0,0,0,1.21-1.4l.36-.67a6.46,6.46,0,0,1,.76-1.23,26.23,26.23,0,0,0,4.25-7.14,34.08,34.08,0,0,1,2.1-4.14,18.91,18.91,0,0,0,1.47-3.1,14,14,0,0,1,1.14-2.42,10.36,10.36,0,0,0,1.4-6.42l-.05-3a16.57,16.57,0,0,0-2.9-9.64c-1.17-1.62-2.43-3.16-3.66-4.65l-.7-.85a9.74,9.74,0,0,0-2.1-2l-.36-.23c-2.11-1.41-4.3-2.87-6.58-4.16a56.7,56.7,0,0,0-6.38-3.08,27.38,27.38,0,0,0-3-1c-.67-.19-1.35-.38-2-.62s-1.07-.42-1.59-.65a13.19,13.19,0,0,0-5.38-1.44,8.83,8.83,0,0,0-1.7.17l-.1,0-.49-.08-2.85-.39c-2.05-.28-4.17-.58-6.3-.76-2-.17-4-.26-6.12-.26a127.29,127.29,0,0,0-15.38,1.12,13.42,13.42,0,0,0-2.26.53l-2.95.88q-1.64.5-3.27,1l-.46,0h-.3l-.68.11c-1,.15-2,.31-3.09.56a12.18,12.18,0,0,0-1.69.6,6.37,6.37,0,0,1-.72.29c-.42.15-.86.27-1.3.38a12.8,12.8,0,0,0-3.4,1.3l-.3.18a26,26,0,0,1-6.89,3.33,8.29,8.29,0,0,0-3.79,1.89,14.24,14.24,0,0,1-3.58,2.31,18.9,18.9,0,0,0-4.72,3.14,7.46,7.46,0,0,1-1.75,1.08,10.83,10.83,0,0,0-3.34,2.31l-.15.06a6.77,6.77,0,0,0-.82.36l-.34.16a6.65,6.65,0,0,0-1.71,1.11c-.61.61-1.3,1.17-2,1.77a19.78,19.78,0,0,0-4.49,4.69l-.39.18a4.91,4.91,0,0,0-1.48.92l-3.78,3.65-3,2.86c-.74.72-1.5,1.42-2.25,2.12-1.41,1.32-2.87,2.68-4.25,4.11l-.28.29a20.43,20.43,0,0,0-3.94,5,18.66,18.66,0,0,1-3.09,4.12l-.36.41c-.35.39-.75.75-1.14,1.11a12.88,12.88,0,0,0-2.43,2.75c-1.16,1.92-2.18,3.92-3.16,5.86-.5,1-1,2-1.52,2.95a7.1,7.1,0,0,1-.66,1c-.18.26-.37.52-.55.79-.07.11-.15.21-.23.32a4.73,4.73,0,0,0-1.11,2.27A18.45,18.45,0,0,1,145.5,282a19.91,19.91,0,0,0-1.75,4.07l-.19.53a7.79,7.79,0,0,0-.34,2.29,2.88,2.88,0,0,1-.12,1,2.91,2.91,0,0,0-1,2.35l-.21.88c-.09.38-.18.77-.26,1.16l-.09.41a13.61,13.61,0,0,0-.33,2l0,.51c-.14,1.85-.28,3.77-.3,5.7a11,11,0,0,0,.64,4.12c.3.76.25.87.14,1.13a5.15,5.15,0,0,0,.07,3.43l.05.19a7,7,0,0,0,.7,1.61,2.78,2.78,0,0,1,.22.42c.26.53.49,1.08.72,1.63a24.31,24.31,0,0,0,2,4,66.23,66.23,0,0,0,6.07,8l.94,1.05c2.63,2.89,5.34,5.89,9.13,7.87.42.22.86.41,1.3.61a8.31,8.31,0,0,1,1.65.87,7.55,7.55,0,0,0,5,1.81,12.29,12.29,0,0,0,2.55-.3c.66-.14,1.32-.25,2-.36.95-.17,1.9-.33,2.84-.56l.48-.12.21,1.8,3.29-2.54.83-.63c.8-.61,1.56-1.18,2.3-1.85a3.35,3.35,0,0,0,.46-3.93,3.52,3.52,0,0,0-2.92-1.88h-.17l-.14,0c-.75.09-1.51.22-2.26.36s-1.42.26-2.13.33-1.63.13-2.45.16-1.79.09-2.68.18a9.64,9.64,0,0,0-1.79.42,5.87,5.87,0,0,1-.82.23,5.07,5.07,0,0,1-.56.05,4.07,4.07,0,0,0-1.13-1,17.08,17.08,0,0,0-2.7-1.2c-1.52-.57-2.49-1-3.12-1.81l-.53-.72c-.55-.74-1.11-1.52-1.77-2.26s-1.14-1.23-1.73-1.83-1.36-1.4-1.95-2.11c-1.92-2.3-3.15-4.34-2.94-6.81a2.93,2.93,0,0,0-1.49-3c-.37-.19-.47-.24-.51-1.81,0-.41,0-.83-.06-1.23a27.71,27.71,0,0,1,1.08-9.89c.18-.7.35-1.4.52-2.09.39-1.59.76-3.1,1.25-4.54.59-1.71,1.28-3.37,2-5.13.35-.83.7-1.66,1-2.49.21-.52.4-1,.59-1.58a16.92,16.92,0,0,1,1.09-2.63c1.29-2.31,2.77-4.55,4.17-6.62,2.32-3.43,4.42-6.51,6.68-9.55a65.5,65.5,0,0,1,4.55-5.24l1.33-1.44c2.42-2.61,4.92-5.3,7.49-7.78a60.76,60.76,0,0,1,4.8-4c.68-.54,1.36-1.07,2-1.62q1.86-1.5,3.76-2.95l.42-.32c1.76-1.34,3.51-2.68,5.3-4,1.39-1,3-2.14,4.55-3.1l.77-.46c2.67-1.61,5.43-3.27,8.21-4.67a18.25,18.25,0,0,0,2.29-1.44c1.3-.92,2.16-1.49,3.16-1.49l.5,0a3.11,3.11,0,0,0,2.13-1l.1-.06h.07a6.9,6.9,0,0,0,4.11-1.66,3.34,3.34,0,0,1,1.38-.75l1.25.14.81-1c.86-1,2.08-1.3,4.15-1.5a6.77,6.77,0,0,0,2-.56l.61-.24,3.41-1.18-.26-.28a5.28,5.28,0,0,0,1.09-.82,8.19,8.19,0,0,0,1.84.22,8.91,8.91,0,0,0,3.05-.57,6.27,6.27,0,0,1,1.91-.44,1.1,1.1,0,0,1,.65.16l.86.55,1-.26c.26-.06.51-.14.75-.21a5.21,5.21,0,0,1,.63-.17c.73,0,1.46,0,2.19,0l3.34,0a46.66,46.66,0,0,1,11.9,1.29,20.68,20.68,0,0,0,2.9.49,10.75,10.75,0,0,1,3,.64c1.21.57,2.42,1,3.6,1.43s2.12.77,3.09,1.23a35.33,35.33,0,0,1,4.12,2.4c1,.65,2,1.31,3.12,1.92,2.74,1.52,4.44,4.2,5.37,8.43a20.08,20.08,0,0,1,.09,5.51c-.05.83-.11,1.65-.13,2.47-.33.69-.65,1.4-1,2.1-.85,1.86-1.65,3.62-2.6,5.31-1.37,2.44-2.93,4.87-4.44,7.23l-1.15,1.8c-2.66,4.18-6.12,7.65-9.79,11.32l-1,1c-2,2-4.18,4-6.21,5.76-.68.59-1.39,1.13-2.11,1.68s-1.57,1.2-2.31,1.85c-1.18,1-2.33,2.12-3.48,3.2l-1.84,1.72a4.71,4.71,0,0,0-.63.33l-1.33.82a36.54,36.54,0,0,0-3.41,2.26c-1.45,1.12-2.85,2.29-4.25,3.47-1.14,1-2.29,1.91-3.45,2.84-1.5,1.19-3,2.35-4.56,3.51-1.27,1-2.55,1.94-3.82,2.93-1.12.88-2.18,1.81-3.21,2.72a32.49,32.49,0,0,1-6.35,4.74,25.27,25.27,0,0,0-4.35,3.07c-.51.42-1,.85-1.55,1.24L217.27,313c-1.29,1-2.58,2-3.91,3-.56.41-1.15.77-1.75,1.14s-1.47.91-2.2,1.45c-1.91,1.43-3.79,2.89-5.69,4.36a62,62,0,0,1-.1-6.42,63.35,63.35,0,0,0-.12-6.87l1.89-.82-1.13-2.22c-.19-.38-.41-.74-.63-1.09a4.76,4.76,0,0,0-.39-.57h0c-.11-3.09-.17-6.19-.23-9.29-.09-4-.17-8.07-.36-12.11a20.74,20.74,0,0,0-.26-2.33c-.24-1.7-.37-2.79.12-3.82a2.64,2.64,0,0,0,0-2.24l-.22-.93c-.19-.87-.39-1.74-.65-2.6a4.93,4.93,0,0,0-1.7-2.71,12.21,12.21,0,0,0-2.23-1.23l-.63-.29c-.28-.14-.56-.25-.84-.36L192,265.26l.77,4.51c0,.2.07.39.09.59a2.12,2.12,0,0,1,0,.5c0,.57,0,1.13,0,1.7,0,1.13,0,2.26,0,3.39.07,1.86.15,3.72.22,5.58.14,3.14.28,6.39.32,9.57a20.23,20.23,0,0,1-.27,3,28,28,0,0,0-.31,3.26,19.25,19.25,0,0,0,.3,3.29c.09.62.19,1.25.23,1.88.15,2.34.2,4.65.23,6.61,0,3.08,0,6.17,0,9.25q0,6.17-.12,12.32c-1.28,1-2.46,1.95-3.67,2.8a34.44,34.44,0,0,0-3.09,2.52,16.82,16.82,0,0,1-4.82,3.36,4.35,4.35,0,0,0-1.42,1l-.16.14L178.46,342c-1.38,1.12-2.81,2.28-4.24,3.34-2.08,1.54-4.18,3-6.28,4.54l-3.37,2.4c-.26.19-.5.41-.74.62a2.23,2.23,0,0,1-.38.32c-1.41.85-2.84,1.69-4.26,2.53-2.35,1.38-4.7,2.77-7,4.2s-4.75,3-7,4.55l-2.4,1.58c-.41.26-.81.55-1.2.84a14,14,0,0,1-1.67,1.1c-.72.37-1.47.69-2.23,1a22.21,22.21,0,0,0-4.14,2.12c-3.45,2.38-7.39,3.63-11.67,5a12.12,12.12,0,0,0-5.62,3.35,6.21,6.21,0,0,0-1.58,4.06c0,1.7,1.55,2.42,2.36,2.81a3.88,3.88,0,0,1,.5.25c.28.19.54.41.8.62l.29.23c.14.12.28.28.43.43a4.08,4.08,0,0,0,2.91,1.6h.24l.18,0a36.33,36.33,0,0,0,7.46-1.83,8.53,8.53,0,0,0,2.55-1.66,5,5,0,0,1,1.16-.83,16.3,16.3,0,0,0,5.6-2.84,3.53,3.53,0,0,0,2.11.69,5.55,5.55,0,0,0,1.72-.32l1.09-.36h.46a16.6,16.6,0,0,0,3-.34l.18,0a9,9,0,0,0,1.75-.57,4.83,4.83,0,0,1,.77-.27,19.85,19.85,0,0,0,2.86-.32,16.42,16.42,0,0,1,2.39-.26,4,4,0,0,1,1.56.27,3.2,3.2,0,0,0,1.17.21,3.45,3.45,0,0,0,1.83-.51,3,3,0,0,1,1.72-.44,14.62,14.62,0,0,1,2.23.25l.32.05a25.32,25.32,0,0,0,3.87.3h.4a12.15,12.15,0,0,0,1.94-.23c.39-.06.76-.13,1.08-.15l.16.08a4.59,4.59,0,0,0,2,.55,39.14,39.14,0,0,1,8.79,1.19,60.25,60.25,0,0,0,7.54,1.13c1,.11,2,.22,3,.35,1.81.23,2.11.56,2.12,2.34,0,1.35,0,2.7-.06,4.05,0,1,0,1.95-.05,2.93,0,.78,0,1.55,0,2.33a38.89,38.89,0,0,1-.05,4.06,13.08,13.08,0,0,0,.18,3.07,6,6,0,0,1,0,2.73,9.82,9.82,0,0,0-.31,3.83c0,.39,0,.78,0,1.15,0,0-.13,14.29-.17,18.52a1.87,1.87,0,0,1-.07.22l-.1.36c-.07.26-.15.53-.24.79a11.12,11.12,0,0,0-.57,2.46c-.08,1-.09,1.95-.1,2.88s0,1.65-.07,2.47c-.12,1.47-.29,2.93-.46,4.4-.14,1.21-.28,2.42-.39,3.64a16.84,16.84,0,0,0,0,2c0,.35,0,.71,0,1.06a5.75,5.75,0,0,0,1.43,4.38,5.49,5.49,0,0,0,4.12,1.52h.22a8.94,8.94,0,0,0,1.16-.12,3.68,3.68,0,0,1,.64-.07h0a3.73,3.73,0,0,0,3.93-4c0-1.25.08-2.49.13-3.74,0-.83.07-1.66.1-2.49s0-1.93.07-2.89c0-1.81.07-3.69.2-5.49s.31-3.58.49-5.37c.23-2.31.48-4.7.6-7.09.11-2.21.1-4.43.09-6.57,0-1.64,0-3.29,0-4.93a11.67,11.67,0,0,1,.26-1.89,14.83,14.83,0,0,0,.35-3c0-1.27-.13-2.5-.25-3.7a26,26,0,0,1-.17-4.61,48.57,48.57,0,0,0-.06-7.35c-.08-1.4-.16-2.73-.16-4.06v-.4l.11,0c2.07.45,4,.88,6,1.37,1.63.42,3.24.9,4.85,1.38l3.47,1a19.18,19.18,0,0,0,1.89.4,8,8,0,0,1,2.28.63,12.53,12.53,0,0,0,4.62,1.39l.21.07.55.2,2.15.64c1.48.44,3,.88,4.43,1.34.4.13.78.29,1.16.44a13.73,13.73,0,0,0,2.17.76c1.16.28,2.34.5,3.51.73,1,.2,2,.39,3,.62s2,.52,3,.8,1.74.48,2.61.7c1.19.29,2.39.55,3.59.81l1.78.4a1.26,1.26,0,0,1,.33.1l7.08,3,2.54,1.11c1.72.75,3.49,1.52,5.29,2.22a7.6,7.6,0,0,1,1,.55,6.89,6.89,0,0,0,3.66,1.29,4.78,4.78,0,0,0,1-.1,4.87,4.87,0,0,0,1.19.81c2,1,4.4,2.07,6.86,3a4.57,4.57,0,0,0,1.65.28,11.66,11.66,0,0,0,1.42-.12l.57-.07.35,0a6,6,0,0,0,2.63-.6c.92-.49,2.63-1.41,3.16-3.1A5.56,5.56,0,0,0,292.4,402.13Zm-39.84-84.31a45.21,45.21,0,0,1,6,.94c.36.07.62.6.92.93l-.49.59c-1.23-.36-2.47-.76-3.71-1.07a4.36,4.36,0,0,0-1.83-.1c-2.93.66-5.88,1.34-8.78,2.15-.38.12-.71,1-.74,1.49,0,.23.78.8,1.14.75,1.21-.15,2.39-.65,3.6-.76a15,15,0,0,1,5.1,0c.86.23,1.55,1.73,1.94,2.8s.16,2.32.36,3.48a5.29,5.29,0,0,1-1.56,4.69c-1.14,1.26-2.76.78-4,.43a3.27,3.27,0,0,1-1.66-2.44c-.1-1.07-.29-1.7-1.47-1.92.51-.81.91-1.26,1.74-.56a2,2,0,0,0,2.65,0c-1.33-1.12-1.61-2.35-.83-3.71-.74-.53-1.41-.94-2.1.15-.58.9-1.28.61-2.11.2a2.9,2.9,0,0,0-2-.3c-1,.38-1.74-.05-1.79-.76a17.71,17.71,0,0,1,.18-5.4c.17-.68,1.66-1.37,2.6-1.47A40.41,40.41,0,0,1,252.56,317.82Zm-68.17,53.47-1.57-.19c-1.74-.22-3.38-.42-5-.75a77.65,77.65,0,0,0-15.52-1.2h-1.48a18.27,18.27,0,0,0,3.59-2.45c.41-.33.83-.67,1.26-1,1.44-1.06,2.94-2,4.53-3,.74-.47,1.47-.94,2.2-1.43a6.78,6.78,0,0,0,.62-.47l1.13-.91a6.63,6.63,0,0,0,2.69-2.33c.09-.06.2-.11.31-.17a7.58,7.58,0,0,0,.95-.59q4.91-3.67,9.81-7.38l5.92-4.51q.07.67.09,1.32c0,1.29,0,2.58-.09,4s-.13,3-.1,4.59c.06,2.53.23,5.07.4,7.53l.21,3.32.4,7.09c-.56-.05-1.09-.06-1.6-.07a7.22,7.22,0,0,1-2.94-.45,10.69,10.69,0,0,0-4.28-.78A15.12,15.12,0,0,1,184.39,371.29Z"/><path d="M535.85,358.76a4.74,4.74,0,0,1,1-.94c.62-.45,1.26-.87,1.9-1.3s1.38-.92,2.05-1.4a11.31,11.31,0,0,0,1.45-1.34c.14-.14.27-.29.41-.42.34-.33.69-.65,1-1a17.64,17.64,0,0,0,2.71-2.86,28.75,28.75,0,0,0,2.24-4c.26-.53.52-1.05.77-1.53a1.74,1.74,0,0,1,.25-.29c.13-.16.32-.38.52-.65l.41.16.88-2.12c1.64-3.9-.37-5.93-1.72-6.79l-1.71-1.12c-1.39-.91-2.82-1.85-4.31-2.71a8,8,0,0,0-2.11-.77,5.37,5.37,0,0,1-.89-.27c-.23-.12-.46-.26-.68-.39a5.69,5.69,0,0,0-3-1.07,3.64,3.64,0,0,0-.57,0,7.39,7.39,0,0,0-1.23-.78,15.19,15.19,0,0,0-2.8-1c-2.75-.75-5.87-1.59-9-2.35s-6.64-1.63-10.12-2.36c-3.8-.79-7.86-1.62-11.92-2.28-1.23-.2-2.46-.35-3.69-.5a53.7,53.7,0,0,1-5.85-.93,118.09,118.09,0,0,0-13.27-2.13l-.47-.06c-3.86-.47-7.78-.84-11.57-1.2l-5.14-.49-3.19-.34c-2.29-.25-4.65-.5-7-.67-1.12-.08-2.23-.22-3.35-.36a45.33,45.33,0,0,0-5.56-.45,20.81,20.81,0,0,0-2.8.18l-.29-.06c-.42-.06-.83-.15-1.24-.23a21.2,21.2,0,0,0-3.21-.46c-2.39-.1-4.78-.16-7.18-.22-2,0-4.06-.09-6.09-.17-1.67-.06-3.33-.16-5-.26-1.89-.11-3.78-.22-5.67-.28-1,0-2-.05-2.95-.05l-3.3,0h-1.55a1.93,1.93,0,0,1,.83-.52l.75-.29A22.32,22.32,0,0,0,408,308.3c1.56-.91,3.09-1.87,4.62-2.84,1-.6,1.92-1.2,2.89-1.79a7.38,7.38,0,0,1,1.68-.85,16.22,16.22,0,0,0,8.43-4.82l2.94-1.22c1.94-.81,3.87-1.61,5.78-2.46a13.94,13.94,0,0,0,1.78-1,8.19,8.19,0,0,1,1.31-.73,21.49,21.49,0,0,0,2.64-1.23,7.92,7.92,0,0,1,3.58-1.27,3.38,3.38,0,0,0,2-.73c.32-.21.63-.45.95-.68a5.91,5.91,0,0,1,1.19-.79c.94-.36,1.93-.64,3-.94.75-.21,1.5-.43,2.25-.67l.45-.14c1.18-.35,2.8-.83,3.36-2.43,0-.17.1-.27.11-.31h.49c.37,0,.67,0,.92,0a3,3,0,0,0,3.11-2.1l7.22-2.62.2-1.15a9.43,9.43,0,0,0,5.67-3.56l.34-.52a4.27,4.27,0,0,0,1.68-.6c.56-.25,1.12-.49,1.67-.76l.48-.23a10,10,0,0,0,1.84-1c.85-.62,1.68-1.27,2.5-1.92.62-.49,1.24-1,1.87-1.46.81-.6,1.63-1.18,2.47-1.77l1.68-1.19.89.19,1.49-3.2a3,3,0,0,0,1.21-.74c.74-.74,1.44-1.53,2.15-2.33l2.35-2.62-.46-.42a2.91,2.91,0,0,0,.54-.61,3,3,0,0,0,2.22-2.49l.23-1-.6-.86c-2-2.87-4.93-3.51-7.25-4-.64-.14-1.27-.28-1.88-.47l-.55-.17.07-.39-1.93-.19-1.13-.35,0,.25-.45,0a17.17,17.17,0,0,1-1.74-.2,9.73,9.73,0,0,1-1.06-.28c-.48-.15-1-.29-1.44-.39-.75-.15-1.5-.26-2.31-.36l-1.05-.15-1.43-.12-.05.06a3.24,3.24,0,0,0-1.6-.44,3,3,0,0,0-1.92.7l-3.07-.91a4.23,4.23,0,0,0-1.81-.37h-.16c-1.07-.28-2.13-.59-3.19-.89s-2.28-.67-3.43-1a19.21,19.21,0,0,0-4.44-.46,14.06,14.06,0,0,1-3.92-.46,20.4,20.4,0,0,0-5.75-.7c-.75,0-1.49,0-2.23-.09l-1.29-.08a2.22,2.22,0,0,0-.47-.2,3.76,3.76,0,0,0-1.17-.17,7.46,7.46,0,0,0-1.56.21,3.16,3.16,0,0,1-.6.11c-.33,0-.68,0-1,.08s-.73.06-1.08.06a1.79,1.79,0,0,1-.48,0,10.92,10.92,0,0,0-4.48-1.19,7.92,7.92,0,0,0-.85,0,2.55,2.55,0,0,0-1.62-.62h-.66l-.56.33a2.76,2.76,0,0,1-1.33.48,1.35,1.35,0,0,1-.85-.33l-.75-.49h-.77a3.19,3.19,0,0,0-.87.13l-1,.17.28-1.28-3.23.32h-.17a3.15,3.15,0,0,0-1.77.48l-.11.07,0,0a3,3,0,0,0-2.43-1.09,3.1,3.1,0,0,0-1.45.34,3.68,3.68,0,0,1-1.8.46,8.19,8.19,0,0,1-2.46-.48,15.71,15.71,0,0,0-4.68-1,6.88,6.88,0,0,0-1.6.19,2.35,2.35,0,0,1-.6.07,7.64,7.64,0,0,1-1.69-.27,12.09,12.09,0,0,0-2.65-.37h-.92l-.86,0-1.08,0h0l-1.14,0c-.34,0-.68,0-1.06,0h-.51l-.34,0a6.31,6.31,0,0,0-2.41-.59,4,4,0,0,0-2.55.94,24.31,24.31,0,0,0-4.26-.35c-1.33,0-2.65.08-3.89.16-.22,0-.43,0-.65,0a25.91,25.91,0,0,1-3.68-.37c-.9-.13-1.8-.26-2.8-.34-1.32-.12-2.67-.24-4.05-.24a14.08,14.08,0,0,0-7.34,1.77l-1.58.92.5,1.76a7.9,7.9,0,0,0,6.92,5.09c1.11,0,2.22,0,3.32.06,1.57,0,3.13,0,4.69.13,1,.05,2,.21,3.05.37.64.1,1.27.2,1.91.28.31,0,.62,0,.93,0a8.72,8.72,0,0,0,1-.06c.41-.06.82-.14,1.23-.23a7.24,7.24,0,0,1,1.29-.18h0c.77,0,1.58.15,2.43.27s1.74.26,2.62.31q8.86.56,17.72,1l7.09.41,1.25.1,3,.34c1.77.19,3.53.39,5.3.57.69.07,1.4.11,2.1.15a17.57,17.57,0,0,1,3.48.41,14.47,14.47,0,0,0,3.78.56,10,10,0,0,0,3.16-.5.67.67,0,0,1,.19,0,3.31,3.31,0,0,1,1.16.26,11.4,11.4,0,0,0,4.31.91,9,9,0,0,0,1.68-.15,2.42,2.42,0,0,1,.46.06l2.46.34c.95.14,1.9.28,2.85.39.32,0,.64.11,1,.17a12.74,12.74,0,0,0,2.33.27,5.78,5.78,0,0,0,1.48-.17,1.61,1.61,0,0,1,.46-.07,2.93,2.93,0,0,1,1.3.46,6.08,6.08,0,0,0,2.75.79,3.59,3.59,0,0,0,.93-.12,5,5,0,0,1,1.31-.16,15.4,15.4,0,0,1,3.06.45c.58.12,1.16.24,1.74.34.41.07.81.16,1.22.25l1,.23q2.85.57,5.7,1.1a4.15,4.15,0,0,0,.79.07l.5,0,.94,1.45,3-2h.67a9.23,9.23,0,0,0,1.59-.17l.41-.05a6.08,6.08,0,0,0,0,.61l.14,4.09,3.25-2.05a27.37,27.37,0,0,1-2.1,2.08,41.15,41.15,0,0,1-3.74,2.76c-.46.32-.92.63-1.38,1l-1.62,1.16c-1.56,1.12-3,2.18-4.59,3.11-1.28.76-2.63,1.41-4.06,2.11-.88.42-1.76.85-2.63,1.31-.71.37-1.41.78-2.11,1.18-.88.52-1.71,1-2.56,1.41-2.07,1-4.15,1.94-6.24,2.89l-1,.46L449,271l-4.45,4.74,2.71,1.44a2.07,2.07,0,0,1,.25.15l.29.18L444,279.32c-2.29,1.1-4.59,2.2-6.89,3.28q-2.24,1-4.48,2c-1.75.77-3.49,1.54-5.21,2.36-1.54.73-3,1.53-4.49,2.3-.86.46-1.71.92-2.58,1.36L415.7,293q-3.37,1.69-6.74,3.43c-1.25.65-2.48,1.32-3.72,2s-2.23,1.23-3.36,1.82l-.41.2q-.09-.17-.21-.45a5.08,5.08,0,0,0-.59-1c-.06-.18-.12-.36-.19-.54a5.74,5.74,0,0,1-.37-1.42c0-.3,0-.61.06-.92a7.14,7.14,0,0,0-1-5c0-.08,0-.16,0-.23l-.21-1.5c-.3-2.2-.6-4.4-.92-6.61a3.51,3.51,0,0,0-.66-1.49c-.08-.19-.18-.39-.27-.58a4.13,4.13,0,0,1-.33-.73,19.61,19.61,0,0,1,0-2.06c0-.78,0-1.56-.06-2.34a14.44,14.44,0,0,0-.48-2.39,4.6,4.6,0,0,0-.25-3.81,5.37,5.37,0,0,1-.25-.64.8.8,0,0,1-.13.5l-1.27-1.45.46-.17-.73-1.95a4.8,4.8,0,0,0,.65-3.32,11.36,11.36,0,0,0-.78-2.35c-.46-1.1-.64-1.6-.49-2.13a17.45,17.45,0,0,0,.64-3.54,3.58,3.58,0,0,0-2.31-3.48,4.86,4.86,0,0,0-1.5-.22,6.32,6.32,0,0,0-4.67,2.12,4.92,4.92,0,0,0-1.18,4c.35,2.4.6,4.88.83,7.28.14,1.34.27,2.68.42,4a15.76,15.76,0,0,0,.29,1.67c.08.4.16.8.21,1.2.33,2.69.63,5.39.92,8.09,0,.36.06.73.08,1.09,0,.57.06,1.14.14,1.7.27,2,.58,4,.91,5.94s.71,4,1.11,6,.83,4,1.27,6l.2.91a37.6,37.6,0,0,0,.93,3.69,1.75,1.75,0,0,1,.09,1.17,1.77,1.77,0,0,1-.41.12,6.22,6.22,0,0,0-1.54.58l-1,.55c-2.17,1.24-4.42,2.51-6.57,3.93a15.16,15.16,0,0,1-2.06,1.06c-2.11,1-4.74,2.15-5.88,5.38a6.19,6.19,0,0,0-.24,4.38,5.4,5.4,0,0,0,3.87,2.78,4.91,4.91,0,0,0,.86.07,8.4,8.4,0,0,0,2.06-.32c.21-.05.42-.11.62-.14a6.28,6.28,0,0,1,.66-.08,4.87,4.87,0,0,0,3.08-1l.31.21,1.82-.19c.45-.05.81-.1,1.17-.11h1.56a9.49,9.49,0,0,0,4-.7l.12.08a7.51,7.51,0,0,1,.11,1.35c0,.42,0,.83.07,1.23s.08,1.09.1,1.64a18,18,0,0,0,.55,4.23c.16.56.34,1.11.51,1.67a27,27,0,0,1,1.35,6c.09,1.5.24,3,.43,4.37.1.73.25,1.45.41,2.16.07.35.15.7.22,1s.06.41.09.61a10.14,10.14,0,0,0,.3,1.52c.16.55.34,1.09.53,1.63s.4,1.15.55,1.73a9.92,9.92,0,0,1,.35,2.36c0,.62,0,1.25-.08,1.87a20.06,20.06,0,0,0,0,3.3c.22,2.2.59,4.38.95,6.49l.29,1.71c.09.59.22,1.18.36,1.76s.24,1.07.32,1.61c.24,1.53.45,3.07.67,4.61.32,2.28.65,4.55,1,6.82s.93,4.76,1.45,7c.27,1.17.6,2.33.95,3.54.15.52.31,1.06.46,1.61l.76,2.72,2.54-1.24c.25-.13.5-.23.74-.34a8,8,0,0,0,2.28-1.29,6.19,6.19,0,0,0,1.28-1.73,4.62,4.62,0,0,1,.3-.49,6.42,6.42,0,0,0,1.75-6.58l-.48-2c-.52-2.16-1.06-4.38-1.49-6.57-.35-1.78-.6-3.64-.85-5.44-.11-.77-.37-2.55-.37-2.55-.34-2.31-.68-4.62-1-6.94-.09-.59-.16-1.18-.23-1.78-.12-1.05-.25-2.11-.43-3.15-.25-1.39-.53-2.77-.81-4.16-.38-1.86-.76-3.79-1.06-5.67s-.53-3.84-.75-5.73c-.16-1.33-.32-2.67-.5-4-.32-2.35-.7-4.82-1.18-7.56a15.13,15.13,0,0,0-.73-2.53l-.09-.26a9.49,9.49,0,0,0-.44-1,2.48,2.48,0,0,1-.2-.4,7.44,7.44,0,0,1,0-1.58,10.7,10.7,0,0,0-.07-2.62h.43l3,0c.44,0,.9,0,1.36.08s1.2.1,1.77.1a6,6,0,0,0,3.1-.73,2,2,0,0,1,1.16-.3c.33,0,.66,0,1,.07s.67.06,1,.07c.89,0,1.8.15,2.77.27s2.12.25,3.24.29c1.94.08,3.88.09,5.82.11,1.38,0,2.76,0,4.13.05.79,0,1.58.1,2.37.18l1.42.13c1.19.09,2.38.17,3.58.24.84.05,1.69.08,2.53.11l1,0,.71,0a5.77,5.77,0,0,1,1,.05,5.41,5.41,0,0,1,.79.21,8,8,0,0,0,2.33.41h0q.31,0,.63,0L451,325l2.9-2a5.14,5.14,0,0,0,1.77.45c.73.05,1.47.05,2.2.05a21.16,21.16,0,0,1,2.15.07c.82.08,1.64.21,2.45.34a29.11,29.11,0,0,0,4.36.46,10.14,10.14,0,0,1,1.59.2,14.8,14.8,0,0,0,2.44.27,6.4,6.4,0,0,0,3-.71l1.61.44a2.6,2.6,0,0,0,2.38,1.53h0a2.67,2.67,0,0,0,1.92-.84l.87.48c.46.26.83.47,1.23.66a3.63,3.63,0,0,0,1.56.39l.67,0,.47-.22a2.21,2.21,0,0,1,1-.17,11.67,11.67,0,0,1,1.18.07c.54.05,1.08.1,1.61.1a8.31,8.31,0,0,0,1.15-.08,4.1,4.1,0,0,0,.79.25,4.13,4.13,0,0,1,.65.36,5.7,5.7,0,0,0,3,1,4,4,0,0,0,1.44-.27,9.11,9.11,0,0,0,3.93.88,11,11,0,0,0,2.09-.21l.23,0a1.42,1.42,0,0,1,.42.06,5.45,5.45,0,0,1,.75.32,8.54,8.54,0,0,0,1.69.65,11.25,11.25,0,0,0,1.86.25,7.05,7.05,0,0,1,1,.11c.84.18,1.67.41,2.5.63.65.18,1.31.36,2,.51a12.74,12.74,0,0,0,1.26.22,4.75,4.75,0,0,1,.94.18c.44.18.86.38,1.29.58a12.79,12.79,0,0,0,5.34,1.58,11,11,0,0,1,2.47.3,6,6,0,0,1,1.09.51l.57.3a7.81,7.81,0,0,0,5.06,1.84,5.68,5.68,0,0,0,.59,0,11.78,11.78,0,0,0,1.1.58,8.88,8.88,0,0,0,1.24.38l.46.13a4.32,4.32,0,0,1,.45.19,5.42,5.42,0,0,0,2.29.59h.38c1.44,0,1.47.09,1.6.57a2.63,2.63,0,0,0,1.32,1.6l-.19.28,1,.91c-.63,1-1.26,1.87-1.94,2.72a51.33,51.33,0,0,1-10.36,9.79,15.87,15.87,0,0,0-1.95,1.68,12.41,12.41,0,0,1-1.33,1.18c-1.45,1.05-3,2.06-4.54,3L517.22,362c-1.88,1.22-3.82,2.49-5.77,3.62-2.17,1.28-4.47,2.48-6.68,3.65l-1.58.83c-2.65,1.41-5.32,2.81-8,4.16-1.84.92-3.69,1.8-5.55,2.69l-2.87,1.38-3.1,1.52c-2.12,1-4.24,2.07-6.38,3.06-1,.48-2.07.91-3.11,1.33s-2.22.91-3.3,1.41q-2.53,1.19-5.05,2.42c-1.58.77-3.16,1.54-4.75,2.28-.93.43-1.88.81-2.83,1.18-.75.3-1.5.6-2.24.92s-1.2.57-1.79.89a10.19,10.19,0,0,1-2.43,1.05,45,45,0,0,0-9.58,3.48l-1.88.84c-1.12.49-2.28.91-3.5,1.36l-.41.15-1.2.39a17.29,17.29,0,0,0-2.57,1,10.7,10.7,0,0,0-1.11.63,3.32,3.32,0,0,1-1.32.6,21.68,21.68,0,0,0-5.87,2c-.58.26-1.16.53-1.75.77s-1.13.53-1.68.82a11.43,11.43,0,0,1-1.66.77c-.92.31-1.87.56-2.81.82s-2.05.54-3.06.88a12.65,12.65,0,0,0-1.95.91,5.68,5.68,0,0,1-1.46.64,19.73,19.73,0,0,0-6.66,2.46c-.9.46-1.74.9-2.6,1.25-1.74.72-3.46,1.48-5.18,2.23l-1.95.86-1,.46c-.46.21-.92.42-1.38.61-.88.36-1.77.71-2.72,1a4.81,4.81,0,0,0-1,.26l-2.56,1-2.55,1-2.81,1.08c-1.81.69-3.62,1.38-5.41,2.13a23.6,23.6,0,0,0-2.51,1.29c-.62.34-1.23.69-1.87,1-1.37.61-2.76,1.17-4.15,1.72l-2.48,1a8.66,8.66,0,0,0-1,.52c-.15.08-.29.17-.44.24a11.45,11.45,0,0,1-1.08.39,8,8,0,0,0-3.4,1.85,5.68,5.68,0,0,1-2.38,1.46c-.35.13-.71.23-1.07.34a8.59,8.59,0,0,0-4.91,2.95,1.9,1.9,0,0,1-.4-.05,7.83,7.83,0,0,0-1.29-.11A4.2,4.2,0,0,0,344,438.5c-.48.48-1,.55-2.38.62l-.68,0a4.49,4.49,0,0,0-2.71.85c-1.43,1.15-2.82,2.35-4.21,3.55l-.92.8a3,3,0,0,0-1,2.09v.05l-.17,0a3.14,3.14,0,0,0-2.43,2.75,3.08,3.08,0,0,0,2.62,3.07l.49.06a14.36,14.36,0,0,0,1.59.12,5.85,5.85,0,0,0,1.49-.18,44,44,0,0,0,8.23-2.77c2.15-1,4.38-1.87,6.74-2.75,1-.39,2.05-.77,3.07-1.17l1.49-.58c1.15-.45,2.3-.89,3.43-1.38,1.68-.72,3.35-1.46,5-2.19,1.34-.6,2.69-1.19,4-1.77,3.15-1.37,6.32-2.71,9.49-4.06l1.47-.62c2.09-.89,4.19-1.78,6.3-2.64,1.06-.44,2.13-.86,3.21-1.27,1.41-.56,2.82-1.11,4.22-1.69s2.86-1.25,4.28-1.89c1-.46,2-.92,3.06-1.36.69-.3,1.39-.58,2.1-.85s1.31-.52,2-.8L407,423.2c1.52-.66,3.05-1.33,4.59-2,.8-.33,1.61-.62,2.42-.91,1-.37,2.06-.75,3.07-1.18.8-.35,1.54-.75,2.26-1.14a17,17,0,0,1,2.33-1.13c1.74-.65,3.58-1.23,5.35-1.79,1.21-.38,2.42-.76,3.63-1.17a18.61,18.61,0,0,0,2-.82c.39-.18.79-.37,1.2-.53l2.71-1c1.36-.5,2.73-1,4.07-1.55,2.11-.86,4.2-1.76,6.3-2.65,1.48-.64,3-1.28,4.45-1.9.93-.39,1.87-.76,2.8-1.12,1.44-.57,2.93-1.16,4.4-1.82,2.93-1.32,5.84-2.69,8.74-4.06l3.87-1.81,2.74-1.27c1.88-.87,3.77-1.74,5.64-2.64,2.13-1,4.4-2.19,6.95-3.55l1.16-.61a54.67,54.67,0,0,0,5.11-2.91l.47.55,3.09-1.73c1.05-.58,2.05-1.13,3-1.72.68-.4,1.33-.84,2-1.28a20,20,0,0,1,3.64-2.09,19,19,0,0,0,2.94-1.57c.54-.33,1.08-.67,1.64-.95a47.5,47.5,0,0,0,8.33-5.05l.19.39,5.28-3.7q3.68-2.59,7.34-5.15l.82-.55A13.87,13.87,0,0,0,535.85,358.76Z"/><path d="M331.4,329.62a4.46,4.46,0,0,0,1.29,1.73,12.4,12.4,0,0,0,7.47,2.37,13.31,13.31,0,0,1,2.12.28c.66.11,1.32.23,2,.3h.38a5.83,5.83,0,0,0,1.89-.38l.23-.08a2.86,2.86,0,0,0,.68-.32c3.38-.17,5.79-2,7.94-3.63.42-.32.85-.65,1.28-.95s.88-.58,1.33-.86l.73-.45,1.7-1.07-.29-.66a6.67,6.67,0,0,0,.78-.83,3.89,3.89,0,0,1,.67-.53l.62-.47a4.81,4.81,0,0,0,1.64-3.89,2.53,2.53,0,0,0,1-.89c.16-.24.34-.47.52-.7a5.93,5.93,0,0,0,1.63-5.2,11.58,11.58,0,0,0,.81-7.78c-.08-.26-.17-.52-.28-.8a3.09,3.09,0,0,0,.12-1.63c-.45-2.32-4.13-4.81-6.37-4.81a3.38,3.38,0,0,0-.72.07,2.64,2.64,0,0,1-.49.08H360a6.46,6.46,0,0,0-4-1.32,5.12,5.12,0,0,0-.56,0,22.31,22.31,0,0,0-5.94,1.22,18.43,18.43,0,0,0-2.94,1.51,13.8,13.8,0,0,1-2.34,1.21,16.71,16.71,0,0,0-5.24,3.29l-.56.46-.51,0a5,5,0,0,0-1.71-1.88,7.55,7.55,0,0,0-1.94-.79c-.21-.06-.5-.15-.65-.21a4.71,4.71,0,0,0-3.61-1.54c-.27,0-.54,0-.81,0s-.49,0-.73,0a2.94,2.94,0,0,1-1.93-.57,10.41,10.41,0,0,0-6.48-2.11l-.65,0h-.46l-1.14,0c-.45,0-.89,0-1.36,0-3.72,0-8,.4-11.69,3.12l-1-.76-1.4,1.1-.71.54-.37.28a7.77,7.77,0,0,0-1.14-3.37,5,5,0,0,1,0-.81c0-1.21.17-2.53.36-4.14.06-.47.16-.94.26-1.4a12.85,12.85,0,0,0,.37-3.49,42.53,42.53,0,0,0-.82-5.1c-.16-.75-.32-1.54-.47-2.38L299,277.2l-4.15,3.88c-1.07,1-2,1.86-2.89,2.75a2.64,2.64,0,0,0-.69,2.36c-.11.61-.24,1.22-.38,1.83,0,.14-.08.28-.12.43s-.17.58-.24.87-.11.74-.15,1.12,0,.57,0,.6a10.75,10.75,0,0,0-1.24,7.49l-1.83.38.37,2.23c.05.29.11.57.17.84a5.63,5.63,0,0,1,.14.85c0,1.7,0,3.41-.1,5.13l-1.08-1.61c-.64-1-1.28-1.92-1.94-2.87a6.62,6.62,0,0,0-5.21-2.63,4.31,4.31,0,0,0-2.3.61c-1.27.8-2.52,1.63-3.79,2.46l-2.19,1.45-.53,0a15.42,15.42,0,0,0-3.23.41,2.62,2.62,0,0,0-1.7,1.29,3.75,3.75,0,0,0-.41,2.8c.19.64.44,1.27.69,1.9a11.79,11.79,0,0,1,.72,2.15,12.7,12.7,0,0,0,.55,1.93c.4,1.15.54,1.67.31,2.15a3.08,3.08,0,0,0-.08,2.26,34.24,34.24,0,0,1,1.05,8.73,5.48,5.48,0,0,0,1.37,3.91c0,.19,0,.44,0,.62a11.34,11.34,0,0,0,.08,1.67,4,4,0,0,0,1.21,2.74,3.76,3.76,0,0,0-.14,3.07,4.22,4.22,0,0,0,2.85,2.29c1,.31,2,.59,3,.88l3.4,1,.83-1.89c.12-.28.26-.54.4-.8a7.71,7.71,0,0,0,1-2.84,58,58,0,0,0,0-8.44c-.1-1.89-.19-3.7-.15-5.5.7,1.9,1.4,3.83,2,5.74.78,2.49,1.48,5.27,2.21,8.75,0,.19.06.37.08.55a4.9,4.9,0,0,0,1.67,3.46c0,.08,0,.17,0,.25a8.24,8.24,0,0,0,.39,1.56c.19.48.42.94.65,1.41s.33.64.46,1v.16a3.3,3.3,0,0,0,1,2.59,5.37,5.37,0,0,0,3.48,1.27h.08c1.38,0,2.73-.16,4-.29l1.11-.11a3.34,3.34,0,0,0,3.23-4.6,21.24,21.24,0,0,1-.66-4.81c0-.62,0-1.24,0-1.86a15.49,15.49,0,0,0-1-7,.71.71,0,0,1,0-.21,74.9,74.9,0,0,0-.89-10.79,30.82,30.82,0,0,1-.21-6l0-1.53c0-1.85.12-3.74.23-5.59a4.38,4.38,0,0,0,1.71.39h.18c.23,0,.29,0,.54.34a5,5,0,0,0,2.49,1.87v3.14c0,4.2-.05,8.55.08,12.84A18.28,18.28,0,0,0,306,332a19.77,19.77,0,0,1,.45,2.3,5.09,5.09,0,0,0,5,4.73,5.36,5.36,0,0,0,2.41-.59l1.19-.62a14.65,14.65,0,0,1,2.39-1.12,12.82,12.82,0,0,0,5.77-3.15,7.76,7.76,0,0,0,4.29-1.94c.23-.18.45-.35.68-.51l.77-.56a5.76,5.76,0,0,1,1.75-1A3.79,3.79,0,0,1,331.4,329.62Zm-2.52-13.22a9.81,9.81,0,0,0-.37,2c-.07,1.32-.33,1.73-1.39,2.19a27.29,27.29,0,0,0-4.27,2.45c-1,.62-1.84,1.2-2.76,1.68a15.52,15.52,0,0,0-2.35,1.59,10.36,10.36,0,0,1-2,1.29c0-2,0-4.07-.06-6.11l0-2.92c0-.74,0-1.49,0-2.23,0-1.78,0-3.62-.11-5.45-.08-1.44-.27-2.82-.47-4.27v0l1,.13c.46.07.92.14,1.37.17a21.05,21.05,0,0,1,3.94.83l1.4.38a9.33,9.33,0,0,1,1.39.54l1.55.67a33.43,33.43,0,0,1,3.17,1.47,20.67,20.67,0,0,1,2.17,1.4,6.79,6.79,0,0,0-2,3.51C329,315.91,329,316.16,328.88,316.4ZM343,321.53l.11-.06a3.94,3.94,0,0,0,1.51-1.3,27,27,0,0,0,1.43-2.61l.37-.74a2.61,2.61,0,0,0,.06-2.18l-.49-1.7h-2.19c-.14-.82.09-1.47,1.77-2.24,1-.44,1.88-.91,2.81-1.39s1.55-.8,2.34-1.17c.37-.17.73-.37,1.1-.57a4.11,4.11,0,0,1,1.54-.65.86.86,0,0,1,.34.08l.56.2h.47a3.36,3.36,0,0,0,1.28-.28l.7.52c1.56,1.14,2,1.57,2,2.49,0,1.08,0,2.16,0,3.25v.71l-.26.42c-.21.34-.41.68-.61,1a6.45,6.45,0,0,0-.29.59l-.06.11c-.15.17-.32.33-.49.49a9.86,9.86,0,0,0-1.23,1.31,20.78,20.78,0,0,0-1.2,1.86,6.42,6.42,0,0,1-2,2.44,20.16,20.16,0,0,0-1.77,1.18,7.88,7.88,0,0,1-2.29,1.32,12.17,12.17,0,0,1-2.9.52,2.83,2.83,0,0,1-1.76-.53,3.53,3.53,0,0,0-2.13-.6h-.27a2.68,2.68,0,0,1-.44-.32,17.27,17.27,0,0,1,1.33-1.46Z"/><path d="M621.15,376.79l.54-1-.32-1a11.11,11.11,0,0,0-1.18-2.34c-.12-.2-.25-.4-.36-.61l-1.17-2L616.55,371a4.09,4.09,0,0,0-.23-.47,8.46,8.46,0,0,0-1.42-1.84v-1.83c0-.83,0-1.67,0-2.5a11.49,11.49,0,0,1,.32-1.84l.06-.3c.16-.71.33-1.42.51-2.12.12-.52.25-1,.37-1.56.27-1.17,1.2-5.25,1.2-5.25a5.57,5.57,0,0,0,1.71-2.63,2.72,2.72,0,0,1,.24-.58l.5-.84,1.6.66s-.84-4.63-.88-4.84l1.88-.61-.54-2.13-.28-1.17a3.54,3.54,0,0,0,1.85-1.4c.36-.56.67-1.16,1-1.85l.43-.81,3.59-6.7-6.75,3.51a9.77,9.77,0,0,0-.86.51c-.12.07-.23.15-.34.2a4.73,4.73,0,0,0-4.29,3.82,1.82,1.82,0,0,1-.31.67c-3.4,4-5.31,8.68-7.13,13.56a5.64,5.64,0,0,1-1.71,2.77,7,7,0,0,0-2,2.09l-2.46,2c0-.1-.07-.21-.11-.31a9,9,0,0,1,.26-.91,5.46,5.46,0,0,1,.4-.7c.17-.27.36-.57.57-.93l2.41-4.17-3.43.48.45-1.06-1.77-2.44a5.11,5.11,0,0,0,.81-4,6.28,6.28,0,0,1-.07-.89l0-.45,1.68.35-.79-1.18,1.66-1-2-1.18a3.75,3.75,0,0,0,.44-1,4.22,4.22,0,0,0-.63-3.11l.93-7.36-.61-.3-1.31-9.49-3.29,3.59c-.66.11-1.33.22-2,.37A3.51,3.51,0,0,0,594.5,325l-.92,1.19.45,1.32a3.24,3.24,0,0,0,.39.74l-.61,1.69a1.83,1.83,0,0,1-.07-.6,1.88,1.88,0,0,1,.42-1.08,4.56,4.56,0,0,0-2.33,4.7,1.54,1.54,0,0,1,0,.3c0,.3-.08.6-.09.9,0,.81-.1,1.63-.17,2.45-.24,2.63-.51,5.6.82,8.57,0,.08,0,.17-.05.27a3.76,3.76,0,0,0,0,1.55c.38,2,.77,4,1.16,6,.53,2.72,1.07,5.44,1.58,8.17l.3,1.57c.18.92.35,1.81.5,2.69l-2.25,1.21c-.3-1.14-.62-2.3-1-3.6l-.32-1.14,1-1.86-1.28.64-.84-3.07.15-1.39-.48.18-.31-1.12-.75,1.52-1,.37-.26-.45.51-1.59-1.55-.25a5.84,5.84,0,0,0-5.2-2.55,10.65,10.65,0,0,0-1.65.15l-.34-.4-1.08.67-.92.17,0,.37-3.66,2.25L573.51,353l-1.62,4.51-.07,0a5.21,5.21,0,0,0-1.38-.22,3,3,0,0,0-2.23,1c-.94,1.06-.87,2.44-.7,4l.16,1.43-4.7-3.18L566.2,367l-1.47,1.54h0l-2.62,2.77-.78-2.08-.54.36-2.69-12.78a4.91,4.91,0,0,0,3.49-1.76l1.67-1.84-3.85-3.12-.47-2.59L556,349.26a6.1,6.1,0,0,0-.59.4,3.77,3.77,0,0,0-2.42,1l-.88-1.58s-2.86,3.21-3.13,3.5l-.84.18H547l-.15.24a8.75,8.75,0,0,0-1.63.43,6,6,0,0,0-2.55,1.71,2.58,2.58,0,0,0-.58,1.38,6.5,6.5,0,0,0-2.71,2.18l-.83.19-5.37,5.69,2.66,1-.18.29c-.05.08-.13.17-.2.26a3.19,3.19,0,0,0-.79,3.23,11.28,11.28,0,0,0,.59,1.27l-.61.62a2.76,2.76,0,0,0-.69,2.3c.06.66.52,4.84.52,4.84h.72l.08.19.54,1.21c.37.82.72,1.61,1,2.38.78,2.3,2.38,2.55,3,2.55h0l1.25,1.67,1.81-1.42.28.42,1.3-.86a2.76,2.76,0,0,0,1.54.45,3.62,3.62,0,0,0,.55,0h7.25l-2.22-1.6a36.37,36.37,0,0,0,2.94-2.65,4.58,4.58,0,0,0,1.06-1.89l.11-.3.65-1.48.16.23c.24.35.48.67.7,1a5.64,5.64,0,0,1,.62.92,4.71,4.71,0,0,1,.11,1.13c0,.32,0,.65.06,1l.5,5.48,1.84-2.12a6.53,6.53,0,0,0,1.87,1.15l2.89,1.23s.52-4.49.56-4.87a5.42,5.42,0,0,0-1-3.45,2.82,2.82,0,0,1-.39-.81,13.07,13.07,0,0,0-1.34-4.33c-.22-.47-.43-1-.62-1.45l-.26-.69,4.57.58.3,0L567,373a3.46,3.46,0,0,0,.81,2.64h-.39v.67l-.53.78.53.3v.82c0,.63,0,1.26,0,1.89a2.39,2.39,0,0,0,2.5,2.28l2.79.28-.06-2.36,2.9,3.5,2.75-16.21a2.51,2.51,0,0,0,.19-.24,3.79,3.79,0,0,0,.23-3.53l.14-.31,2.75,2.3.17-.75a5.38,5.38,0,0,0,.83.82l.35.28a4.66,4.66,0,0,0-.87,5c.3.66.54,1.36.78,2s.42,1.22.66,1.82l.12.31a5.7,5.7,0,0,0,1.47,2.41l-1.16,1,1.29,1.73.2.25c0,.23,0,.47-.07.72s-.05.54-.07.81a7.52,7.52,0,0,0,1.34,5.3l-1.27,1.4,2.33-.31a4.66,4.66,0,0,0,.49.39l.87.6v2.21l1.53-1.67,3.44.49,1.22-5.06.6.08,1-8.58L595,377l-.07-1.06a5.81,5.81,0,0,1,.05-.72,4.92,4.92,0,0,0-.7-3.59l1.82-4.09c0,.48.1,1,.13,1.45a10.31,10.31,0,0,0,.63,2.74c.39,1.17.51,1.66.28,2.13a3.06,3.06,0,0,0,0,2.61c.91,2,1.83,4.07,2.79,6.17l2.24,4.94,2.14-2.36.69,1.53,5.14-7.3c.62.11,1.17.19,1.73.24l.32,0a5.49,5.49,0,0,0,1.41-.22l.29-.07.38-.07-.12.32,4.13-.92A4.77,4.77,0,0,0,621.15,376.79Zm-75.73-1.94a4.83,4.83,0,0,1-.62-.09c0-.06,0-.14,0-.25l-.07-.63a22.79,22.79,0,0,1-.17-4.54c.22-2.21.6-4.46,1-6.64.07-.43.15-.86.22-1.28a4.72,4.72,0,0,0,2.64-2.4l.9-.28c.81-.25,1.59-.49,2.37-.69a4.28,4.28,0,0,0,0,1.24,4.82,4.82,0,0,0-1,3.88,6.08,6.08,0,0,1-.05,1.24q-.06.58-.09,1.17a4.06,4.06,0,0,0,0,.67l-1.11.12.65,3.09-.11-.06-.84,2.8a8.73,8.73,0,0,0-.23,1s0,.05,0,.08l-.24.17c-1.21.85-2,1.38-2.91,1.38Zm10.17,1,.27-.35a1.92,1.92,0,0,0,.14.15l-.16.34Z"/><path d="M646.66,366.4,644,362.57l-.66,2a2.41,2.41,0,0,0-.53-1.06,2.59,2.59,0,0,0-1.91-.94l-1.11-2.67-2.37,1.55a2.61,2.61,0,0,1-1.29.55s-.1,0-.25-.3l-.73-1.19.55-.62-.82.18-.22-.36-1,.63-.38.09L632,358.57l-1.87,1.51-.74-1.76a4,4,0,0,0,.54-.73l.58.62.35-.65.58.43,4.77-6.24-1.29-1,1.54-2.15-4.27-.23-.39,0a7.73,7.73,0,0,0-1-.06,4.53,4.53,0,0,0-.74.05,5.19,5.19,0,0,0-2.51,1.06,19,19,0,0,1-2.29,1.54,16,16,0,0,0-4.23,3.3c-.33.38-.68.74-1,1.1s-.61.64-.91,1a12.2,12.2,0,0,0-3,7l-.15,1.39,2.53,1.72,1.23.83-.49.45,1.1,0,.6.42a5.05,5.05,0,0,0,1.92.91l-.25,4.24,3.34-3,2.29-1a3.41,3.41,0,0,0,2.61,1.56l0,.43,1.91.33-1.34,3.61,4.26-2.26,0,.44,1.1.61.17.42a13.1,13.1,0,0,1,1,3.22,12.08,12.08,0,0,1-.67,5.05,42.35,42.35,0,0,1-4.18,8.53c-.58.94-1,1.32-1.64,1.53a4.67,4.67,0,0,0-3.37,2.95,9.15,9.15,0,0,1-2,.94l-2-.46-3.16-.75-.6,2.2c0,.13-.06.26-.1.46a3.24,3.24,0,0,0-.57,3.12,2.65,2.65,0,0,0,1.22,1.34,3.71,3.71,0,0,0,1.67,2.91,5.22,5.22,0,0,0,3,1.1H626l.15,0a9.52,9.52,0,0,0,2.64-.85l.46-.2a11.75,11.75,0,0,0,4.52-3.83l.46-.58.21-.07a4,4,0,0,0,1.9-1.16c.4-.47.82-.93,1.24-1.39a19.64,19.64,0,0,0,3.76-5.21,6.49,6.49,0,0,0,2.83-4.43l.08-.29c.08-.31.15-.7.21-1.09a.51.51,0,0,0,0-.13,3.29,3.29,0,0,0,1.3-1.4,3.38,3.38,0,0,0,.23-2.25,9.94,9.94,0,0,0,1.91-7.2,4.44,4.44,0,0,0,.94-1.57C649.77,372.24,648.25,368.66,646.66,366.4Z"/></svg>