<svg id="Layer_1" data-name="Layer 1" fill="white" xmlns="http://www.w3.org/2000/svg" viewBox="0 0 841.89 595.28"><path d="M492.41,152.21c-.12.62-.23,1.25-.37,1.87a1.69,1.69,0,0,0,1.12,2.28,6.68,6.68,0,0,1,1.53,1.22c-1.33.63-2.71.91-3.47,1.76s-.83,2.2-1.24,3.33a20,20,0,0,1-2.1,4.66,46.64,46.64,0,0,0-3.5,7.17,24.07,24.07,0,0,1-1,2.74,9.28,9.28,0,0,0-1.5,4.84,3.31,3.31,0,0,1-.5,1.62c-1.46,2.23-1.91,4.8-2.53,7.31a5,5,0,0,1-.29.85c-.4.87-.84,1.72-1.2,2.6-.74,1.85-1.44,3.72-2.21,5.73l.63.66-2.72,5.5-1.34.25a8.27,8.27,0,0,1,.59,1.93c.05,1.22.06,2.49-1.25,3.2-.88.48-1.41,1.08-1,2.18a1.17,1.17,0,0,1-.2.91c-1.37,1.88-1.86,4.1-2.53,6.25a10.76,10.76,0,0,1-.8,1.49c-.79,1.59-1.55,3.2-2.37,4.78a10.74,10.74,0,0,1-1.9,3.21A5,5,0,0,0,461,233c-.32.87.25,2-.88,2.66-.12.07-.12.67,0,.81.66.66.07,1-.28,1.43-.83,1-1.67,1.9-2.6,3l1.57,1.07c-.42.67-.83,1.33-1.27,2s-1.28,1.37-1.49,2.17c-.56,2.06-2.08,3.88-1.44,6.27a2.72,2.72,0,0,1-.75,2.16c-2.26,2.21-1.83,5.35-2.89,8-.93,2.29-1.05,4.85-2.41,7a1.86,1.86,0,0,0-.28,1.41c.62,1.78-.4,3.33-.62,5a5.9,5.9,0,0,1-1,1.95c-.16.28-.65.52-.62.72.38,2.58-1.73,4.49-1.8,7a16.33,16.33,0,0,1-.49,2.82c-.27,1.38-.57,2.75-.84,4.07a22.62,22.62,0,0,0,4.16-.49,8.28,8.28,0,0,0,3.08-1.81,5.75,5.75,0,0,1,3.43-1.67,10,10,0,0,0,4.95-2.37c1.49-1.19,2.87-2.71,4.58-3.4,3.93-1.6,7.24-4.23,11-6.15a24.78,24.78,0,0,1,6.64-2.62,2,2,0,0,0,1.21-.73c1-1.59,2.64-2,4.39-2.18l.68-1.64,1.68.19c1.36-1.23,2.53-2.37,3.78-3.4,1.55-1.29,2.27-1.28,3.89-.08.86.64,2.06.88,2.42,2.17.08.28.83.44,1.3.55,2.8.65,5.6,1.27,8.62,1.94l.81-1.13a3.55,3.55,0,0,1,.64.36c1.17,1.17,1.38,1.17,2.5.25a2.34,2.34,0,0,1,1.4-.64,12.58,12.58,0,0,0,6.43-1.29c.59.28,1.11.76,1.6.72,1.78-.11,3.54-.55,5.31-.55.93,0,1.87.38,2.87.42a6.9,6.9,0,0,0,4.15-1,2.66,2.66,0,0,1,3-.22,1.82,1.82,0,0,0,2.89-1.08,26.06,26.06,0,0,0,1.07-4.24c.36-1.66.63-3.35,1-5,.65-2.84,1.32-5.68,2-8.51a18.76,18.76,0,0,1,.73-2c1.84-5,2.77-10.19,4.44-15.2,1.51-4.55,2.7-9.19,4.59-13.63,1.55-3.64,2.64-7.48,4-11.2.87-2.36,1.86-4.67,2.81-7,1.65-4.06,3.25-8.14,5-12.16,1.27-2.95,2.71-5.83,4.09-8.74,1.54-3.24,3.08-6.47,4.65-9.69.86-1.75,1.85-3.44,2.67-5.2,1.79-3.81,3.77-7.55,5.18-11.5,1.51-4.19,3.57-8.18,4.33-12.66.5-3,1.5-5.83,2.19-8.76.49-2,.81-4.13,1.25-6.18a5.1,5.1,0,0,1,.67-1.17c1.11,1.06,1,2.33,1.12,3.49a14.69,14.69,0,0,1,.2,3.37c-.1,1-.57,2-.66,3a22.59,22.59,0,0,1-.22,4.37c-.38,1.59-1.18,3-1.32,4.76-.07.94-1,1.81-1.61,2.76,1.18,1.46.28,2.95-.27,4.22-2.43,5.62-3.89,11.55-5.66,17.38a2.23,2.23,0,0,1-.36.89c-1.64,1.69-2,4.13-3.33,5.92-1.83,2.42-1.94,5.64-4,7.9,0,2.91-1.87,5.1-3,7.56-.62,1.32-1.46,2.56-2,3.92a41.61,41.61,0,0,1-3.72,8.44c-1.41,2.2-2,4.93-3,7.43q-1.51,4-3,8c-1,2.71-2,5.45-3,8.16-.72,1.89-1.52,3.75-2.28,5.62a7.82,7.82,0,0,0-.36.91c-.7,2.49-1.27,5-2.12,7.47a41.77,41.77,0,0,0-1.36,5.78,8,8,0,0,1-1,2c-.75,1.43-1.51,2.86-2.24,4.3-.11.21-.25.55-.16.7,1.39,2.24-.88,4-.86,6.07,0,1.6-.81,3.22-1.31,4.81-.33,1.05-.74,2.06-1.3,3.62.24,1.35,1.84,2.09,3.44,2.6a3.78,3.78,0,0,1,2.83,3.31c.33,3.24.35,6.65-.85,9.6-1.28,3.13-1.5,6.4-2.37,9.56-.19.72-.23,1.49.84,1.71.18,0,.24.55.38.82a3.15,3.15,0,0,0,.6.86c.22.18.84.18.85.29.12,2,2.06,1.81,3.19,2.38a53.3,53.3,0,0,0,6.26,2.24c1-1.79,2.88-1.2,4.36-.94,2.51.44,4.67-.35,6.9-1.14.37-.14.75-.24,1.4-.44.19,1,.34,1.8.49,2.6-1,1.43-1.95,2.48-3.85,1.81-.44-.15-1.07.37-1.62.41s-1.24,0-1.51-.31a1.82,1.82,0,0,0-2.41-.39,17.38,17.38,0,0,1-6.87.18,2.86,2.86,0,0,0-1.45,0c-1.35.44-2.53.54-3.58-.69-.22-.26-.92-.18-1.39-.14-2,.16-2.08.14-3-1.67a8.1,8.1,0,0,0-1.15-1.87,8.14,8.14,0,0,1-1.89-5.68,25.64,25.64,0,0,1,1.88-10.2c.76-1.9,1.15-4.14-.22-6.12-.81-1.17-1.77-1.4-2.67-.66a1.27,1.27,0,0,0-.52.76c-.1,3.12-1.54,6-1.5,9.19a11.28,11.28,0,0,1-1,3.52c-.67,1.89-2,3.67-.78,5.81-1.14,1.35-.33,3.26-1.33,4.66a3.21,3.21,0,0,0-.71,1.49c-.2,3.51-1.6,6.75-2.51,10.07a29.77,29.77,0,0,0-1.09,6.4A7.05,7.05,0,0,1,532,320a3,3,0,0,0-.68,2.18c.13,3.32-.93,6.41-1.9,9.52-.91,2.93-1.84,5.86-2.72,8.8a12,12,0,0,0-.69,3.08,13.83,13.83,0,0,1-1.83,6,16.14,16.14,0,0,0-.64,1.85,16.54,16.54,0,0,1-1.38,3.62,18.06,18.06,0,0,0-2.31,6.23,7.84,7.84,0,0,1-1,2.75c-1.51,2.08-1.65,4.54-2.18,6.89a2.54,2.54,0,0,0-.05,1.19,2.74,2.74,0,0,1-.9,2.9,3.61,3.61,0,0,0-1.17,3.09,3.67,3.67,0,0,1-.15,1.69,56.63,56.63,0,0,0-2.71,8.52c-.15.55-.31,1.09-.43,1.65a31.62,31.62,0,0,1-1.15,5c-1,2.44-1.29,5-2,7.5-.72,2.7-.52,5.69-2.26,8.13-.28.39-.14,1.09-.18,1.65a8.7,8.7,0,0,1-.07,1.45c-1,3.66-1.13,7.49-2.41,11.12-.71,2-.62,4.28-1,6.42-.55,3.2-1.48,6.36-1.68,9.58-.13,2.14-1.54,4.18-.61,6.41a1.1,1.1,0,0,1-.06.73c-1.66,4.44-1.2,9.2-2,13.78-.62,3.74-.6,7.58-.88,11.38a4.85,4.85,0,0,1-.29,1.18c-.9,2.65-.75,5.42-1,8.15-.12,1.63-.25,3.27-.43,4.9-.36,3.3-.81,6.59-1.14,9.89s-.65,6.47-.79,9.71c-.16,3.9,0,7.8-.19,11.7a40.19,40.19,0,0,1-1.12,7.71,12.89,12.89,0,0,1-.54-2.49c-.15-5.79-.43-11.6-.29-17.39s.77-11.4,1.14-17.11c.22-3.32.28-6.66.54-10,.3-3.83.73-7.65,1.1-11.47.49-5.1.87-10.22,1.48-15.31.7-5.9,1.59-11.79,2.42-17.69.34-2.42.75-4.84,1.13-7.27,0-.08.06-.16.05-.24-.51-6.5,2.34-12.42,3.23-18.68.4-2.8.88-5.61,1.47-8.38.68-3.19,1.45-6.37,2.31-9.52,1.37-5,2.84-10.05,4.28-15.07,1-3.44,1.68-7,3.13-10.23,1.06-2.34,1.27-4.82,2.19-7.15s1.26-4.88,2-7.28c1-3,2.11-6,3.09-9,1.15-3.56,2.17-7.16,3.3-10.73,1.26-4,2.58-7.93,3.88-11.89a54.7,54.7,0,0,0,2.49-10.4,3.35,3.35,0,0,1,.2-1c1.94-4.82,2.31-10,3.72-15,1.21-4.23,1.93-8.6,3.07-12.85a20.46,20.46,0,0,0,1-5.21c0-2-.31-2.64-2.29-3-.81-.13-1.67,0-2.44-.17a7.25,7.25,0,0,1-1.76-1.16c-.51,1.16-1.11,1.47-2.39.78s-2.75-.7-4.33-1.06l-.21,1.27c-1.76.52-3.56,1.41-5.66.48a1.87,1.87,0,0,0-1.71.59c-.59,1.17-1.48,1-2.48,1.05-2.08.17-4.17.91-6.22.78s-4.14.14-6.2.14c-.64,0-1.27.09-1.9.07a11.87,11.87,0,0,1-1.88-.2c-.3,0-.65-.49-.82-.41-3.58,1.57-4.92-1.29-6.88-3.55a12.52,12.52,0,0,0-2.78,1.69,7.28,7.28,0,0,1-6,2.14,2.93,2.93,0,0,0-.71.12c-.06,0-.1.12-.39.45l2,1.15a5.94,5.94,0,0,1-1.5,1.1,6.83,6.83,0,0,1-2,0L478.91,279c-.24-.69-.38-1.1-.6-1.72-.74.54-2.25.05-1.83,1.83-1.06.88-2.08,1.8-3.18,2.63-.91.68-1.91,1.24-2.86,1.86-.33.22-.77.76-.94.68-1.76-.79-2.17.93-3.13,1.59-1.39,1-2.74,2-4.2,2.82-.38.22-1.28-.38-1.59-.14-.95.74-2.26.5-3.18,1.57a3.67,3.67,0,0,1-3.39,1.64.76.76,0,0,0-.64.26c-1.27,2.17-3.87,2.31-5.67,3.75-1.51,1.21-3.47,1.93-5.14,3.06-2.38,1.6-4.53,5.59-3.52,8.91a3.21,3.21,0,0,1,.09,1.68c-.44,1.7-1,3.37-1.48,5.07a67.77,67.77,0,0,0-1.76,7.08,21.21,21.21,0,0,1-1.66,5.72,6.66,6.66,0,0,0,0,2.68c0,.23.21.57.11.69a4.8,4.8,0,0,0-.78,4.33c0,.13-.08.31-.16.45-1.56,2.92-1.09,6.18-1.54,9.29-.25,1.74-1.24,3.37-.7,5.24a1.38,1.38,0,0,1-.47,1.08c-1.17,1.09-1.06,2.64-1,3.89a6.61,6.61,0,0,1-.63,2.7,18.25,18.25,0,0,0-.59,2.58,32.78,32.78,0,0,1-.71,3.3,22.61,22.61,0,0,0-1,5.9,57.12,57.12,0,0,1-1.44,7.35c-.49,2.53-.94,5.08-1.39,7.61-.11.62-.07,1.28-.23,1.88-1,3.58-1.3,7.29-2.05,10.91-.52,2.49-.87,5-1.26,7.51a3.42,3.42,0,0,0,0,1.46,3.75,3.75,0,0,1-.63,3.88,1.84,1.84,0,0,0,.06,1.79,3.25,3.25,0,0,1,.63,3c-.18,1.4-.65,2.88,1.35,3.63.74.28.63,1.23-.05,1.81-1-.16-1.89-.29-2.82-.46a2.43,2.43,0,0,1-1.86-2.59c-.1-3.48-.65-7,.51-10.44.57-1.69.08-3.7.3-5.54a80.22,80.22,0,0,1,1.2-9.09c.79-3.39,1.11-6.89,1.68-10.33.11-.72.46-1.41.57-2.13.36-2.49.59-5,1-7.48.31-1.82.15-3.79,1.38-5.39a1.19,1.19,0,0,0,.19-.7c-.07-4.88,1.6-9.45,2.56-14.14.75-3.67,2-7.29,2.25-11s1.28-7.12,1.27-10.81c0-2.8.87-5.62,1.46-8.41,1.13-5.27,2.35-10.52,3.5-15.78.17-.79.05-1.64.27-2.41.4-1.41.77-2.54-1.07-3.41-1-.46-1.29-1.72-.71-3,.73-1.63,1.2-3.37,1.81-5.06a5.44,5.44,0,0,0-1-5.49,9.88,9.88,0,0,1-.76-1.21c-.21-.35-.29-.87-.59-1.05C430.94,283.1,429,282,427,280.9c-.27-.15-.74-.29-.95-.16-1.81,1.12-3.41-.14-5.1-.36a36.83,36.83,0,0,0-6.11-.4c-1.41,0-2.74-.79-4.25-.06-.51.25-1.55-.56-2-.76-1.56.35-3,.59-4.3,1a48,48,0,0,0-5.2,1.86,29.78,29.78,0,0,0-5.81,3.86c-1.51,1.13-2.68,2.41-2.28,4.43-1.51,1.18-2.86,2.35-4.91,2.06-1.62-.23-3.39,1.41-5.25-.94-.85.89-1.57,1.63-2.44,2.55l-3.52-2.36c.42-3.13,3-4.21,5.08-5.83a19,19,0,0,0,1.43-1.42c-3.56-1.26-6.76-2.38-9.95-3.54-.87-.32-1.7-.77-2.56-1.12a13.76,13.76,0,0,0-8.28-1,2.84,2.84,0,0,1-1.85-.39,9.82,9.82,0,0,0-5.44-1.61c-.67,0-1.37-.71-2.06-1.1l2.6-1.75c-1.88-.59-2.21.6-2.53,1.81l-1.26.13-.28-1.37a11,11,0,0,0-2.65,1.21c-1,.81-2.52,1.23-2.37,3.07,0,.57-1,1.22-1,1.8.07,1.53-2,2.14-1.31,4.12.41,1.19-.84,2.88-1,4.39a33.74,33.74,0,0,0-.05,4.62c-1.43.77-1.3.74-.82,2.63a3.24,3.24,0,0,1-.63,2.45,8.48,8.48,0,0,0-1.7,4.42,42.38,42.38,0,0,1-1.28,4.76c-.93,3.69-1.8,7.39-2.7,11.08-.07.3-.07.77-.25.86-1.5.77-.29,1.6,0,2.59l-1.19.53c-.26,4.12-.11,8.18-2,12.15-1.23,2.64-1.24,5.85-1.84,8.8-.33,1.63-.81,3.24-1.12,4.87-.73,3.83-1.35,7.68-2.08,11.51a43.94,43.94,0,0,1-1.43,6.15c-.45,1.32-1.38,2.45-.76,4,.09.23-.36.68-.55,1a2.87,2.87,0,0,0-.47,2.72,3,3,0,0,1-.38,2.33c-.84,1.27-.75,2.63-.89,4s-.36,2.92-.65,4.36a42.78,42.78,0,0,1-1.25,5.14c-.67,2-.24,4.15-.7,6.17-.29,1.25-.67,2.47-.92,3.72-.57,2.78-1.16,5.55-1.59,8.34-.48,3.12-.78,6.26-1.15,9.39,0,.33,0,.72-.13,1-1,1.61-.94,3.44-1.07,5.22a26.34,26.34,0,0,1-1.76,7.56,30.41,30.41,0,0,0-1,4.51c-.23,1.09-.42,2.19-.68,3.28-.67,2.92-1.38,5.83-2,8.75-.38,1.67-.35,1.67-1.91,3.2-1-.13-.85-.83-.74-1.48.67-3.86,1.32-7.72,2.05-11.57.67-3.47,1.44-6.93,2.12-10.41.34-1.73.56-3.49.87-5.23.39-2.23.88-4.45,1.22-6.68.48-3.07.84-6.15,1.3-9.22.68-4.48,1.29-9,2.17-13.42a12.68,12.68,0,0,0,.58-4.5,3.38,3.38,0,0,1,.29-1.67c1.6-4,1.41-8.32,2.38-12.44.79-3.33,1.31-6.72,1.92-10.09.29-1.6.15-3.39.82-4.81,1-2.22.94-4.62,1.68-6.87.89-2.69,2-5.48,2-8.24,0-3,1.23-5.75,1.42-8.7.1-1.54,1-3,1.37-4.57s.69-3.15,1-4.74a24.86,24.86,0,0,1,.55-3.59,68.37,68.37,0,0,0,1.84-8.47c.51-2.46.92-4.94,1.48-7.39s1.21-4.7,1.81-7.05c.12-.47.15-.95.23-1.42a13.26,13.26,0,0,1,1.37-4.35c1-1.85,1.21-4.14,1.74-6.24.23-.94.31-1.94.62-2.85.92-2.78,1-5.77,2.23-8.48a4.47,4.47,0,0,0,0-1.68c-1.81-1.26-3.7.17-5.6-.24-1.67-.35-3.58.42-5.25.68-.46-.59-.76-1-1.15-1.49-1,.48-2.47.68-3.09,1.5-1.67,2.17-4,1.75-6.16,2-.29,0-.66-.84-.91-1.18-1.49.54-3.12-.07-3.69,2.13l-1.14-2.11a2.54,2.54,0,0,0-.47,0,23.32,23.32,0,0,1-3.54.84,3,3,0,0,0-2.87,2.18c-.55,1.42-.89,2.62.49,3.72.61.49,1.38.86,1.13,1.95a1.41,1.41,0,0,0,.68,1.21c1.6.55.36,2.23,1.39,3.14.73.64,1.82,1.33,1.69,2.72a8.91,8.91,0,0,0,.56,2.32c2.21.69,1.94,3.43,3.07,5.31-.72,1.15.85,1.57.81,2.61a33.19,33.19,0,0,0,.25,5.08c.16,1.45.49,2.87.74,4.3a7,7,0,0,1,.24,1.68c-.12,1.69-.32,3.37-.5,5.26l-1.36.55.65,1.15a2.88,2.88,0,0,1,.32,3,9.17,9.17,0,0,0-.8,3.06c-.4,3.54-2,6.61-3.74,9.6a42.35,42.35,0,0,1-3.81,5.83,6.8,6.8,0,0,1-4.35,2.7,10.6,10.6,0,0,0-4.67,1.95c-2.05,1.52-4.5,1.25-6.68,2.05-.37.13-.85,0-1.22.09-3.69,1.31-7.29.54-10.54-1.07a46.66,46.66,0,0,0-7-2.61,2.69,2.69,0,0,1-.67-.3,43,43,0,0,0-6.73-3.75c-.37-.17-.53-.77-.86-1.28a2.74,2.74,0,0,1-3.11-.56c-.55-.49-1.61-.4-2.8-.65a37.77,37.77,0,0,1-3.4-4.26,13.37,13.37,0,0,1-1.64-4.43c-.74-3.92-1.32-7.93-.38-11.86.59-2.48.79-5.06,1.65-7.45a47.58,47.58,0,0,1,3.24-6.85,15.75,15.75,0,0,1,3-3.94c1.37-1.31,2.11-3.25,3.4-4.66a72,72,0,0,1,6.17-5.8,65.66,65.66,0,0,1,5.48-4,7.52,7.52,0,0,1,1.88-.63,2.67,2.67,0,0,1,1.76-2.21,19.88,19.88,0,0,0,4.47-3c1.43-1.22,3.47-1.18,4.79-2.57.13-.14.63,0,.93.09,1.93.64,3.21-.58,4.54-1.58.94-.71.95-1.4.12-2.29-.38-.41-.88-.7-1.3-1.08-1.09-1-1.08-1-.94-2.83h-1.46c-.38-.91,0-2.15-1.34-2.74-.67-.29-.23-1.71.65-2.47-1.53-1.18-3.23-2.2-3.73-4.28-.05-.22-.41-.47-.36-.6.88-2.21-.74-3.36-1.83-4.87-2-2.71-4.2-5.24-5.58-8.35a11.15,11.15,0,0,0-1.24-1.78c-.37-.5-.75-1-1.1-1.51-.23-.33-.35-.91-.64-1-1.82-.59-2.33-2.43-3.54-3.58-1.88-1.78-3.54-3.78-5.33-5.66a1.71,1.71,0,0,0-1-.5c-.7,0-1.06-.3-1.12-1,0-.16-.07-.44-.14-.45-1.72-.23-2.61-1.68-3.9-2.54a34.91,34.91,0,0,0-5.68-2.62,13.76,13.76,0,0,0-1.93-.5c-.29,2.08-.72,4-.8,6a39.16,39.16,0,0,1-.7,7,29.26,29.26,0,0,0-.44,5c-.07,1.39-.63,2.68-.52,4.16.06.82-1.14,1.73-1.9,2.78.12,2.14.44,4.64.36,7.13-.1,3.15-.52,6.28-.82,9.43a7.22,7.22,0,0,1-.31,1.42c-.38,1.36-1,2.65-.49,4.17a5.54,5.54,0,0,1-.19,2.18c-.21,1.68-.43,3.36-.66,5.13l-1.52-.65c-.08,1.86,1.52,3.29.75,5.09-.63,1.49-.14,3.37-1.29,4.79l-.71-.87c-.21.34-.44.53-.44.73a11.11,11.11,0,0,1-3.45,7.79c-.12.11-.18.31-.31.37a4.33,4.33,0,0,0-2.46,2.47c-.75,2-3.59,2.78-3.64,5.39a18.23,18.23,0,0,1-3.76,2,4.15,4.15,0,0,0-2.61,2c-1.73,2.84-4.07,5.29-5.23,8.51-.2.54-1.19.75-1.68,1.24s-.76,1.26-1.27,1.77c-2.39,2.41-4.18,5.42-7.17,7.26a1.49,1.49,0,0,0-.63,1c-.06,1.29-.58,2-1.95,2-.28,0-.6.5-.83.82a35.65,35.65,0,0,1-5,5.5c-.91.83-1.41,2.11-2.79,2.45-.07,0-.19.1-.19.14.17,1.81-1.69,2.07-2.47,3.17-.53.74-1.56,1.7-2.28,1.63-1.84-.16-2.8.88-3.9,1.93-.14.14-.46.1-.78.16-.32-.49-.63-1-1.22-1.91l-.35,2.09c-3.08.61-6,1.61-8.4,4a3.28,3.28,0,0,1-2.46.42,2.23,2.23,0,0,0-2.52.9,4.26,4.26,0,0,1-3.44,1.55,7.85,7.85,0,0,0-5.39,1.86c-.49.44-1.37,1.49-2.54.54-.32-.26-1.21.18-1.8.3-.4-.58-.76-1.09-1.24-1.76l-3.7,3.42-.81-1.25-2,1.72-.17-1.92-1.35.09,2-1.17c-1.72-.77-1.86.2-2,1.16.11.09.34.25.33.26a2.57,2.57,0,0,1-3.9.9c-.81-.62-1.55-1.35-2.45-2.14l-.51,1.62c-2.12-.83-4.71-.35-6.32-2.53-.53.19-1.16.66-1.57.52-3.24-1.15-6.8-.84-10-2.3-1.77-.8-3.83-1.08-5.4-2.24-2.8-2.07-5.53-4.26-8.11-6.59-1.35-1.22-3-2.27-3.48-4.31-.06-.28-.63-.46-1-.69-1.21-.81-1.44-1.24-1.6-3-.68-.34-1.82,0-1.76-1.44,0-.68-.59-1.39-1-2.06-.19-.35-.5-.62-.67-1-1.43-3-3.38-5.71-4.43-8.86-1-3-1.88-6-2.69-9.05-.64-2.36-1.1-4.75-1.62-7.14a11.51,11.51,0,0,1-.21-1.45c-.31-3-.72-6-.93-9-.24-3.46-.94-7,.29-10.56.65-1.84.49-4,.75-5.94a11.77,11.77,0,0,1,.55-1.81,5.5,5.5,0,0,0,.47-1.55,4.76,4.76,0,0,1,1.3-3.31,2.29,2.29,0,0,0,.63-1.26c.09-4.23,1.6-8,3.43-11.75a8.64,8.64,0,0,0,.86-2,5.69,5.69,0,0,1,1.68-3.4,3.21,3.21,0,0,0,1-1.69c.68-3.11,2.62-5.56,4.14-8.24A22.84,22.84,0,0,0,114,241a2.89,2.89,0,0,1,.25-.68c1.89-2.54,3.8-5.08,5.72-7.59.79-1,1.62-2,2.46-3,1.12-1.33,1.41-3.19,3.31-4.11,1.44-.69,2.48-2.23,3.66-3.44.74-.76,1.4-1.6,2.12-2.39.58-.63,1.2-1.24,2.08-2.13l.29,2.15,1.62-.81c-.29-.57-.53-1.05-.78-1.53a1.4,1.4,0,0,1,.14-.45c.66-.83,1.33-1.66,2-2.46a20,20,0,0,1,1.75-1.93c2.23-2,4.48-3.9,6.53-6.07a10.82,10.82,0,0,1,4-2.67c1.87-.71,3.46-2.13,5.23-3.15a23.88,23.88,0,0,1,2.9-1.2c.15-.06.36,0,.48-.11,2.69-2,6.41-1.57,9.07-3.69a2.22,2.22,0,0,1,1.15-.34c6.32-.55,12.57-.69,18.89.71a43.3,43.3,0,0,1,9.13,2.93c3.14,1.49,6.7,1.87,9.6,3.95.88.63,2.23.57,3.24,1.07a45,45,0,0,1,3.9,2.41c.2.13.31.43.51.5,3.26,1.11,5.45,3.47,7.48,6.11,1.28,1.66,2.83,3.11,4.26,4.66a5,5,0,0,1,.77.9c1.48,2.68,2.93,5.39,4.42,8.07a18.51,18.51,0,0,0,1.34,2.05c1,1.31,2.09,2.54,1.63,4.39a1,1,0,0,0,.28.89c2,1.07,1.31,3.86,3.21,5,.21,1.71,1.19,3.25.78,5.11a5.22,5.22,0,0,0,1.14,5.09c.42,2.32.75,4.1,1.06,5.88a21.76,21.76,0,0,1,.35,2.66c.06,1.26-.18,2.44-1.31,3,.14,1.2.24,2.21.37,3.21a16.58,16.58,0,0,1,.45,3.72c-.2,1.82,0,3.68-.75,5.48a27.85,27.85,0,0,0-1.34,5.36c-.21,1.12-1.27,2.24-.2,3.45a.57.57,0,0,1,.09.46c-.36,1.61-.79,3.2-1.09,4.82a15.42,15.42,0,0,0,0,2.58l-1,.34a17.18,17.18,0,0,0-.7,2.34,16.25,16.25,0,0,1-2.86,7.11c-.36.5-.19,1.4-.26,2.17a1.33,1.33,0,0,0,2-.42c1.63-2.34,3.45-4.56,4.9-7a19.15,19.15,0,0,0,1.68-4.77c.7-2.51,1.3-5,1.89-7.57a37.09,37.09,0,0,0,1.39-6.81c.12-3.1,1.64-5.92,1.61-8.94,0-2.06,1-4,.57-6.07-.19-.87.43-1.88.51-2.83.15-1.85.16-3.7.28-5.55a9.94,9.94,0,0,1,.37-2.1c.36-1.22,1.22-2.34.41-3.72-.15-.26.09-.78.2-1.16a23.84,23.84,0,0,0,1.18-8.13,43.18,43.18,0,0,1,.82-8.2,11.58,11.58,0,0,1,1-2.51c-1.33-1.19-.26-2.92.09-4.3a9,9,0,0,1,2.42-4.82,2.73,2.73,0,0,1,3.86-.19c1,.87,1.68,2,3.16,2,.39,0,.72.62,1.1.92a50.43,50.43,0,0,1,4.66,3.8c1.39,1.42,3,2.61,4.37,4,.35.35.37,1,.55,1.59a10.17,10.17,0,0,1,5.78,3.78,3.71,3.71,0,0,0,1.15.92,5.07,5.07,0,0,1,2.51,3.09c.27,1.05,1,1.47,1.79,2.06a8.46,8.46,0,0,1,3.55,4.72c.05.21.16.52.32.58,2.82,1,3.27,4,4.75,6,.73,1,.57,2.67,1,4s1.14,2.6,1.57,4,.59,2.67,2.06,3.38a1.72,1.72,0,0,1,.63,1.49c-.33,1.53.4,2.11,1.72,2.39.21,0,.38.23.67.42l-1,1.3c3.13,1.09,4.73,3.66,6.27,6.15a6.45,6.45,0,0,0,4.94-.81,4.09,4.09,0,0,1,2.38-.15,7.76,7.76,0,0,0,5.29-1.36c.7-.47,1.82-.26,2.68-.55,2.87-1,5.75-.41,8.63-.19.77.05,1.55-.22,2.32-.22,3.76,0,7.51,0,11.27.06,1.66,0,2.82-.42,2.85-1.94,0-2.64,1.48-4.76,2.12-7.17.68-2.57,1.85-5.06,2.15-7.66.38-3.23,1.94-6,2.57-9.14.31-1.56.91-3,1.18-4.63.6-3.52,1.81-6.94,2.61-10.43.43-1.87.75-3.75,1.34-5.59.47-1.45.73-3,1.09-4.46.42-1.75.71-3.54,1.29-5.23,1.3-3.82,1.62-7.91,3.37-11.61a19.75,19.75,0,0,0,1.54-5.36,96,96,0,0,1,2.86-10.58c.78-2.73,1.55-5.47,2.33-8.2s1.61-5.28,2.24-8,.95-5.11,1.4-7.67c.36-2,.63-4.1,1.09-6.11.38-1.68,1.4-1.93,3.47-.89,0,.66,0,1.38-.11,2.1-.35,3.14-.4,6.35-1.2,9.38-.68,2.62-.64,5.4-1.91,7.94-.76,1.53-.74,3.47-1,5.23-.24,1.54,0,3.06-1.51,4.34-.68.59-.66,2.3-.51,3.44.39,2.86-1.22,4.95-2.52,7.12-.53.87-.86,1.47-.34,2.41.32.58.46,1.22-.32,1.7-.25.15-.34.61-.42.94s.18.63.11.68c-1.82,1.2-1,3.4-1.89,4.94-1.13-.78-1.13-.78-2.22.34l2.27-.39c-.45,1.72-.86,3.45-1.36,5.16-.57,1.94-1.26,3.85-1.83,5.79a2.4,2.4,0,0,0,0,1.45c.58,1.45.1,2.7-.48,4-.81,1.8-1.61,3.61-2.24,5.47-.19.56.16,1.31.29,2.12-1.12.7-1.4,1.79-1.38,3.23a17,17,0,0,1-.93,4,26.24,26.24,0,0,0-1.21,5.56,10.18,10.18,0,0,1-1.19,4.62,5.58,5.58,0,0,0-.89,3.86,6.58,6.58,0,0,1-.44,2.61c-.26,1-.61,2-.91,3-.09.3,0,.73-.21.91-1.74,1.7-1.35,4.06-2,6.11-.18.61-.39,1.22-.61,1.82-.43,1.15-.94,2.27-1.28,3.44s.15,1.59,1.25,1.76a3,3,0,0,1,1.15.24c1.06.67,2.23-.31,3,0,1.12.46,1.87.85,2.74-.23.09-.11.46-.05.67,0,1,.34,2.49.41,3,1.14.88,1.29,2.1,1.42,3.29,1.72s2.37.28,3.55.47c.72.12,1.42.39,2.14.54s1.57.25,2.61.41l4.33,3.58a2,2,0,0,1,0,.7c-.21.56-.94,1.22,0,1.58.27.11.88-.68,1.34-1.06.12.34.25.67.5,1.34l1.23-1.94-1.81.7c.17-.93.34-1.86.47-2.55,1.36.32,2.86.62,4.34,1a7.76,7.76,0,0,1,2.17.94c2.42,1.63,4,1.39,6.45-.06,1.57-.94,3.16-2.32,5.3-2a1.41,1.41,0,0,0,.86-.2,19.82,19.82,0,0,1,6.15-2.1c2.46-.54,4.6.63,6.89.28a4.43,4.43,0,0,0,1.57-.31,3,3,0,0,1,2.75-.13,11.69,11.69,0,0,0,4.33.42c3.34-.27,6.61-.31,9.72,1.22a1.4,1.4,0,0,0,.94.1c1.76-.58,3,.38,4.13,1.45,1.63,1.58,3.13,3.28,4.61,5a7.18,7.18,0,0,1,.77,1.68c.22.47.48.92.79,1.5,1.93-1.86,2-4.24,2.65-6.34s1-4.43,1.66-6.59c1.37-4.52,2.88-9,4.3-13.51.61-2,1.11-3.95,1.68-5.92a139.73,139.73,0,0,1,6-17.92c1.57-3.55,2.7-7.29,4.21-10.86,1.59-3.74,3.42-7.37,5.08-11.08.51-1.17.78-2.44,1.2-3.65.56-1.58.71-3.29,2-4.63.73-.76.78-2.13,1.38-3.07,2.09-3.34,3.24-7.08,4.73-10.68,1.12-2.7,2.28-5.39,3.46-8.07a11.73,11.73,0,0,1,.86-1.14c.49-.83,1.3-1.68,1.31-2.53a11.59,11.59,0,0,1,1.3-4.39c.85-2.07,1.42-4.24,2.18-6.34a28.69,28.69,0,0,1,1.44-3.32c2-4,4-8,6.14-11.95.37-.7.52-1.81,1.74-1.69Zm-184.61,139,.06.07-2.14-1.66c.11-.66.21-1.28.3-1.83l-1.41-1c.64-1.19.47-1.15.18-2.38-.38-1.59-1.51-2.68-2.18-4-.82-1.64-1.81-1.77-3.28-1.77a13.61,13.61,0,0,1-2.55-.53c-.14,0-.3.09-.56.17-.18.53-.38,1.11-.59,1.7a10,10,0,0,0-2.42,1.07,50.61,50.61,0,0,0-7.63,4c-1.36.81-2.72,1.83-4.38,1.18-.4.73-.56,1.58-1,1.81-2.43,1.19-3.83,3.47-5.73,5.21s-3.77,3.53-5.64,5.3c-2.38,2.25-5.54,3.82-6.37,7.41a1.92,1.92,0,0,1-.55.79c-1.74,1.71-2.28,4-2.83,6.21a30.42,30.42,0,0,0-.46,8.09,18.14,18.14,0,0,0,2.39,8.76,8.86,8.86,0,0,0,2.63,3,41.64,41.64,0,0,0,13.91,6.26c2.19.47,4.25,1.49,6.43,2,1.79.45,3.46,1.42,5.5.91a11.19,11.19,0,0,1,4.07.11,4.39,4.39,0,0,0,2.75-.37,24.34,24.34,0,0,1,3.67-1.09,5.1,5.1,0,0,0,1.68-.84c1.8-1.51,3.55-3.07,5.31-4.63a7.69,7.69,0,0,0,.92-1.05c1.79-2.34,1.91-5.36,3.2-7.92.43-.85,0-2.07.38-3,1.22-3.46-.26-7.08.69-10.55.12-.44-.44-1-.53-1.56-.31-1.87-.64-3.77,1-5.34a7,7,0,0,0-.87-1.47A5.34,5.34,0,0,1,310,300a1.35,1.35,0,0,0-.31-.9c-1.2-1.33-.83-3.12-1-4.59C308.55,293.28,308.6,292.2,307.8,291.23ZM192.64,309.45c2.58.64,5,1.35,7.55.7,1.17-.3,2.25-1,3.54-.44a1,1,0,0,0,.9-.26c1.43-1.78,3.68-1.65,5.55-2.29,3.36-1.17,7.07-.7,10.45-1.92a7.69,7.69,0,0,1,3-.84c2.29.26,3.16-1.19,4-2.79,1-1.86,2-3.72,2.83-5.63a6.15,6.15,0,0,0,.23-2.12c0-.39-.18-.9,0-1.17,1-1.55.86-3.36,1.29-5s.2-3.46.74-5a27,27,0,0,0,1.56-8c0-1.38-.08-2.77,0-4.14.21-2.59.58-5.16.79-7.75a17.16,17.16,0,0,0-.12-2.86,20,20,0,0,1-.37-3.89,16.31,16.31,0,0,0-.6-6.26,7.53,7.53,0,0,1-.6-3.54c.09-.51-.45-1.14-.69-1.71a4.38,4.38,0,0,1-.61-1.54,9.74,9.74,0,0,0-1.75-5,39.65,39.65,0,0,1-2.3-4.79,42.45,42.45,0,0,0-2.76-5c-1.29-2.32-3-4.39-4.51-6.58-1-1.47-1.95-3-2.95-4.44-1.79-2.65-4.74-3.82-7.31-5.34a46.93,46.93,0,0,0-9.53-4.7c-2.4-.77-4.73-2-7.22-2.66a3.64,3.64,0,0,1-2.64-1.54,1.86,1.86,0,0,0-1.47-.59,19.73,19.73,0,0,1-7.09-1.09c-2.61-.88-5.19.35-7.67-.57-1.84,1.21-3.7,0-5.53,0-.77,1.74-.78,1.65-2.55,1.87a26,26,0,0,0-4,1,.94.94,0,0,0-.44.76,1,1,0,0,0,.46.76,11.55,11.55,0,0,0,1.2.2c2.23.69,4.82.15,6.55,2.5,1,1.32,2.17,2.38,2.36,4.15a6.83,6.83,0,0,0,.79,1.76,6.8,6.8,0,0,1,.16,5.65,16.45,16.45,0,0,0-1-2.32c-1.8-2.8-3.93-5.45-7-6.79a12.49,12.49,0,0,0-6.46-.81,16.87,16.87,0,0,1-4,.31,5.1,5.1,0,0,0-3.23.73,10.46,10.46,0,0,1-3.72,1.58,6,6,0,0,0-3.8,2c-1.21,1.27-1.75,3.14-3.55,3.9-.28.11-.34.72-.53,1.08-.28.54-.62,1.05-.89,1.6s-.72,1.11-.58,1.51c.38,1.14-.33,1.91-.73,2.74-.84,1.73-1.57,3.56-3.29,4.74-.41.28-.52,1-.75,1.52-.61,1.33-1.18,2.69-1.82,4s.11,2.83-1.27,4c-.63.52-.51,1.85-1,2.7A8.56,8.56,0,0,0,129.3,246a7.08,7.08,0,0,1-.16,1.45c-.32,1.66-.79,3.29-1,5-.25,2.47,1,5.09-.71,7.44a1,1,0,0,0-.09.72c.48,2.08.92,4.17,1.48,6.23.38,1.39,1.07,2.71,1.38,4.11s-.25,3.08,1.25,4.15c0,0,0,.17,0,.23-.5,1,.27,1.64.55,2.47.69,2,2.4,3.83,1.59,6.11a21,21,0,0,1,2.51,2.11c.58.65.79,1.61,1.34,2.29s1.61,1,1.9,1.75c.52,1.26,1.41.73,1.9.74,1.1,1.82,2.22,3.35,4.1,3.92a6.3,6.3,0,0,1,4.5,4.14,11,11,0,0,1,2.56,0,11.16,11.16,0,0,1,2.62,1.23c.75.41,1.42,1,2.16,1.38a3.68,3.68,0,0,1,1.87,1.8l1.51-.74,1.53,1.92,1.43-.78,2,1.89h-2.14c1,1.29,2.2,1.24,3.39,1.34,1.81.14,3.81-.38,5.11,1.51a.79.79,0,0,0,.65.29c2.19-.65,4.07,1.64,6.29.68a33.41,33.41,0,0,0,10.56.4c.16,0,.39-.05.46,0C191.07,311.18,191.9,310.07,192.64,309.45Zm-58.4-18.24a4.35,4.35,0,0,1-.93-.72c-1.32-1.89-2.64-3.77-3.88-5.71-.74-1.14-2.23-2.11-1.1-3.85.1-.17-.39-.66-.5-1-.56-1.83-2-3.29-2.1-5.33,0-1.21.18-2.52-.92-3.55-.32-.31-.23-1.09-.3-1.66a21.36,21.36,0,0,1-.29-2.63c0-2.44-1-4.8-.47-7.26.15-.71.65-1.57.41-2.08-.88-1.84.38-3.69-.25-5.52a3.93,3.93,0,0,1,.19-2.33,83,83,0,0,0,2.1-8.64c.24-1.06,1.16-2,1.31-3a12.59,12.59,0,0,1,1.66-4.55,2.42,2.42,0,0,0-.08-2.56c-.42.09-.85.05-1,.24-1.42,1.57-2.86,3.13-4.17,4.79-1,1.21-1.74,2.57-2.61,3.86-1.08,1.6-2.58,2.85-3.43,4.71-1,2.28-1.87,4.81-4.13,6.36a1.35,1.35,0,0,0-.5,1.07c.23,1.54-1,2.32-1.62,3.42-.18.33-.51.58-.65.91-.41,1-.79,2.1-1.13,3.17-.26.82-.44,1.67-.66,2.51a9.78,9.78,0,0,1-.44,1.63,91.74,91.74,0,0,0-3.73,9.84,18.3,18.3,0,0,0-.81,4c-.21,2.05-.31,4.2-2.3,5.64,1.36,1.17,1.07,2.59.68,4.06-.59,2.28-1.41,4.53-.44,6.95.14.37-.46,1-.47,1.06.74,5.79,2.22,11.05,2.07,16.32.69,1,1.73,1.84,1.78,2.74.12,2,1.37,3.43,1.77,5.23.26,1.17.37,2.38.64,3.55a6.12,6.12,0,0,0,.65,1.43c.25.47.55.91.82,1.37.36.62.69,1.25,1.07,1.85s1.15,1.28,1.29,2a2.49,2.49,0,0,0,1.52,2c2.33.9,3.19,3.69,5.69,4.32,1.3,2.08,3.47,3,5.47,4.21a7.13,7.13,0,0,1,2.7,2.35c1.45,2.76,4.21,3.62,6.59,5.06.36.22.94.05,1.41.11,2.66.35,5.49-.82,8,.89,2.5-.52,4.73.91,7.24.93,2,0,4.15.46,6.26.31s4.51-.19,6.72-.57c2.73-.46,5.41-1.18,8.09-1.87,1.31-.33,2.57-.88,3.87-1.29a9.88,9.88,0,0,1,2.12-.55,8.75,8.75,0,0,0,4.67-1.56,2.59,2.59,0,0,1,.67-.32c3.49-1.18,6.67-3.16,10.33-3.91a3.92,3.92,0,0,0,1.51-.76c1.47-1.12,2.87-2.34,4.37-3.43a39.91,39.91,0,0,0,3.57-2.34c2.65-2.45,5.29-4.94,7.71-7.62s5.54-5,7.69-8.06c.69-1,1.71-1.77,2.29-2.81.79-1.41,2.4-2.49,2.18-4.36-1.59,0-3.06.06-4.52,0s-2.72,1.21-4,1.25c-1.69.06-2.59,1.07-3.61,1.89l-2.47-1.06-.41,1.6c-1.86.62-3.81-1.06-5.49.48,0,0-.14-.08-.22-.09l-1.81-.07c-.7,0-1.56.17-2.06-.17s-1-.17-1.56-.11c-1.27.13-2.55.18-3.83.29-.63.06-1.26.21-1.89.26-1,.09-2,.12-3.24.2-.89,1.2-2.43.6-3.88.35-.79-.14-1.6-.73-2.3-.6a4.9,4.9,0,0,1-3.89-1c-1.13,1.09-2.39,1-3.74.92a56.12,56.12,0,0,1-6.85-1.23c-1.59-.29-2.81-.89-2.82-2.49l-2.52-1.05c-1.86-.78-3.74-1.52-5.59-2.33a20.56,20.56,0,0,1-3.45-1.72c-2.5-1.74-4.76-3.89-7.38-5.4a68.36,68.36,0,0,1-7.35-4.88c-.31-.24-.69-.77-.91-.7-2.17.61-2.54-1.12-3.4-2.34Zm183-18.77c-.36,2.78.69,3.32,3.81,2.06C320.27,273,318.83,272.77,317.23,272.44Zm-4.72,1.16c-.58,0-1.17-.08-1.76-.08,0,0-.17.5-.07.64C311.22,274.92,311.83,274.78,312.51,273.6Zm-166,79.25c-.49,1.19-.49,1.19.92,1.3Zm226.7-74.25-.68-.53a2.77,2.77,0,0,0-.47.7c0,.09.35.45.44.41A2.83,2.83,0,0,0,373.21,278.6ZM199.34,339.4l-2.29-.26C197.67,339.9,198.34,340.27,199.34,339.4Zm181.17-57.58.52,0-.22-1.33-.43.05Zm41.59-4-.37-.7c-.16.13-.43.23-.45.37a.76.76,0,0,0,.26.57C421.6,278.08,421.87,277.89,422.1,277.79Zm-219.77-72.1a3.59,3.59,0,0,0,.41-.62s-.23-.29-.31-.27a2.45,2.45,0,0,0-.57.31Z"/><path d="M663,287.07c.63-.38,1.09-.89,1.59-.93,4.85-.43,9.55-1.93,14.52-1.71,1.51.06,3.29.53,4.91-.75,1-.78,2.64-.71,4-1,2.42-.59,4.81-1.37,7.26-1.74,3.11-.46,6.11-1.42,9.34-1.46,2.73,0,5.46-1,8.16-1.61,1.29-.31,2.48-.95,3.76-1.31a4.25,4.25,0,0,1,3.58.1,10.26,10.26,0,0,1-1.27.8,43.24,43.24,0,0,1-11.14,3.25c-2.24.29-4.33,1.57-6.55,2.18-1.3.35-2.57,1.3-4.09.41a1.81,1.81,0,0,0-2.41.49c-.66.79-1.41,1.37-2.56.73-.27-.16-.77,0-1.13.12-2.61.86-5.24,1.67-7.8,2.67a27.84,27.84,0,0,1-7.48,1.55,6.57,6.57,0,0,0-1.59.56,4.68,4.68,0,0,1-1.1.5c-1.32.13-2.8-.15-3.93.35a7.62,7.62,0,0,1-4,.29c-1.2-.1-2.42-.37-3.51.55a2.29,2.29,0,0,1-1.43.24c-4.22-.1-8.3,1.18-12.51,1.33-2.65.1-5.26,1-7.9,1.39a2.93,2.93,0,0,1-2-.18c-1.72-1.51-3-.75-4.17.6a3.59,3.59,0,0,1-.76.45c-1.48-2.76-4.32-2.22-6.71-2.65-2.57-.45-5.21-.53-7.82-.74a1.84,1.84,0,0,0-1.18.13c-1.59,1.21-3.45,1-5.22,1-2.84,0-5.32,1.29-7.91,2.08a6.91,6.91,0,0,1-4.42.07,4.07,4.07,0,0,0-3.5.39c-.71.4-1.38.89-2.12,1.24A17.1,17.1,0,0,1,589,298c-3.29.5-6.53,1.36-9.78,2.09-.8.18-1.58.42-2.37.62-1.53.38-1.75.32-3.41-1l.42-2.46c2.24-1.33,4.54-1.25,6.89-1a11.46,11.46,0,0,0,5.3-.66,11.2,11.2,0,0,1,4.49-.91c2.49.25,3.8-1.34,5.38-2.64.29-.24.55-.74.83-.75,1.84,0,3.49-1.12,5.48-.68a6.33,6.33,0,0,0,3.72-.76A17.12,17.12,0,0,1,614.6,288a27.12,27.12,0,0,0,5.1-.62c3-.41,6,.44,8.95-.74.42-.17,1.06.24,1.6.37,1.4.31,2.8.7,4.21.9,2.66.39,5.36-.27,8,.47a10,10,0,0,0,3.65-.13c2-.22,4-.82,6,.3a1.94,1.94,0,0,0,1.43-.1c1.89-.86,4-1,5.93-1.62C661.2,286.27,661.21,286.29,663,287.07Zm-31.28,4.38c-.23-.21-.39-.46-.55-.46a.59.59,0,0,0-.42.42c0,.14.23.43.37.43S631.45,291.63,631.7,291.45Z"/><path d="M492.47,152.27c.14-2.8,2-4.6,3.85-6.58.21.31.57.6.52.79a5.31,5.31,0,0,1-.85,2.22c-1.87,2-1.92,2-2.21,3.88l-1.37-.37Z"/><path d="M500.38,142.75a4.06,4.06,0,0,1-.47-.15c0-.91-.29-2,.87-2.44a.68.68,0,0,1,.61.25C501.88,141.66,500.56,141.92,500.38,142.75Z"/><path d="M499.15,144.28l-1.6-.08v-.35h1.6Z"/><path d="M493.4,154.23l.88-.41.19.39-.88.41Z"/><path d="M722.1,272.89a7.74,7.74,0,0,0-3.73-1,10.62,10.62,0,0,0-3,.52,20.39,20.39,0,0,0-2.11.75,11.89,11.89,0,0,1-1.47.51c-.67.16-1.34.34-2,.52a23.26,23.26,0,0,1-5.21,1,35,35,0,0,0-6.91.94c-1,.22-2,.42-3,.57a45.32,45.32,0,0,0-5.42,1.23c-.74.2-1.47.4-2.21.57a8.31,8.31,0,0,1-.93.16,9.14,9.14,0,0,0-4.64,1.63h-.2c-.31,0-.62,0-.92-.06l-1-.07c-.39,0-.78,0-1.17,0a50.24,50.24,0,0,0-8.72,1c-1.8.32-3.5.62-5.19.76a5.22,5.22,0,0,0-1.7.46,5.59,5.59,0,0,0-1.4-.17,9,9,0,0,0-3,.63,19.17,19.17,0,0,1-2.05.51,24,24,0,0,0-3.31.87,9.75,9.75,0,0,0-3.29-.54,19.16,19.16,0,0,0-2.8.25c-.32,0-.64.1-1,.13s-.64.08-1,.12a9.35,9.35,0,0,1-1.2.12,16.86,16.86,0,0,0-4.38-.5l-1.37,0-1.16,0a10.86,10.86,0,0,1-1.55-.09c-.82-.12-1.7-.33-2.64-.56l-1.13-.27-.11,0a6.47,6.47,0,0,0-2.32-.49,4.83,4.83,0,0,0-1.82.35,6.65,6.65,0,0,1-2.56.35l-1.25,0q-.74,0-1.47,0a17.8,17.8,0,0,0-2.67.17c-.56.07-1.13.18-1.7.28a14.33,14.33,0,0,1-2.32.31h-.22c-.43,0-.85,0-1.26,0A21.85,21.85,0,0,0,604.1,286a5,5,0,0,1-1.15.41,9,9,0,0,0-1.72-.17,12.88,12.88,0,0,0-3.41.54,6.76,6.76,0,0,1-1.2.25A4.88,4.88,0,0,0,593,289l-.62.53c-.48.42-1.13,1-1.42,1h0c-.3,0-.61,0-.92,0a16.22,16.22,0,0,0-5.41,1.18,7.72,7.72,0,0,1-2.6.49,6.47,6.47,0,0,1-.76-.05,23.36,23.36,0,0,0-2.94-.21,14.07,14.07,0,0,0-2.81.3l0-.22-5.11,1.58c-.4.12-.7.21-1,.32l-.15.05a12.45,12.45,0,0,1-3.88,1,4.28,4.28,0,0,1-.72-.06l-.4-.08a12.52,12.52,0,0,0-2.46-.3,6.91,6.91,0,0,0-3.17.73,25,25,0,0,1-3.42-1.28,8.33,8.33,0,0,0-1.3-.5,4.24,4.24,0,0,0-1.67-1.76c-.09-.17-.18-.34-.28-.49.17-.8.33-1.58.47-2.34a27.26,27.26,0,0,1,1.33-5.11c1.64-4,1.47-8.34,1.14-11.64a8,8,0,0,0-5.48-6.83c.12-.33.23-.66.34-1s.25-.75.39-1.12a14.25,14.25,0,0,0,1.11-4.84,7.08,7.08,0,0,1,.3-.72,8.67,8.67,0,0,0,.86-5.42L554,249c.06-.12.14-.24.21-.36a8.36,8.36,0,0,0,1.15-2.75l.16-.83a31.23,31.23,0,0,1,1-4.38c.63-1.82,1.11-3.63,1.57-5.39.2-.77.41-1.54.6-2.25a2.29,2.29,0,0,1,.1-.23s.6-1.47.85-2c.54-1.32,1.09-2.63,1.59-4,.63-1.65,1.23-3.31,1.83-5,.39-1.08.78-2.16,1.18-3.24q1.46-4,3-7.92c.31-.8.58-1.62.85-2.44a19.86,19.86,0,0,1,1.73-4.21,38.25,38.25,0,0,0,3.7-8.1l.43-1.16a14.81,14.81,0,0,1,.89-1.8c.32-.59.64-1.18.93-1.78s.57-1.11.9-1.71a17.43,17.43,0,0,0,2.39-6.05,18.75,18.75,0,0,0,2-4.29,11,11,0,0,1,1.22-2.65,16.13,16.13,0,0,0,1.92-3.53,7.65,7.65,0,0,1,1.08-2,5.75,5.75,0,0,0,1.37-2.61c.44-1.46.87-2.93,1.29-4.39a106.74,106.74,0,0,1,4.2-12.55l.16-.35a9,9,0,0,0,1-4.92,6.62,6.62,0,0,0,1.09-3.06,8.38,8.38,0,0,1,.53-1.87,22.38,22.38,0,0,0,.69-2.24,16.64,16.64,0,0,0,.32-4v-1c0-.15.12-.44.18-.66a12.6,12.6,0,0,0,.47-2.21,16.73,16.73,0,0,0-.17-4l0-.33c0-.15,0-.3,0-.46a8,8,0,0,0-2.37-5.57l-3.9-3.73-2.71,4.67-.14.22a6,6,0,0,0-1,2.2c-.19.9-.36,1.81-.53,2.71-.23,1.18-.44,2.29-.7,3.38s-.53,2.08-.83,3.18a55.61,55.61,0,0,0-1.41,5.85,39.93,39.93,0,0,1-2.63,8.07c-.51,1.25-1,2.54-1.51,3.86a83.89,83.89,0,0,1-3.62,8.2q-.72,1.47-1.41,2.94c-.41.87-.87,1.74-1.36,2.67s-.87,1.63-1.28,2.46c-1.58,3.24-3.12,6.49-4.67,9.74-.34.72-.69,1.44-1,2.17-1.05,2.17-2.13,4.42-3.11,6.71-1.27,3-2.48,6-3.65,8.85-.45,1.13-.91,2.26-1.37,3.39l-.78,1.9c-.7,1.69-1.42,3.44-2.08,5.23-.53,1.44-1,2.89-1.51,4.34-.78,2.34-1.52,4.54-2.42,6.67a95.24,95.24,0,0,0-3.36,9.68c-.44,1.42-.88,2.85-1.35,4.27-.8,2.38-1.42,4.77-2,7.09-.73,2.79-1.42,5.43-2.36,8l-.21.51a14,14,0,0,0-.67,1.92c-.76,3.07-1.43,5.88-2,8.59-.22.94-.4,1.89-.58,2.84-.14.74-.28,1.48-.43,2.21-.08.33-.3,1.44-.34,1.65a6.12,6.12,0,0,0-.74,0,7.32,7.32,0,0,0-4,1.23,2.36,2.36,0,0,1-1.41.33h-.29a6.4,6.4,0,0,1-.73-.13,10.91,10.91,0,0,0-2.32-.29,26.29,26.29,0,0,0-3.64.33l-1,.14-.44-.23-1.86-.89-1.85.92a8.35,8.35,0,0,1-3.71.87l-.57,0h-.33a5.54,5.54,0,0,0-2.42.57l-3.32-1.83L507,266l-5.18-1.17a8,8,0,0,0-2.51-2l-.3-.17a7.38,7.38,0,0,0-4.48-1.74,7.24,7.24,0,0,0-4.66,2c-.87.72-1.67,1.45-2.5,2.22l-2.94-.34-1,2.5a8.75,8.75,0,0,0-4.2,2.66,30.64,30.64,0,0,0-6.93,2.83c-1.67.86-3.21,1.82-4.7,2.74a41.52,41.52,0,0,1-5.93,3.25,16.09,16.09,0,0,0-4.58,3.11c-.35.31-.7.62-1.06.91a5.93,5.93,0,0,1-2.84,1.47,9.94,9.94,0,0,0-4.56,1.77c0-.12,0-.24,0-.36a7.08,7.08,0,0,1,.55-1.49,12.75,12.75,0,0,0,1.25-4.09l0-.05c.06-.11.13-.21.2-.32a7.64,7.64,0,0,0,1.33-3.24,8.56,8.56,0,0,1,.25-.94,10,10,0,0,0,.52-4.59,19.88,19.88,0,0,0,1.6-4.57,18,18,0,0,1,.67-2.25,18.36,18.36,0,0,0,1-3.75c.28-1.46.46-2.31.94-2.78a6.82,6.82,0,0,0,1.88-6.29,5,5,0,0,1,.54-1.64,20.45,20.45,0,0,0,.78-2l.17-.21a10.49,10.49,0,0,0,.85-1.08c.33-.49.65-1,1-1.5l.37-.59,2.22-3.49-1-.68a4.87,4.87,0,0,0,1-3.46,7.3,7.3,0,0,0,.46-2.52l.19-.61a11.51,11.51,0,0,0,2.25-3.5c.11-.23.22-.47.34-.7.51-1,1-2,1.5-3,.29-.61.59-1.21.89-1.81l.14-.22a8.21,8.21,0,0,0,.92-1.92c.12-.39.24-.78.35-1.17a12.93,12.93,0,0,1,1.55-3.83,5.69,5.69,0,0,0,1-2.7,7.16,7.16,0,0,0,2.24-5.8l4.34-8.77-.83-.86c.41-1.07.81-2.11,1.23-3.15.19-.47.41-.93.63-1.39s.34-.7.5-1.06A9.44,9.44,0,0,0,483,192l.27-1.12a15.89,15.89,0,0,1,1.69-4.9,7.38,7.38,0,0,0,1.19-3.83,5.2,5.2,0,0,1,.86-2.71,9.72,9.72,0,0,0,1.07-2.61c.06-.21.15-.5.19-.6.3-.65.58-1.31.86-2a26.66,26.66,0,0,1,2.28-4.57,21,21,0,0,0,2.39-5.07l.19-.54a13.53,13.53,0,0,0,.47-1.59c0-.08,0-.18.07-.28l.46-.18c.35-.14.71-.28,1.07-.44l.18.17v-.25l.28-.12,5.82-2.84-1.47-1.28,3.17.29-5.51-5.37.28-.3.32-.35a7,7,0,0,0,1.57-3l2.61.12,0-.54.25.08.79-3.77a5.27,5.27,0,0,0,1-5.63,4.87,4.87,0,0,0-4.49-3h-.92l-.78.32A5.35,5.35,0,0,0,496,139.6h-2.58l-.07,3.05-.43.45c-.57.61-1.18,1.27-1.77,2l-1.42-1.36-1.11,5.72a7.07,7.07,0,0,0-1.6,2.43l0,.1c-2.16,4.07-4.23,8.17-6.17,12a35.47,35.47,0,0,0-1.66,3.8c-.32.89-.6,1.79-.89,2.69-.4,1.23-.77,2.39-1.21,3.47l-.27.63a14.6,14.6,0,0,0-1.32,4.61l-.14.2-.5.74,0,0a6.61,6.61,0,0,0-1.18,1.75c-1.33,3-2.47,5.69-3.5,8.16-.41,1-.79,2-1.18,3a40.89,40.89,0,0,1-3.23,7.06,9.6,9.6,0,0,0-1,2.36c0,.11-.07.22-.1.32a11.55,11.55,0,0,0-2.38,4.88c-.1.33-.18.66-.3,1-.19.54-.35,1.09-.52,1.64a13.36,13.36,0,0,1-.56,1.69c-.68,1.52-1.39,3-2.1,4.55-1,2.14-2.05,4.35-3,6.6-.75,1.76-1.4,3.54-2,5.26-.7,1.94-1.37,3.77-2.16,5.54a139.39,139.39,0,0,0-6,17.77l-.2.68c-.23.79-.44,1.59-.66,2.38-.33,1.2-.64,2.34-1,3.46q-.89,2.81-1.8,5.61c-.83,2.59-1.7,5.27-2.51,7.93-.36,1.2-.63,2.37-.88,3.5-.13.58-.25,1.14-.39,1.68-.7-.76-1.43-1.51-2.18-2.24a8.77,8.77,0,0,0-6-2.83,7.68,7.68,0,0,0-1.06.08,19.24,19.24,0,0,0-7.58-1.37c-1,0-2,0-3.4.16l-.75,0a6.47,6.47,0,0,1-2-.27,8.91,8.91,0,0,0-2.66-.46,6.78,6.78,0,0,0-2.95.68,6.17,6.17,0,0,0-.62.08h-.27a11.87,11.87,0,0,1-1.56-.18,17.45,17.45,0,0,0-3-.31,10.38,10.38,0,0,0-2.32.25,25.69,25.69,0,0,0-6.61,2.15H395A11.16,11.16,0,0,0,388.8,275l-.69.44A8.07,8.07,0,0,1,387,276a2.81,2.81,0,0,1-.76-.41,11.65,11.65,0,0,0-3.4-1.51c-1.16-.32-2.33-.58-3.36-.81L378.3,273l-3.52-.82-1.71-1.41-1.16-.18-1-.15c-.52-.07-1-.13-1.42-.22l-.62-.17a13.33,13.33,0,0,0-1.7-.41c-.57-.09-1.14-.15-1.72-.2a10.94,10.94,0,0,1-1.46-.19l-.51-.12L363,269a7.08,7.08,0,0,0-4.39-2.39c-.21-.05-.41-.09-.6-.15a5.84,5.84,0,0,0-1.78-.29,4.08,4.08,0,0,1-2.93.25c.19-.52.4-1.12.58-1.75a16.87,16.87,0,0,0,.52-2.65,6.61,6.61,0,0,1,.33-1.62,4.84,4.84,0,0,0,1.4-3l.24-.76c.23-.72.45-1.43.63-2.15l.12-.43a8.52,8.52,0,0,0,.39-4c0-.09,0-.21.45-1.13a14.32,14.32,0,0,0,1.69-6.54,12.33,12.33,0,0,1,.61-2.85c.17-.6.34-1.19.48-1.78.08-.34.19-.68.3-1a12.63,12.63,0,0,0,.76-4l1.75-1.09-.43-2.78c-.05-.31-.11-.6-.18-.89.51-1.38,1.12-2.78,1.81-4.31a9.24,9.24,0,0,0,.85-6.42c.23-.75.47-1.5.72-2.24.33-1,.67-2.07,1-3.11.37-1.26.69-2.52,1-3.74.11-.43.21-.86.33-1.3a9.13,9.13,0,0,0,.55-2.14l.28-1.1a4.24,4.24,0,0,0,1.19-2.56,5.19,5.19,0,0,0,.68-4.44l.16-.26c1.34-2.16,3.18-5.11,2.63-9.13,0-.19,0-.37,0-.53a8.87,8.87,0,0,0,2-5.34c0-.23.05-.46.08-.69.08-.54.14-1.1.2-1.66a9.13,9.13,0,0,1,.42-2.32,20.47,20.47,0,0,0,1.75-6.31A24.52,24.52,0,0,1,379,168a43,43,0,0,0,1.06-7.36c.07-.87.15-1.74.25-2.61.07-.67.09-1.27.11-1.81l0-.55.14-2.77-2.48-1.24a8.54,8.54,0,0,0-3.9-1.08,5.69,5.69,0,0,0-5.62,4.82c-.34,1.49-.58,3-.81,4.38-.11.64-.21,1.28-.32,1.92s-.27,1.53-.39,2.29c-.3,1.8-.58,3.5-1,5.16s-.91,3.42-1.45,5.22c-.25.84-.5,1.69-.74,2.53l-2.33,8.2c-.27,1-.56,1.9-.85,2.85a59.49,59.49,0,0,0-2.11,8.22,16.08,16.08,0,0,1-1.19,4.22,37,37,0,0,0-2.41,7.72,42.44,42.44,0,0,1-1.15,4.33,37,37,0,0,0-1.06,4.1c-.11.51-.22,1-.34,1.52s-.23,1-.34,1.51c-.2.95-.4,1.84-.65,2.64a41.72,41.72,0,0,0-1.12,4.47c-.11.49-.21,1-.33,1.47-.3,1.32-.66,2.64-1.05,4a65.55,65.55,0,0,0-1.6,6.63,20.59,20.59,0,0,1-.52,2.05c-.22.73-.46,1.56-.64,2.46a27.48,27.48,0,0,1-1,3.41,27.66,27.66,0,0,0-1.59,6.07,21,21,0,0,1-1.09,4c-.33,1-.67,2-1,3a17.38,17.38,0,0,1-.74,2.05,21.17,21.17,0,0,0-1.27,3.87c-1.76,0-3.68,0-6.05,0h-4.08a10.45,10.45,0,0,0-1.7.16c-.13,0-.25.05-.38.06l-1.44-.13a36.16,36.16,0,0,0-3.72-.24,15.63,15.63,0,0,0-4.92.73c-.1,0-.21,0-.31,0a7.15,7.15,0,0,0-3.5,1.05,3.57,3.57,0,0,1-2.07.71l-.42,0h-.18a12.75,12.75,0,0,0-1.54-.11,6.16,6.16,0,0,0-3.43.94,1.51,1.51,0,0,1-.28.15,18.79,18.79,0,0,0-2.41-2.93l1-1.31-3.87-2.55a5.93,5.93,0,0,0-.55-.38,5.74,5.74,0,0,0-2.48-3.92c0-.13-.08-.28-.11-.4s-.14-.48-.22-.71a23.41,23.41,0,0,0-.94-2.39,14.25,14.25,0,0,1-.62-1.55,7.33,7.33,0,0,1-.15-.89,8.83,8.83,0,0,0-1.43-4.27,12.09,12.09,0,0,1-.81-1.49,12.29,12.29,0,0,0-4.08-5.15,13.12,13.12,0,0,0-4.72-5.7l-.31-.21a9.45,9.45,0,0,0-4.31-5.14l-.08,0a13.52,13.52,0,0,0-5.6-4.29,5.05,5.05,0,0,0-1-1.33c-.72-.71-1.45-1.34-2.16-2s-1.5-1.3-2.13-2a30.3,30.3,0,0,0-3.64-3.06l-1.27-1,0,0a5.39,5.39,0,0,0-3.15-1.88l-.32-.32-.68-.66a6.76,6.76,0,0,0-4.62-1.84,7.45,7.45,0,0,0-4.92,2,12.93,12.93,0,0,0-3.74,7c-.05.19-.12.38-.19.58a8.74,8.74,0,0,0-.51,4.84,7.76,7.76,0,0,0-.52,1.85c-.08.58-.17,1.17-.26,1.75a34.42,34.42,0,0,0-.6,7.28,19.05,19.05,0,0,1-1,6.68l0,.1a5.44,5.44,0,0,0-.14,3.58c-.08.19-.15.38-.22.57l-.11-.6-.8-.9c-.24-.27-.36-.41-.16-1.34a10.44,10.44,0,0,0-.43-5.45,7.62,7.62,0,0,1-.28-1.09l-.26-2.1-1.35-.79c0-.11-.08-.25-.12-.36a9.67,9.67,0,0,0-1.63-3.24,9.56,9.56,0,0,0-2.29-5.4l-.26-.35a14.1,14.1,0,0,1-1.05-1.6c-.76-1.37-1.51-2.75-2.26-4.12s-1.43-2.64-2.16-4a7.66,7.66,0,0,0-1.24-1.6l-.13-.13c-.47-.51-1-1-1.44-1.52a32.66,32.66,0,0,1-2.57-2.84c-2-2.67-4.65-5.57-8.51-7.18a4.53,4.53,0,0,0-.56-.42l-.95-.62a31.26,31.26,0,0,0-3.35-2,10,10,0,0,0-2.47-.79l-.42-.09a24.19,24.19,0,0,0-6.7-3,25.48,25.48,0,0,1-3.32-1.21,46.87,46.87,0,0,0-10-3.23,54.19,54.19,0,0,0-11.82-1.21c-2.51,0-5.17.13-8.37.41a6.13,6.13,0,0,0-3.43,1.26,8.68,8.68,0,0,1-3,1.1,17.51,17.51,0,0,0-5.19,2l-.28.1-.75.28a16.82,16.82,0,0,0-2.7,1.19c-.8.46-1.51.95-2.21,1.42a13.38,13.38,0,0,1-2.42,1.44,15,15,0,0,0-5.59,3.72c-1.64,1.74-3.45,3.33-5.36,5l0,0,0-.23-6.09,6.21-.77.78c-.53.54-1,1-1.41,1.46s-.66.74-1,1.12-.67.8-1,1.17-.74.79-1.1,1.21a9.19,9.19,0,0,1-1.36,1.37,9.51,9.51,0,0,0-4.23,4.37,6,6,0,0,1-.49.82c-.72.86-1.67,2-2.59,3.19q-2.9,3.79-5.75,7.63a5.07,5.07,0,0,0-.85,1.81c-.1.25-.2.51-.29.77a11.26,11.26,0,0,1-.49,1.19c-.35.62-.73,1.22-1.11,1.83a25.12,25.12,0,0,0-3.42,7.31A9.88,9.88,0,0,0,102,256c0,.11-.18.39-.29.6l-.24.48a33.3,33.3,0,0,0-3.83,12.54,9,9,0,0,0-2,5.16c-.1.25-.2.51-.28.77s-.09.26-.14.39a10.1,10.1,0,0,0-.57,2.14c-.11.84-.16,1.63-.2,2.39a11.69,11.69,0,0,1-.35,2.71c-1.31,3.75-1,7.28-.68,10.4.06.62.12,1.24.16,1.86.14,2.06.38,4.12.61,6.12l.33,3a15.1,15.1,0,0,0,.29,1.93c.13.62.27,1.25.4,1.88.38,1.77.77,3.61,1.26,5.44.92,3.41,1.82,6.45,2.76,9.29a36.57,36.57,0,0,0,3.06,6.41c.57,1,1.12,2,1.58,2.95a7.07,7.07,0,0,0,.83,1.29v0l.4.65a5.08,5.08,0,0,0,2.32,3.83,7,7,0,0,0,2.66,3.2,12,12,0,0,0,3.54,4.21l.65.56c2.55,2.31,5.39,4.61,8.44,6.86a15.3,15.3,0,0,0,4.55,2.12,15.29,15.29,0,0,1,1.61.58,23.49,23.49,0,0,0,6.6,1.66,20.4,20.4,0,0,1,3.73.77,4.74,4.74,0,0,0,1.59.27l.47,0a12.37,12.37,0,0,0,4.31,1.4,8.74,8.74,0,0,1,1.39.31l4.23,1.66.16-.51a7.19,7.19,0,0,0,1.3.21l.4,4.6,4.57-4,.89,1.37,3.86-3.57,0,0,2.68-.51.35-.07a5.46,5.46,0,0,0,1.61.24,6.28,6.28,0,0,0,4.37-2l.07-.06a3.67,3.67,0,0,1,2.65-.76,8.53,8.53,0,0,0,6-2.42c.2,0,.41,0,.62,0a6.42,6.42,0,0,0,4.73-1.76,9.78,9.78,0,0,1,4.85-2.52l0,.06,2.72-.51a4.81,4.81,0,0,0,3-1.28l.2-.19c.19-.19.43-.42.6-.56h.23c2.77,0,4.76-2.22,5.51-3.2l.21-.15a7.57,7.57,0,0,0,2.67-2.92,9.55,9.55,0,0,0,1.81-1.85c.12-.14.22-.29.34-.41a41.78,41.78,0,0,0,5.11-5.51,5.64,5.64,0,0,0,3.79-4.05,27.79,27.79,0,0,0,4.78-4.81c.7-.84,1.36-1.62,2-2.31a8,8,0,0,0,1.22-1.62,5.47,5.47,0,0,0,2.71-2.94,20.17,20.17,0,0,1,2.78-4.66c.69-1,1.41-2,2.08-3.07l0,0,.1,0a14.4,14.4,0,0,0,3.75-1.83c.31-.19.62-.39.93-.56l2.13-1.19,0-2.12c.16-.17.41-.4.59-.56a9.72,9.72,0,0,0,2.76-3.68l.47-.25a4.73,4.73,0,0,0,1.64-1.44,15.84,15.84,0,0,0,3.91-6.8l.72-.9a9,9,0,0,0,1.8-5c0-.29.07-.68.09-.75l0-.1.3.13.93-7.13c.16-1.22.31-2.41.46-3.6L253,274a6.91,6.91,0,0,0,0-3.63c0-.2.17-.6.26-.91l.27-.85a12.48,12.48,0,0,0,.45-2.18c.08-.83.16-1.66.25-2.49.25-2.34.5-4.75.58-7.21a49.42,49.42,0,0,0-.23-5.6,1.79,1.79,0,0,0,0-.23,6.16,6.16,0,0,0,1.78-4.53,6.41,6.41,0,0,1,.18-1.27,15,15,0,0,0,.34-2.36c0-.35,0-.7.05-1.05a18.57,18.57,0,0,1,.29-3.27,40.3,40.3,0,0,0,.8-7.53s0-.54,0-.69a12,12,0,0,1,1.79.93c.15.11.42.35.67.58a12.25,12.25,0,0,0,2.3,1.73,5.12,5.12,0,0,0,3.07,2.2c.42.45.83.91,1.25,1.37,1.14,1.26,2.33,2.56,3.63,3.81a6.48,6.48,0,0,1,.55.73,10.17,10.17,0,0,0,3,3.06l.09.13c.24.35.5.7.75,1l.4.54c.16.23.34.45.52.68a4,4,0,0,1,.31.41,36.93,36.93,0,0,0,4.57,7.15c.48.62,1,1.25,1.42,1.89.27.38.57.74.87,1.1l.27.33a4.35,4.35,0,0,0,.61,3.38,9.41,9.41,0,0,0,2.43,3.71,5.53,5.53,0,0,0,0,1.41,4.78,4.78,0,0,0,1.54,2.88,6.06,6.06,0,0,0,.38,1.29l.81,2a4.3,4.3,0,0,0-1.8,1.12,7.38,7.38,0,0,1-1,.4,11,11,0,0,0-3.56,1.91,15.57,15.57,0,0,1-3.48,2.37,7.26,7.26,0,0,0-3.13,2.59,6.08,6.08,0,0,0-1.14.61l-.53.37a59.47,59.47,0,0,0-5.31,3.9,74.27,74.27,0,0,0-6.52,6.15,18.09,18.09,0,0,0-2.06,2.83,10.14,10.14,0,0,1-1.16,1.64,20,20,0,0,0-3.81,5,52,52,0,0,0-3.51,7.46,31.34,31.34,0,0,0-1.28,5.35c-.16.9-.31,1.75-.5,2.56-1.15,4.81-.43,9.55.33,13.62a17.39,17.39,0,0,0,2.19,5.87,28.19,28.19,0,0,0,2.89,3.74l.85,1,1,1.16,1.47.31c.53.11,1,.18,1.5.23h.06a7,7,0,0,0,3.21,1.26,4.45,4.45,0,0,0,1.08.69,39.71,39.71,0,0,1,6.07,3.36,6.24,6.24,0,0,0,1.87.89,41.49,41.49,0,0,1,6.37,2.36,19.45,19.45,0,0,0,8.59,2.18,15.59,15.59,0,0,0,4.64-.71h0a5.23,5.23,0,0,0,1.84-.31,11.83,11.83,0,0,1,1.81-.4,13.27,13.27,0,0,0,6-2.23,6.46,6.46,0,0,1,2.73-1.15,11.18,11.18,0,0,0,7-4.19,42.32,42.32,0,0,0,4-6l.24-.41c1.81-3.11,3.79-6.8,4.29-11.26a5.15,5.15,0,0,1,.39-1.67,6.63,6.63,0,0,0,.62-4.2l.35-3.47c.13-1.31.26-2.55.35-3.83a8.21,8.21,0,0,0-.23-2.39l-.06-.3c-.08-.5-.18-1-.28-1.49-.17-.9-.34-1.75-.42-2.54a30.05,30.05,0,0,1-.24-4.44,5.21,5.21,0,0,0-.39-2.23l.33-.53-1.34-2.23a7.06,7.06,0,0,1-.4-1.17,9.47,9.47,0,0,0-2.61-4.67,6.3,6.3,0,0,0-.53-2.36l.21.39,2.22-8.08a4.32,4.32,0,0,0,1.05.12h.23l.21,0q.53,0,1.05-.06a10.49,10.49,0,0,0,6.68-2.11l.42.54,2.47-.38c.68-.1,1.3-.25,1.9-.39a10.22,10.22,0,0,1,1.83-.33,7.36,7.36,0,0,0,1.26.16c-.12.56-.23,1.11-.34,1.63a25.88,25.88,0,0,1-.74,3.11,16.14,16.14,0,0,0-.53,2.27c-.06.3-.11.6-.18.89-.16.66-.3,1.33-.44,2a13.17,13.17,0,0,1-.92,3.25,17.54,17.54,0,0,0-1.82,5.66c0,.22-.07.45-.09.68s0,.27-.06.39c-.21.84-.44,1.67-.66,2.51-.4,1.51-.82,3.06-1.18,4.65s-.64,3-.92,4.52c-.19,1-.37,2-.58,2.95s-.35,1.83-.51,2.76a34.72,34.72,0,0,1-1.18,5.19,13.93,13.93,0,0,0-.6,3.2c0,.34-.06.69-.12,1l0,.17c-.27,1.49-.52,2.91-.87,4.25a13.7,13.7,0,0,1-.45,1.3,13.27,13.27,0,0,0-1.05,4.07,22.41,22.41,0,0,1-.6,3.31,26.09,26.09,0,0,0-.84,5.61,19.94,19.94,0,0,1-1.39,5.7l-.42,1.26a23.29,23.29,0,0,0-.8,3.56,11,11,0,0,1-.7,2.84,13,13,0,0,0-1,4.54,13.17,13.17,0,0,1-.15,1.32c-.14.81-.29,1.62-.43,2.43-.44,2.58-.87,5-1.44,7.43a52.37,52.37,0,0,0-.87,5.39,26.59,26.59,0,0,1-1.32,6.45,7.37,7.37,0,0,0-.54,3.9,6.16,6.16,0,0,1-.28,1.82q-.15.6-.27,1.2c-.73,3.66-1.28,7.37-1.8,10.95l-.4,2.66c-.22,1.45-.42,2.91-.61,4.36-.22,1.62-.44,3.23-.69,4.84-.19,1.27-.44,2.53-.7,3.86-.17.91-.35,1.82-.51,2.73s-.26,1.56-.38,2.34c-.14,1-.29,1.89-.47,2.83-.31,1.57-.64,3.13-1,4.69-.4,1.91-.8,3.82-1.16,5.74-.59,3.1-1.14,6.24-1.66,9.28l-.41,2.35a5.57,5.57,0,0,0,.82,4.38,5.16,5.16,0,0,0,3.52,2l2.08.3,1.5-1.47c1.91-1.89,2.46-2.64,3-5.17l0-.13q.57-2.49,1.16-5c.3-1.26.6-2.51.89-3.77.17-.73.31-1.46.46-2.2.07-.39.15-.78.23-1.17s.2-1,.29-1.54a12.65,12.65,0,0,1,.53-2.33,30.93,30.93,0,0,0,2-8.77c0-.31,0-.63.05-.94a6.11,6.11,0,0,1,.35-2.28,5.16,5.16,0,0,0,.78-2.88c.11-.91.22-1.82.32-2.73.25-2.21.48-4.3.8-6.4s.8-4.44,1.28-6.77l.27-1.36c.14-.65.31-1.29.47-1.93s.3-1.12.43-1.68a18,18,0,0,0,.37-3.6,8.43,8.43,0,0,1,.23-2.18,47.32,47.32,0,0,0,1.34-5.44l0-.22a47.56,47.56,0,0,0,.71-4.77c0-.31.06-.63.08-.94a6.18,6.18,0,0,1,.13-1.14,7.43,7.43,0,0,0,1.05-5.36,4.83,4.83,0,0,0,.93-4.1l.12-.29a13.59,13.59,0,0,0,.53-1.3,39.91,39.91,0,0,0,1.45-6l.14-.71c.37-2,.72-3.95,1.07-5.93s.66-3.72,1-5.58c.14-.75.33-1.54.54-2.37s.4-1.62.57-2.44c.22-1.1.37-2.18.5-3.22a17.11,17.11,0,0,1,1-4.63c1.8-3.86,2.06-7.7,2.22-11.13l2.09-.93-.93-3.59a7.06,7.06,0,0,0,.36-1.39l.79-3.27c.62-2.56,1.23-5.11,1.87-7.67.13-.51.29-1,.45-1.52a20.62,20.62,0,0,0,.93-3.72,4.22,4.22,0,0,1,.82-2.34,7.75,7.75,0,0,0,1.59-4.74l.77-.41v-2.56q0-.79,0-1.59a15.65,15.65,0,0,1,0-2.43,8.91,8.91,0,0,1,.31-.89,8.64,8.64,0,0,0,.8-4.4,7.1,7.1,0,0,0,1.13-2.42,5.65,5.65,0,0,0,.91-1.71l1.47-.14a5.78,5.78,0,0,0,3,.91h.39a6,6,0,0,1,3,1.05,7.49,7.49,0,0,0,3.61,1,5.57,5.57,0,0,0,1.3-.14,6.7,6.7,0,0,1,1.55-.17,11.3,11.3,0,0,1,4.21,1l.92.41c.52.24,1.11.52,1.77.76l3,1.09a9.37,9.37,0,0,0-2.36,5.15l-.35,2.62,8.68,5.81,2.6-2.72a6.67,6.67,0,0,0,1.59.19,10.07,10.07,0,0,0,2.22-.29l.34-.07a7.88,7.88,0,0,0,1,0c3.08,0,5.16-1.64,6.68-2.83l2.28-1.8-.45-2.25a6.87,6.87,0,0,1,.61-.5l1-.77a20.15,20.15,0,0,1,3.94-2.59,47.14,47.14,0,0,1,4.75-1.69c.72-.22,1.51-.38,2.42-.57a5.88,5.88,0,0,0,2.43.57,4.93,4.93,0,0,0,1.75-.32l.4.08a11.17,11.17,0,0,0,2.21.26h1a37.38,37.38,0,0,1,4.69.37,7.81,7.81,0,0,1,.77.23,10.69,10.69,0,0,0,3.31.63,6.88,6.88,0,0,0,1.64-.19c1.19.67,2.42,1.36,3.62,2.07l.16.29a14.18,14.18,0,0,0,1,1.52c.56.71.49,1,.33,1.44-.22.62-.43,1.24-.63,1.87-.35,1-.67,2-1.06,2.9a6.5,6.5,0,0,0,1.4,7.71,13.22,13.22,0,0,0-.15,1.56,2.36,2.36,0,0,1,0,.4q-.74,3.38-1.5,6.75c-.67,3-1.35,6-2,9.05-.13.62-.28,1.25-.42,1.87a31.2,31.2,0,0,0-1.13,7.44,34.64,34.64,0,0,1-.6,5.45,49,49,0,0,0-.66,5.07,38.17,38.17,0,0,1-1.27,6.56c-.31,1.25-.64,2.53-.91,3.85s-.57,2.54-.91,3.88a45.92,45.92,0,0,0-1.73,10.27,12.42,12.42,0,0,0-1.37,5.07c0,.38-.08.76-.14,1.14-.28,1.58-.47,3.15-.66,4.66-.12,1-.25,2-.38,2.89,0,.15-.09.28-.13.43a10.34,10.34,0,0,0-.44,1.67c-.2,1.2-.36,2.4-.53,3.6-.31,2.26-.61,4.39-1.09,6.45a52.19,52.19,0,0,0-1,7c-.08.84-.16,1.68-.26,2.52a19.31,19.31,0,0,0-.06,2.91,8,8,0,0,1,0,1.78,25.36,25.36,0,0,0-.82,9.87c0,.68.07,1.36.09,2a6.6,6.6,0,0,0,5.33,6.65c.68.13,1.36.23,2.06.34l2.79.45,1.5-1.26a5.66,5.66,0,0,0,2-5.21,5,5,0,0,0-1.81-3.05,8,8,0,0,0-.45-4.34,8.1,8.1,0,0,0,.34-5.57l.24-1.52c.3-2,.59-3.88,1-5.74.32-1.55.56-3.08.8-4.57a56,56,0,0,1,1.19-6.08,10.29,10.29,0,0,0,.29-1.89c0-.13,0-.25,0-.38l.12-.64c.4-2.3.81-4.6,1.25-6.89.15-.77.34-1.53.52-2.29a31.33,31.33,0,0,0,1-5.62,18.55,18.55,0,0,1,.83-4.82,19.57,19.57,0,0,0,.65-2.81c.05-.32.11-.64.18-1s.1-.54.16-.81a8.9,8.9,0,0,1,.27-1.2l.11-.3a9.76,9.76,0,0,0,.77-4v-.2c0-.23,0-.54,0-.76a5.34,5.34,0,0,0,1.35-5,6.75,6.75,0,0,1,.29-1.24,15.75,15.75,0,0,0,.53-2.26,33.09,33.09,0,0,0,.28-3.31,11.2,11.2,0,0,1,.81-4.59,4.68,4.68,0,0,0,.57-3.29,4.23,4.23,0,0,1-.1-.79,4.4,4.4,0,0,0,.82-4q0-.31-.06-.63a1.36,1.36,0,0,0,0-.2,25.32,25.32,0,0,0,1.76-6.28,47.49,47.49,0,0,1,1.22-5.07c.15-.52.3-1.05.44-1.57.2-.74.43-1.47.65-2.21.29-.93.59-1.9.85-2.91a7.55,7.55,0,0,0-.14-4c-.37-1.23.73-3.42,1.83-4.16.54-.36,1.2-.71,1.89-1.08a22.27,22.27,0,0,0,3.53-2.18,7.61,7.61,0,0,1,1.39-.71,12.64,12.64,0,0,0,3.87-2.41,8.17,8.17,0,0,0,4.69-2.72l.07,0c.24-.07.55-.16.9-.29a4.71,4.71,0,0,0,3-.57c1.26-.73,2.39-1.52,3.48-2.29l1-.71a7,7,0,0,0,1-.83,5,5,0,0,0,3.15-1.47l0,0,.78-.49c.66-.41,1.41-.87,2.14-1.42l.54-.41,1.09,3.14,4.7-6.15a5.68,5.68,0,0,0,1.25-.28,7.23,7.23,0,0,0,2.5-1.54l.24-.21,3.15-2.41a10.68,10.68,0,0,0,1.27-.88,7.79,7.79,0,0,0,7.44,2.44l.27.06a15,15,0,0,0,2.56.27h.28c.38,0,.76,0,1.13-.05.2,0,.39,0,.64,0h0c.94,0,1.84,0,2.7-.09s1.53-.09,2.24-.09c.32,0,.63,0,.95,0s.53,0,.79,0a21.28,21.28,0,0,0,4.05-.49,20.3,20.3,0,0,1,2-.32l.3,0a6.46,6.46,0,0,0,4-1.32,8.57,8.57,0,0,0,1.44.12,13.27,13.27,0,0,0,4.24-.83l.71-.23,1.52-.44a6.5,6.5,0,0,0,3,.76,5.45,5.45,0,0,0,1.56-.23l.36.11a7.48,7.48,0,0,0,1.45.23c-.12.68-.33,1.41-.54,2.21l-.19.7c-.55,2-1,4.12-1.45,6.11-.51,2.32-1,4.52-1.61,6.67s-1,4.29-1.44,6.35a45.41,45.41,0,0,1-2.13,8.19,7.47,7.47,0,0,0-.49,2.07,50,50,0,0,1-2.31,9.57c-.44,1.36-.89,2.72-1.33,4.07-.86,2.62-1.72,5.23-2.55,7.86-.53,1.64-1,3.29-1.52,4.95-.58,1.92-1.16,3.84-1.78,5.75-.44,1.37-.93,2.72-1.41,4.08-.57,1.59-1.16,3.24-1.69,4.92-.36,1.15-.62,2.26-.88,3.34a27.15,27.15,0,0,1-1,3.65,29.43,29.43,0,0,0-1.15,3.83,18.76,18.76,0,0,1-1,3.14,49,49,0,0,0-2.58,8c-.25.94-.5,1.89-.76,2.82l-.7,2.41c-1.2,4.16-2.44,8.46-3.6,12.73-.89,3.26-1.69,6.54-2.37,9.75-.58,2.71-1.08,5.54-1.52,8.66a55.77,55.77,0,0,1-1.42,6.34c-1,4-2.12,8.1-1.87,12.69l-.33,2c-.27,1.71-.55,3.42-.79,5.13l-.57,4c-.64,4.51-1.31,9.18-1.86,13.8-.42,3.52-.74,7.09-1.05,10.53-.14,1.63-.29,3.25-.44,4.87-.12,1.26-.25,2.51-.38,3.76-.26,2.54-.53,5.17-.73,7.79-.15,1.93-.24,3.86-.32,5.73-.07,1.44-.13,2.87-.22,4.31-.13,1.94-.29,3.88-.44,5.82-.3,3.73-.61,7.59-.71,11.45-.11,4.55,0,9.13.17,13.55l.12,4.06a11.36,11.36,0,0,0,.49,2.76c.06.19.12.38.16.57l8.28,0a44.78,44.78,0,0,0,1.23-8.51c.08-2,.09-4,.1-6s0-3.81.09-5.67c.13-3.06.45-6.23.75-9.29l0-.17c.19-1.91.42-3.81.65-5.71.17-1.38.34-2.76.49-4.14.18-1.67.31-3.28.44-5.05.06-.74.09-1.48.12-2.21a17.68,17.68,0,0,1,.63-4.88,8.53,8.53,0,0,0,.5-2.25c.1-1.25.16-2.51.22-3.77a62.5,62.5,0,0,1,.61-7.21,54.53,54.53,0,0,0,.57-5.51,27.33,27.33,0,0,1,1.19-7.5,5.19,5.19,0,0,0,0-3.8,7,7,0,0,1,.31-1.45,14.3,14.3,0,0,0,.6-3.11,40.09,40.09,0,0,1,.94-5.67c.24-1.12.49-2.27.69-3.45.16-.94.24-1.82.32-2.68a14.51,14.51,0,0,1,.49-3,42.32,42.32,0,0,0,1.64-7.08c.25-1.53.5-3,.86-4.35a7,7,0,0,0,.21-2.1v-.16c0-.13,0-.28,0-.42a17.56,17.56,0,0,0,1.88-6.32,18.87,18.87,0,0,1,.41-2.22c.26-1,.47-1.93.66-2.85a25.62,25.62,0,0,1,1.13-4.16,19.87,19.87,0,0,0,1.08-4.22c.09-.48.17-1,.28-1.43s.21-.85.33-1.27l.05-.16c.17-.63.35-1.27.52-1.91a37.22,37.22,0,0,1,1.95-6,7.31,7.31,0,0,0,.54-3.62,6.89,6.89,0,0,0,2.07-6.31c.11-.5.2-1,.3-1.51a9.1,9.1,0,0,1,1.12-3.6A10.85,10.85,0,0,0,524,362.4l0-.14a14.31,14.31,0,0,1,1.69-4.83,12.76,12.76,0,0,0,1.56-3.63c.09-.31.18-.61.29-.91s.2-.6.29-.91.09-.32.13-.44a18,18,0,0,0,2.3-7.82,8.12,8.12,0,0,1,.38-1.52l.13-.45q1.07-3.5,2.16-7l.76-2.44a31,31,0,0,0,1.89-10,10.91,10.91,0,0,0,2.16-5.57,25.6,25.6,0,0,1,1-5.51c.25-.9.53-1.79.82-2.68a36.43,36.43,0,0,0,1.79-7.56,6.94,6.94,0,0,0,.81-1.54,8.47,8.47,0,0,0,.57.67,7.92,7.92,0,0,1,.42.77l.08.17c.77,1.52,2.06,4.06,5.69,4.06l.8,0a6.59,6.59,0,0,0,3.7,1.1,8.68,8.68,0,0,0,2.29-.33,21,21,0,0,0,3.82.32,18.6,18.6,0,0,0,4.34-.42,6.34,6.34,0,0,0,3,.69l.6,0a5.81,5.81,0,0,0,1.39-.27,7.42,7.42,0,0,0,1,.08,6.56,6.56,0,0,0,4.06-1.4,5.87,5.87,0,0,0,1.68.25,8.92,8.92,0,0,0,2.23-.34l1-.27c.4-.11.81-.23,1.22-.32l2.71-.62c2.35-.56,4.56-1.08,6.78-1.41a21.16,21.16,0,0,0,6-1.92,18,18,0,0,0,1.71-1c.22-.14.43-.28.65-.4l.13-.06a10.51,10.51,0,0,0,3.3.53,12.57,12.57,0,0,0,3.68-.58c.82-.26,1.6-.54,2.35-.82a13,13,0,0,1,4.27-1.08h.62l1,0a10.32,10.32,0,0,0,5-1.09l1.65.11a51.08,51.08,0,0,1,5.22.54c.74.13,1.45.19,2.08.24a9.93,9.93,0,0,1,1.62.22l2.1,3.77,3.77-2.08.11-.05a6,6,0,0,0,1.13-.7,6.36,6.36,0,0,0,2.65.53,11.17,11.17,0,0,0,1.67-.14c1.06-.18,2.07-.41,3-.62a24.56,24.56,0,0,1,4.3-.72,50.9,50.9,0,0,0,6.14-.71,37.09,37.09,0,0,1,5.72-.62h.83a6.05,6.05,0,0,0,3.37-.9l1.42.13c.52.05,1.12.11,1.78.11a9.11,9.11,0,0,0,3.67-.73h1.32c.39,0,.91,0,1.46-.06a6,6,0,0,0,2.39-.84l.57-.25a31.15,31.15,0,0,0,8.33-1.79c1.84-.71,3.72-1.33,5.71-2l1.24-.41a5.67,5.67,0,0,0,5-1.17,6.67,6.67,0,0,0,1.68.21,9.32,9.32,0,0,0,3.37-.74,5.27,5.27,0,0,1,.51-.19,27,27,0,0,0,3.17-1.13,12.89,12.89,0,0,1,2.81-.93,47.34,47.34,0,0,0,12.23-3.54,8.26,8.26,0,0,0,1.58-.92l.36-.24,6-3.89Zm-511.72,46.4c-1.08,1-2.2,2.08-3.28,3.27-2.41,2.67-5.1,5.19-7.44,7.35a9.45,9.45,0,0,1-1.29.83,19.76,19.76,0,0,0-1.9,1.19c-.93.68-1.79,1.38-2.63,2.05-.6.49-1.2,1-1.81,1.43l-.06,0a35.72,35.72,0,0,0-6.92,2.49c-1.27.56-2.46,1.1-3.65,1.5a6.53,6.53,0,0,0-1.86.95,4.78,4.78,0,0,1-2.52.72,13.5,13.5,0,0,0-2.82.66l-.2.07c-.54.17-1.08.37-1.62.57-.71.25-1.39.5-2,.66l-.71.18c-2.43.63-4.72,1.22-7,1.61a40.56,40.56,0,0,1-4.35.4c-.66,0-1.31.07-2,.12l-.62,0c-.73,0-1.54-.07-2.38-.15s-1.89-.18-2.91-.19a9.51,9.51,0,0,1-2-.39,15.55,15.55,0,0,0-4.09-.66H144a10.72,10.72,0,0,0-4.44-.85c-.63,0-1.26,0-1.9.07-.45,0-.9.07-1.35.07a5.23,5.23,0,0,1-.62,0c-.21,0-.44,0-.66,0l-1-.54c-1.67-.88-2.64-1.43-3.12-2.34a10.8,10.8,0,0,0-4.28-4l-1.17-.68a7.86,7.86,0,0,1-2.87-2.13l-.86-1.44-1.67-.42a8.12,8.12,0,0,1-1-1,12.42,12.42,0,0,0-3.29-2.76,8,8,0,0,0-1.47-2.48l-.22-.27c-.21-.32-.39-.66-.58-1l-.41-.72-.36-.59c-.13-.21-.26-.42-.38-.64,0,0-.26-.47-.29-.54-.1-.45-.17-.9-.24-1.35-.11-.67-.22-1.35-.36-2a15.09,15.09,0,0,0-1.1-3,6.19,6.19,0,0,1-.58-1.56,6.83,6.83,0,0,0-1.77-4,65.68,65.68,0,0,0-1.22-9.89c-.24-1.34-.49-2.73-.69-4.12a4.71,4.71,0,0,0,0-3.45c-.32-.79-.07-1.79.39-3.5l.22-.81a9.88,9.88,0,0,0,.28-4.58,13.56,13.56,0,0,0,1.42-5.44l0-.33a15.08,15.08,0,0,1,.63-3.1,86.49,86.49,0,0,1,3.55-9.38,9,9,0,0,0,.61-2c0-.11.05-.23.08-.34.07-.29.15-.59.22-.88.11-.47.23-.95.37-1.42.26-.79.54-1.61.86-2.42a6.36,6.36,0,0,0,.58-.86c.09-.13.19-.25.29-.37a8.11,8.11,0,0,0,1.82-3.73,12.89,12.89,0,0,0,2.14-2.62,6.7,6.7,0,0,0,.27,2.55,6.65,6.65,0,0,1-.09.76,10,10,0,0,0,0,3.92c-.07.22-.14.48-.2.76a15.13,15.13,0,0,0,.11,6,12.57,12.57,0,0,1,.26,2.16,15.16,15.16,0,0,0,.24,2.6l.08.56v.19a5.8,5.8,0,0,0,1.17,3.61V274c0,.28,0,.55,0,.82a11.51,11.51,0,0,0,1.66,5.11,8.68,8.68,0,0,1,.59,1.22,6.93,6.93,0,0,0,1.84,5.63c.09.12.19.23.27.35.81,1.25,1.64,2.48,2.47,3.69l-.79.7,2.18,3.11c.1.14.18.29.27.44a6.68,6.68,0,0,0,5.31,3.82,72.32,72.32,0,0,0,7.44,4.91,35.72,35.72,0,0,1,4,2.9c1,.76,2,1.55,3,2.3a19,19,0,0,0,3.61,1.88l.57.24c1.32.58,2.66,1.13,4,1.68l2.35,1c.8,1.47,2.39,2.93,5.5,3.51.68.13,1.35.28,2,.42a32.45,32.45,0,0,0,5.39.88c.43,0,.86.05,1.27.05a8.45,8.45,0,0,0,2.73-.4,8.72,8.72,0,0,0,3,.53,6.74,6.74,0,0,0,.77,0,7.52,7.52,0,0,0,1.64.49l.57.12a12,12,0,0,0,2.48.32,6.25,6.25,0,0,0,3.15-.8l2-.13c.43,0,.86-.1,1.28-.17a4.41,4.41,0,0,1,.62-.09c.5-.05,1-.08,1.5-.11.78-.05,1.56-.11,2.34-.19a6.18,6.18,0,0,0,2.1.33l.69,0h.25l.9,0,.23.12h2.75l.64-.58h.08a11.27,11.27,0,0,0,2.17.24,7.33,7.33,0,0,0,2.3-.36l.8-.27,1.4.6,2-1.6.53-.44.16-.14A39.4,39.4,0,0,1,210.38,319.29Zm20.52-57c-.11,1.23-.24,2.44-.38,3.66s-.3,2.74-.41,4.1c-.09,1-.07,2-.06,2.92,0,.49,0,1,0,1.47a22.68,22.68,0,0,1-1.34,6.77,15,15,0,0,0-.64,3.76,10.85,10.85,0,0,1-.18,1.58,19.76,19.76,0,0,0-.41,2.17,6,6,0,0,1-.36,1.64,5.13,5.13,0,0,0-.67,3.5c0,.17,0,.63,0,.69-.7,1.52-1.49,3-2.32,4.61l-.23.43c-.05.1-.16.31-.28.51h-.2a9.57,9.57,0,0,0-3.7.89l-.53.21a19.18,19.18,0,0,1-4.32.76,26.46,26.46,0,0,0-6.08,1.14c-.3.1-.73.19-1.19.29a11.59,11.59,0,0,0-4.67,1.82h-.2a9,9,0,0,0-3.08.62,5,5,0,0,1-.51.16,4,4,0,0,1-1.06.13,17.18,17.18,0,0,1-3.89-.71l-2.62-.66-1,.81a5.37,5.37,0,0,0-.93-.08c-.22,0-.45,0-.67,0a37.56,37.56,0,0,1-3.94.22,24.33,24.33,0,0,1-5.28-.54l-1.34-.29-.87.37-.55-.19a10.86,10.86,0,0,0-3.12-.76,8.44,8.44,0,0,0-5.17-1.67l-4.52-4.21-1,.54-1.43-1.81-1.9.93-.59-.36a8.63,8.63,0,0,1-.75-.48c-.42-.29-.89-.61-1.44-.92l-.31-.17a13.38,13.38,0,0,0-3.34-1.46,7.24,7.24,0,0,0-1.07-.19,10.86,10.86,0,0,0-5.79-3.93c-.5-.15-1.13-1.12-1.69-2.05l-1.21-2-1.68,0a8.44,8.44,0,0,0-1.24-1l0,0-.08-.17a8.88,8.88,0,0,0-1.35-2.16,11.07,11.07,0,0,0-1.27-1.22,12.16,12.16,0,0,0-1.44-4.36,11.34,11.34,0,0,1-.55-1.2,7.54,7.54,0,0,0-.33-.79,4.45,4.45,0,0,0-1.13-3.43s0-.07,0-.1a10.75,10.75,0,0,0-.22-2.08,20.08,20.08,0,0,0-.92-2.86c-.2-.53-.39-1-.5-1.45-.43-1.57-.79-3.16-1.17-4.85h0a11.67,11.67,0,0,0,.7-6.31,9.56,9.56,0,0,1-.09-1.67,23.82,23.82,0,0,1,.53-2.77c.13-.6.27-1.21.39-1.82a12.19,12.19,0,0,0,.23-2.25,4.48,4.48,0,0,1,.71-2.39,8.43,8.43,0,0,0,.72-2.2,7.35,7.35,0,0,0,1.65-4.59c0-.08,0-.17,0-.25.4-.83.78-1.68,1.15-2.53l.59-1.32c.07-.15.13-.3.19-.47a14.69,14.69,0,0,0,3.55-5.16l.25-.53.15-.26a7.19,7.19,0,0,0,1.12-3.89l0-.07c.1-.22.23-.43.35-.64s.33-.57.49-.86l0-.06a11.46,11.46,0,0,0,2.74-3.09,6.87,6.87,0,0,1,.63-.88,1.68,1.68,0,0,1,1.18-.7,13.28,13.28,0,0,0,5.2-2l.17-.1c.35-.2.44-.2.53-.2h.16a11.72,11.72,0,0,0,1.19,0,23.56,23.56,0,0,0,3.44-.32l.39-.06a7.83,7.83,0,0,1,1.11-.08,7.71,7.71,0,0,1,3,.58c1.72.75,3.24,2.29,5.08,5.14.08.16.13.34.21.54s.26.71.43,1.13l4,9.75,3.93-9.76a11,11,0,0,0-.2-8.92,11.15,11.15,0,0,0-.53-1h0a10.67,10.67,0,0,0-2.55-5c-.14-.16-.27-.33-.4-.49a7.53,7.53,0,0,0,1.09-.25,12,12,0,0,0,1.94.14c.59,0,1.18,0,1.77-.07.41,0,.83-.06,1.25-.06a3,3,0,0,1,1,.12,24.2,24.2,0,0,0,7.46,1.33,8.25,8.25,0,0,0,3.82,1.92l.19.05a32.13,32.13,0,0,1,3.58,1.3c1.1.45,2.24.91,3.45,1.3a42.43,42.43,0,0,1,8.49,4.21l.17.1c.57.34,1.16.66,1.75,1,1.81,1,3.36,1.83,4.21,3.07l1.32,2c.54.83,1.08,1.65,1.64,2.46s1.07,1.52,1.61,2.27a37.71,37.71,0,0,1,2.69,4c.31.56.64,1.1,1,1.65a19.94,19.94,0,0,1,1.55,2.87,45.05,45.05,0,0,0,2.6,5.39,6.56,6.56,0,0,1,1.15,2.74,6.33,6.33,0,0,0,.87,3.12l.07.14c.1.22.2.42.29.6a10.71,10.71,0,0,0,.65,3.55l.18.58a12,12,0,0,1,.46,4.64,13,13,0,0,0,.22,3.7c.05.35.11.69.14,1l0,.46A11.64,11.64,0,0,1,230.9,262.33ZM313,283.62l-.25-.26c0-.12-.06-.25-.1-.37ZM307.6,318a10.68,10.68,0,0,1-.19,3.9,7.87,7.87,0,0,0-.39,2.85v.12a24.93,24.93,0,0,0-1.25,3.55,10.35,10.35,0,0,1-1.31,3.23,5.1,5.1,0,0,1-.37.45l-.24.22c-1.6,1.42-3.25,2.88-4.89,4.26a2.33,2.33,0,0,1-.33.12c-.35.11-.7.19-1.06.28a13.78,13.78,0,0,0-3.2,1.05l-.3,0-.4-.06a21.76,21.76,0,0,0-2.86-.25,9.63,9.63,0,0,0-2.4.28l-.15,0a6.59,6.59,0,0,1-1.61-.42c-.5-.16-1.07-.35-1.69-.5-.81-.2-1.67-.51-2.59-.84a28.33,28.33,0,0,0-4-1.21c-3.91-.85-7.76-2.59-12.49-5.67a4.73,4.73,0,0,1-1.27-1.55,13.93,13.93,0,0,1-1.82-6.71l0-.77a23.6,23.6,0,0,1,.35-6.19l0-.19c.43-1.72.81-3.21,1.65-4a5.83,5.83,0,0,0,1.7-2.85c.28-1.2,1.27-2,3-3.45.71-.56,1.43-1.15,2.15-1.83l1.35-1.28c1.4-1.33,2.8-2.66,4.23-4a29,29,0,0,0,2.07-2.13A10.22,10.22,0,0,1,282,292a4.88,4.88,0,0,0,1.66-1.31,11.27,11.27,0,0,0,3.69-1.61l1.28-.77a40.08,40.08,0,0,1,6.07-3.21,10.88,10.88,0,0,0,1.4-.68,2.91,2.91,0,0,1,.3-.17l2.39-.39.31-.87c.27.47.55.89.81,1.27a9.88,9.88,0,0,1,.67,1.1L299,288.23l2.34,1.58-.27,1.64,1.71,1.32a2.48,2.48,0,0,0,0,.27l-1.28,4.44,2.91-.82a8.75,8.75,0,0,0,1.2,4.21,9.26,9.26,0,0,0,1.83,5.14,11.94,11.94,0,0,0-.12,5.86,5.18,5.18,0,0,0,.32,1.14A22.59,22.59,0,0,0,307.6,318Zm6.71-31.11a6.7,6.7,0,0,0-.24-1.2l1.43,2.61A8,8,0,0,0,314.31,286.86Z"/><path d="M307.8,291.23l-.49,1.7c-.65-1.14-.16-1.45.55-1.63Z"/></svg>